<?xml version="1.0" encoding="UTF-8"?>
<svg id="Layer_2" data-name="Layer 2" xmlns="http://www.w3.org/2000/svg" viewBox="0 0 180.26 159.23">
  <defs>
    <style>
      .cls-1 {
        fill: #b3b3b3;
        stroke-width: 2px;
      }

      .cls-1, .cls-2 {
        stroke: #000;
        stroke-miterlimit: 10;
      }

      .cls-2 {
        fill: #29abe2;
        stroke-width: 1.5px;
      }
    </style>
  </defs>
  <g id="Layer_1-2" data-name="Layer 1">
    <path class="cls-1" d="m179.26,62.54c0,5.63-1.55,10.9-4.25,15.41H5.59c-2.92-4.5-4.59-9.76-4.59-15.39,0-15.35,12.47-28,28.57-29.83,6.9-12.04,19.88-20.15,34.75-20.15,5.99,0,11.67,1.32,16.77,3.68C88.92,5.02,102.32-.77,115.29,1.48c15.01,2.61,26.81,15.54,28.3,31.55,1.82-.36,3.71-.54,5.63-.54,16.59,0,30.04,13.45,30.04,30.05Z"/>
    <path class="cls-2" d="m67.4,100.2l-11.64-18.14-11.64,18.14c-2.28,3.56-3.05,7.99-1.67,11.99,1.03,2.98,3.27,5.98,7.87,7.69,3.49,1.3,7.39,1.3,10.87,0,4.6-1.71,6.84-4.71,7.87-7.69,1.38-4,.62-8.43-1.67-11.99Z"/>
    <path class="cls-2" d="m137.46,80.42l-11.85-18.48-11.85,18.48c-2.33,3.62-3.1,8.14-1.7,12.21,1.05,3.03,3.33,6.09,8.02,7.83,3.55,1.32,7.52,1.32,11.07,0,4.69-1.74,6.97-4.8,8.02-7.83,1.41-4.07.63-8.58-1.7-12.21Z"/>
    <path class="cls-2" d="m100.93,139.31l-10.8-16.84-10.8,16.84c-2.12,3.3-2.83,7.42-1.55,11.13.96,2.77,3.03,5.55,7.3,7.14,3.24,1.2,6.86,1.2,10.09,0,4.27-1.59,6.35-4.37,7.31-7.14,1.28-3.71.57-7.82-1.55-11.13Z"/>
  </g>
</svg>