<?xml version="1.0" encoding="UTF-8"?>
<svg id="Layer_2" data-name="Layer 2" xmlns="http://www.w3.org/2000/svg" viewBox="0 0 1289.81 805.99">
  <defs>
    <style>
      .cls-1 {
        stroke: #00a6ff;
      }

      .cls-1, .cls-2, .cls-3 {
        stroke-width: 6px;
      }

      .cls-1, .cls-2, .cls-3, .cls-4, .cls-5, .cls-6, .cls-7, .cls-8, .cls-9 {
        stroke-miterlimit: 10;
      }

      .cls-1, .cls-2, .cls-3, .cls-4, .cls-5, .cls-9 {
        fill: none;
      }

      .cls-2 {
        stroke: #ffd600;
      }

      .cls-3 {
        stroke: red;
      }

      .cls-10 {
        fill: #fff;
      }

      .cls-11, .cls-8 {
        fill: #ff73cb;
      }

      .cls-12, .cls-7 {
        fill: #0df400;
      }

      .cls-4 {
        stroke: lime;
        stroke-width: 4px;
      }

      .cls-4, .cls-5 {
        stroke-dasharray: 0 14.9;
        stroke-linecap: round;
      }

      .cls-5 {
        stroke-width: 8px;
      }

      .cls-5, .cls-6, .cls-7, .cls-8, .cls-9 {
        stroke: #000;
      }

      .cls-6 {
        stroke-width: 9px;
      }

      .cls-7, .cls-8 {
        stroke-width: 3px;
      }

      .cls-13 {
        font-size: 20px;
      }

      .cls-13, .cls-14 {
        font-family: Poppins-Bold, Poppins;
        font-weight: 700;
      }

      .cls-14 {
        font-size: 18px;
      }

      .cls-9 {
        stroke-width: 18px;
      }
    </style>
  </defs>
  <g id="Layer_1-2" data-name="Layer 1">
    <g>
      <path class="cls-5" d="m1000.92,336.21l279.35,342.03"/>
      <path class="cls-4" d="m1000.92,336.21l279.35,342.03"/>
    </g>
    <text class="cls-13" transform="translate(1119.19 459.09) rotate(50.76)"><tspan x="0" y="0">D</tspan></text>
    <text class="cls-13" transform="translate(1128.39 470.35) rotate(50.76)"><tspan x="0" y="0">R</tspan></text>
    <text class="cls-13" transform="translate(1136.65 480.46) rotate(50.76)"><tspan x="0" y="0">S</tspan></text>
    <text class="cls-13" transform="translate(1144.43 489.99) rotate(50.76)"><tspan x="0" y="0"> </tspan></text>
    <text class="cls-13" transform="translate(1147.12 493.28) rotate(50.76)"><tspan x="0" y="0">Z</tspan></text>
    <text class="cls-13" transform="translate(1154.65 502.5) rotate(50.76)"><tspan x="0" y="0">o</tspan></text>
    <text class="cls-13" transform="translate(1162.71 512.37) rotate(50.76)"><tspan x="0" y="0">n</tspan></text>
    <text class="cls-13" transform="translate(1171.24 522.82) rotate(50.76)"><tspan x="0" y="0">e</tspan></text>
    <text class="cls-13" transform="translate(1179.04 532.36) rotate(50.76)"><tspan x="0" y="0"> </tspan></text>
    <text class="cls-13" transform="translate(1181.72 535.64) rotate(50.76)"><tspan x="0" y="0">1</tspan></text>
    <circle class="cls-6" cx="583.35" cy="433.22" r="8.23"/>
    <circle class="cls-6" cx="614.16" cy="419.29" r="8.23"/>
    <g>
      <path class="cls-9" d="m975.43,339.64l290.5,355.69c2.61,4.3,6.02,10.93,8,19.55,4.51,19.56-1.37,35.97-6.03,48.47-5.32,14.27-7.98,21.4-15.23,26.89-4.34,3.29-9.18,5.15-14.05,6.07-16.1,3.04-32.4-4.36-41.43-18.03l-58.79-89s-11.46-17.05-37-17.34c-2.21-.03-4.42.11-6.61.34-6.1.64-32,1.83-48.4-21.79-3.53-5.08-6.06-10.78-7.74-16.73l-13.14-46.55c-1.91-4.74-4.86-10.11-9.48-15.14-17.9-19.52-45.75-17.46-50.47-17.04-8.72.78-7.37.85-13.17.42-24.46-1.81-51.9-21.43-54.86-47.05-.49-4.21-.71-12,3.34-21.98l15.9-41.66s11.77-38.79-17.49-58.83c0,0-51.19-37.84-99.53-29.89,0,0-57.87,2.23-97.3,50.56l-28.38,34.59"/>
      <path class="cls-9" d="m674.07,441.19l-34.2,40.32s-2.51,4.74-11.05,4.43l-81.57,6.01s-18.65,3.79-21.81-20.87l-32.56-167.88s-1.79-23.05,7.53-41.25c4.24-8.27,8.53-16.51,12.48-24.93l5.28-11.27s9.48-18.65-1.58-24.66c0,0-13.24-9.17-23.85,7.59l-44.12,71.45s-24.34,47.42-94.85,49.95c0,0-65.13,2.53-121.4-28.77,0,0-54.14-31.23-64.68-56.91-.93-2.28-1.83-4.57-2.84-6.81l-47.34-104.63c-1.69-3.55-4.6-8.47-9.58-12.84-13.12-11.51-30.38-10.23-42.45-9.34-14.22,1.05-33.31,2.46-45.95,17.72-7.46,9.01-9.57,19.1-10.27,24.94-.51,5.77-.53,14.34,2.51,23.85,6.14,19.16,20.93,29.92,29.91,36.47,22.39,16.32,46.71,32.78,73.01,48.96,55.89,34.39,109.6,60.69,158.37,80.96"/>
      <path class="cls-9" d="m975.43,339.64c-33.37-44.31-81.28-66.58-121.7-55.64-8.42,2.28-21.1,7.24-34.42,19.21-1.54,1.39-2.98,2.88-4.42,4.38-15.09,15.7-29.75-6.4-29.75-6.4-8.23-11.79-18.36-4.71-22.08-1.41-1.64,1.45-3.29,2.89-5,4.26l-35.08,28.18c-10.58,9.47-26.34,23.39-45.81,39.96-23.82,20.28-35.92,30.54-45.23,36.66-42.87,28.18-75.35,31.18-85.68,29.9-.03,0-.07,0-.12-.01-10.56-1.33-20.94-3.84-30.95-7.46-80.71-29.2-161.42-58.39-242.13-87.59"/>
    </g>
    <g>
      <path class="cls-3" d="m975.43,339.64l290.5,355.69c2.61,4.3,6.02,10.93,8,19.55,4.51,19.56-1.37,35.97-6.03,48.47-5.32,14.27-7.98,21.4-15.23,26.89-4.34,3.29-9.18,5.15-14.05,6.07-16.1,3.04-32.4-4.36-41.43-18.03l-58.79-89s-11.46-17.05-37-17.34c-2.21-.03-4.42.11-6.61.34-6.1.64-32,1.83-48.4-21.79-3.53-5.08-6.06-10.78-7.74-16.73l-13.14-46.55c-1.91-4.74-4.86-10.11-9.48-15.14-17.9-19.52-45.75-17.46-50.47-17.04-8.72.78-7.37.85-13.17.42-24.46-1.81-51.9-21.43-54.86-47.05-.49-4.21-.71-12,3.34-21.98l15.9-41.66s11.77-38.79-17.49-58.83c0,0-51.19-37.84-99.53-29.89,0,0-57.87,2.23-97.3,50.56l-28.38,34.59"/>
      <path class="cls-1" d="m674.07,441.19l-34.2,40.32s-2.51,4.74-11.05,4.43l-81.57,6.01s-18.65,3.79-21.81-20.87l-32.56-167.88s-1.79-23.05,7.53-41.25c4.24-8.27,8.53-16.51,12.48-24.93l5.28-11.27s9.48-18.65-1.58-24.66c0,0-13.24-9.17-23.85,7.59l-44.12,71.45s-24.34,47.42-94.85,49.95c0,0-65.13,2.53-121.4-28.77,0,0-54.14-31.23-64.68-56.91-.93-2.28-1.83-4.57-2.84-6.81l-47.34-104.63c-1.69-3.55-4.6-8.47-9.58-12.84-13.12-11.51-30.38-10.23-42.45-9.34-14.22,1.05-33.31,2.46-45.95,17.72-7.46,9.01-9.57,19.1-10.27,24.94-.51,5.77-.53,14.34,2.51,23.85,6.14,19.16,20.93,29.92,29.91,36.47,22.39,16.32,46.71,32.78,73.01,48.96,55.89,34.39,109.6,60.69,158.37,80.96"/>
      <path class="cls-2" d="m975.43,339.64c-33.37-44.31-81.28-66.58-121.7-55.64-8.42,2.28-21.1,7.24-34.42,19.21-1.54,1.39-2.98,2.88-4.42,4.38-15.09,15.7-29.75-6.4-29.75-6.4-8.23-11.79-18.36-4.71-22.08-1.41-1.64,1.45-3.29,2.89-5,4.26l-35.08,28.18c-10.58,9.47-26.34,23.39-45.81,39.96-23.82,20.28-35.92,30.54-45.23,36.66-42.87,28.18-75.35,31.18-85.68,29.9-.03,0-.07,0-.12-.01-10.56-1.33-20.94-3.84-30.95-7.46-80.71-29.2-161.42-58.39-242.13-87.59"/>
    </g>
    <circle class="cls-11" cx="614.16" cy="419.29" r="8.23"/>
    <circle class="cls-12" cx="583.35" cy="433.22" r="8.23"/>
    <polygon points="995.6 397.86 984.07 370.33 971.97 379.63 995.6 397.86"/>
    <path class="cls-7" d="m583.35,61.06h-88c-3.31,0-6,2.69-6,6s2.69,6,6,6h82v332c0,3.31,2.69,6,6,6s6-2.69,6-6V67.06c0-3.31-2.69-6-6-6Z"/>
    <path class="cls-8" d="m611.93,39h88c3.31,0,6,2.69,6,6s-2.69,6-6,6h-82v332c0,3.31-2.69,6-6,6s-6-2.69-6-6V45c0-3.31,2.69-6,6-6Z"/>
    <rect class="cls-7" x="359.38" y="24.74" width="120" height="85" rx="12" ry="12"/>
    <text class="cls-14" transform="translate(401.43 51.81)"><tspan x="0" y="0">DRS</tspan><tspan x="-26.89" y="21.6">Detection</tspan><tspan x="-10.05" y="43.2">Zone 1</tspan></text>
    <rect class="cls-8" x="714.96" y="1.5" width="120" height="85" rx="12" ry="12"/>
    <text class="cls-14" transform="translate(746.12 40.04)"><tspan x="0" y="0">Speed</tspan><tspan x="7.45" y="21.6">Trap</tspan></text>
    <g>
      <rect x="966.34" y="353.85" width="5.01" height="5.01" transform="translate(1276.72 1341.69) rotate(-127.55)"/>
      <rect class="cls-10" x="963.28" y="349.88" width="5.01" height="5.01" transform="translate(1274.95 1332.87) rotate(-127.55)"/>
      <rect class="cls-10" x="957.17" y="341.93" width="5.01" height="5.01" transform="translate(1271.42 1315.23) rotate(-127.55)"/>
      <rect x="960.23" y="345.9" width="5.01" height="5.01" transform="translate(1273.19 1324.05) rotate(-127.55)"/>
      <rect x="954.12" y="337.95" width="5.01" height="5.01" transform="translate(643.59 -625.49) rotate(52.45)"/>
      <rect x="958.32" y="360.02" width="5.01" height="5.01" transform="translate(1258.93 1345.25) rotate(-127.55)"/>
      <rect class="cls-10" x="955.27" y="356.04" width="5.01" height="5.01" transform="translate(1257.17 1336.43) rotate(-127.55)"/>
      <rect class="cls-10" x="949.16" y="348.09" width="5.01" height="5.01" transform="translate(1253.64 1318.79) rotate(-127.55)"/>
      <rect x="952.21" y="352.06" width="5.01" height="5.01" transform="translate(1255.4 1327.61) rotate(-127.55)"/>
      <rect x="946.1" y="344.11" width="5.01" height="5.01" transform="translate(645.35 -616.73) rotate(52.45)"/>
      <rect x="953.16" y="345.01" width="5.01" height="5.01" transform="translate(648.81 -621.98) rotate(52.45)"/>
      <rect class="cls-10" x="956.22" y="348.98" width="5.01" height="5.01" transform="translate(653.16 -622.85) rotate(52.45)"/>
      <rect class="cls-10" x="962.33" y="356.93" width="5.01" height="5.01" transform="translate(661.85 -624.59) rotate(52.45)"/>
      <rect class="cls-10" x="950.11" y="341.03" width="5.01" height="5.01" transform="translate(644.47 -621.11) rotate(52.45)"/>
      <rect x="959.28" y="352.96" width="5.01" height="5.01" transform="translate(657.51 -623.72) rotate(52.45)"/>
    </g>
  </g>
</svg>