<?xml version="1.0" encoding="UTF-8"?>
<svg id="Layer_2" data-name="Layer 2" xmlns="http://www.w3.org/2000/svg" viewBox="0 0 1399 594">
  <defs>
    <style>
      .cls-1 {
        stroke-width: 8px;
      }

      .cls-1, .cls-2, .cls-3, .cls-4, .cls-5, .cls-6, .cls-7, .cls-8, .cls-9 {
        stroke-miterlimit: 10;
      }

      .cls-1, .cls-2, .cls-3, .cls-4, .cls-8, .cls-9 {
        fill: none;
      }

      .cls-1, .cls-5, .cls-6, .cls-7, .cls-9 {
        stroke: #000;
      }

      .cls-1, .cls-8 {
        stroke-dasharray: 0 14.92;
        stroke-linecap: round;
      }

      .cls-2 {
        stroke: #00a6ff;
      }

      .cls-2, .cls-3, .cls-4 {
        stroke-width: 6px;
      }

      .cls-3 {
        stroke: #ffd600;
      }

      .cls-4 {
        stroke: red;
      }

      .cls-10 {
        fill: #fff;
      }

      .cls-11, .cls-7 {
        fill: #ff73cb;
      }

      .cls-12, .cls-6 {
        fill: #0df400;
      }

      .cls-13 {
        font-family: Poppins-Medium, Poppins;
        font-size: 20px;
        font-weight: 500;
      }

      .cls-5 {
        stroke-width: 9px;
      }

      .cls-6, .cls-7 {
        stroke-width: 3px;
      }

      .cls-8 {
        stroke: lime;
        stroke-width: 4px;
      }

      .cls-14 {
        font-family: Poppins-Bold, Poppins;
        font-size: 18px;
        font-weight: 700;
      }

      .cls-9 {
        stroke-width: 18px;
      }
    </style>
  </defs>
  <g id="Layer_1-2" data-name="Layer 1">
    <circle class="cls-5" cx="88.12" cy="480.51" r="8.23"/>
    <circle class="cls-5" cx="823.12" cy="357.68" r="8.23"/>
    <g>
      <path class="cls-9" d="m145.07,220.9c61.07-80.9,115.12-135.87,140.6-150.85,24.08-14.16,35.74-19.45,35.74-19.45,15.11-6.86,23.73-9.14,36.19-17.19,10.4-6.72,17.84-13.81,22.48-18.71,3.54-2.83,9.01-6.23,14.73-5.1,4.77.94,7.69,4.63,8.53,5.64,5.93,7.09,30.75,26.91,83.03,65.22,36.63,26.11,67.46,42.63,89.35,53.05,11.13,5.29,21.17,9.59,35.19,18.02,18.46,11.1,33.28,23.03,44.74,33.65,10.8,10.01,23.31,18,36.86,23.75,22.71,9.63,45.42,19.27,68.14,28.9,7.41,3.14,14.46,7.09,21,11.78l76.61,54.85c1.42,1.02,2.81,2.09,4.19,3.17,32.37,25.23,76.04,28.03,108.27,7.55,25.11-15.96,35.11-40.86,39.08-58.19,2.04-8.89,2.53-18.06,1.54-27.12-1.64-14.97-.8-34.04,10.38-49.45,14.49-19.98,38.74-23.28,98.43-31.42,31.08-4.24,107.59-14.67,114.71-15.64"/>
      <path class="cls-9" d="m1234.88,133.34l31.36-4.31c4.4-.6,8.89-.45,13.22.55,9.6,2.23,22.88,8.9,19.13,28.82,0,0,0,14.47-14.48,24.43-14.47,9.96-17.05,44.17-17.05,44.17,0,0-1.63,18.91-6.3,24.96-.64.82-1.18,1.7-1.66,2.62-.82,1.54-7.49,13.34-2.37,20.43.6.83,3.18,4.13,9.83,4.85,1.74.22,5.18.38,8.46-1.58,4.57-2.72,5.97-7.79,6.54-10.05.33-1.3.52-2.64.65-3.98l4.9-49.65c.51-5.17,2.79-10.03,6.5-13.66,5.25-5.13,13.9-9.92,25.65-4.21l48.3,23.12s40.97,20.86,12.22,42.85l-107.98,92.76c-3.84,3.3-7.93,6.28-12.25,8.92-22.04,13.48-93.35,55.36-144.3,65.15-1.5.29-3.01.59-4.5.94-10.15,2.35-57.69,12.24-90.68-.47l-187.7-67.89c-2.95-1.07-5.79-2.41-8.48-4.02-17.56-10.5-86.98-52.55-117.49-79.25l-13.96-11.46s-9.33-7.15-15.86,4.35c0,0-9.84,17.82-23.11,1.76l-8.45-8.98c-.98-1.04-1.7-2.32-2.07-3.7-.82-3.01-1.64-6.01-2.46-9.02-1.61-5.89-5.06-11.11-9.84-14.9-1.65-1.31-3.3-2.61-4.95-3.92l-186.92-144.95c-.83-.64-1.65-1.3-2.44-1.99-4.13-3.61-10.68-8.1-19.26-9.08-6.74-.77-11.62.98-22,4.5-6.82,2.31-17.54,5.91-31.4,10.39"/>
      <path class="cls-9" d="m363.65,91.84c-14.9,5.19-39.08,15.73-62.91,37.08-17.23,15.45-28.75,31.6-36.24,44.37-3.06,5.22-3.97,11.39-2.77,17.32,1.59,7.85,2.21,18.27-1.55,29.24-.99,2.89-2.18,5.5-3.45,7.84l-78.92,112.3c-1.96,3.58-5.09,7.76-9.89,9.11-11.3,3.17-22.1-12.03-30.87-8.01-1.47.67-3.14,2.01-4.54,4.81s-2.86,5.66-4.58,8.33c-8.2,12.8-16.78,28.68-23.93,47.64-12.09,32.03-15.77,61.37-16.42,83.73-.25,8.72,1.17,17.41,4.11,25.63l9.39,26.31c.18,1.14.39,2.76.41,4.71.02,1.28.04,19.08-9.87,22.77-5.97,2.22-12.48-1.82-14.37-3.09,0,0-59.97-28.99-65.23-50.72,0,0-3.62-4.92-2.11-10.39,1.45-5.26,6.96-7.88,8.77-8.88,14.08-7.81,14.85-36.62,21.5-63.18,1.68-6.71,7.06-19.5,17.83-45.06,27.58-65.5,80.74-152.45,87.08-162.78"/>
    </g>
    <g>
      <path class="cls-4" d="m145.07,220.9c61.07-80.9,115.12-135.87,140.6-150.85,24.08-14.16,35.74-19.45,35.74-19.45,15.11-6.86,23.73-9.14,36.19-17.19,10.4-6.72,17.84-13.81,22.48-18.71,3.54-2.83,9.01-6.23,14.73-5.1,4.77.94,7.69,4.63,8.53,5.64,5.93,7.09,30.75,26.91,83.03,65.22,36.63,26.11,67.46,42.63,89.35,53.05,11.13,5.29,21.17,9.59,35.19,18.02,18.46,11.1,33.28,23.03,44.74,33.65,10.8,10.01,23.31,18,36.86,23.75,22.71,9.63,45.42,19.27,68.14,28.9,7.41,3.14,14.46,7.09,21,11.78l76.61,54.85c1.42,1.02,2.81,2.09,4.19,3.17,32.37,25.23,76.04,28.03,108.27,7.55,25.11-15.96,35.11-40.86,39.08-58.19,2.04-8.89,2.53-18.06,1.54-27.12-1.64-14.97-.8-34.04,10.38-49.45,14.49-19.98,38.74-23.28,98.43-31.42,31.08-4.24,107.59-14.67,114.71-15.64"/>
      <path class="cls-2" d="m1234.88,133.34l31.36-4.31c4.4-.6,8.89-.45,13.22.55,9.6,2.23,22.88,8.9,19.13,28.82,0,0,0,14.47-14.48,24.43-14.47,9.96-17.05,44.17-17.05,44.17,0,0-1.63,18.91-6.3,24.96-.64.82-1.18,1.7-1.66,2.62-.82,1.54-7.49,13.34-2.37,20.43.6.83,3.18,4.13,9.83,4.85,1.74.22,5.18.38,8.46-1.58,4.57-2.72,5.97-7.79,6.54-10.05.33-1.3.52-2.64.65-3.98l4.9-49.65c.51-5.17,2.79-10.03,6.5-13.66,5.25-5.13,13.9-9.92,25.65-4.21l48.3,23.12s40.97,20.86,12.22,42.85l-107.98,92.76c-3.84,3.3-7.93,6.28-12.25,8.92-22.04,13.48-93.35,55.36-144.3,65.15-1.5.29-3.01.59-4.5.94-10.15,2.35-57.69,12.24-90.68-.47l-187.7-67.89c-2.95-1.07-5.79-2.41-8.48-4.02-17.56-10.5-86.98-52.55-117.49-79.25l-13.96-11.46s-9.33-7.15-15.86,4.35c0,0-9.84,17.82-23.11,1.76l-8.45-8.98c-.98-1.04-1.7-2.32-2.07-3.7-.82-3.01-1.64-6.01-2.46-9.02-1.61-5.89-5.06-11.11-9.84-14.9-1.65-1.31-3.3-2.61-4.95-3.92l-186.92-144.95c-.83-.64-1.65-1.3-2.44-1.99-4.13-3.61-10.68-8.1-19.26-9.08-6.74-.77-11.62.98-22,4.5-6.82,2.31-17.54,5.91-31.4,10.39"/>
      <path class="cls-3" d="m363.65,91.84c-14.9,5.19-39.08,15.73-62.91,37.08-17.23,15.45-28.75,31.6-36.24,44.37-3.06,5.22-3.97,11.39-2.77,17.32,1.59,7.85,2.21,18.27-1.55,29.24-.99,2.89-2.18,5.5-3.45,7.84l-78.92,112.3c-1.96,3.58-5.09,7.76-9.89,9.11-11.3,3.17-22.1-12.03-30.87-8.01-1.47.67-3.14,2.01-4.54,4.81s-2.86,5.66-4.58,8.33c-8.2,12.8-16.78,28.68-23.93,47.64-12.09,32.03-15.77,61.37-16.42,83.73-.25,8.72,1.17,17.41,4.11,25.63l9.39,26.31c.18,1.14.39,2.76.41,4.71.02,1.28.04,19.08-9.87,22.77-5.97,2.22-12.48-1.82-14.37-3.09,0,0-59.97-28.99-65.23-50.72,0,0-3.62-4.92-2.11-10.39,1.45-5.26,6.96-7.88,8.77-8.88,14.08-7.81,14.85-36.62,21.5-63.18,1.68-6.71,7.06-19.5,17.83-45.06,27.58-65.5,80.74-152.45,87.08-162.78"/>
    </g>
    <g>
      <g>
        <path class="cls-1" d="m115.26,210.21c61.07-80.9,115.12-135.87,140.6-150.85,24.08-14.16,35.74-19.45,35.74-19.45,15.11-6.86,23.73-9.14,36.19-17.19,10.4-6.72,17.84-13.81,22.48-18.71"/>
        <path class="cls-1" d="m108.91,219.67c-6.35,10.33-59.51,97.29-87.08,162.78-10.77,25.57-16.15,38.35-17.83,45.06"/>
      </g>
      <g>
        <path class="cls-8" d="m115.26,210.12c61.07-80.9,115.12-135.87,140.6-150.85,24.08-14.16,35.74-19.45,35.74-19.45,15.11-6.86,23.73-9.14,36.19-17.19,10.4-6.72,17.84-13.81,22.48-18.71"/>
        <path class="cls-8" d="m108.91,219.59c-6.35,10.33-59.51,97.29-87.08,162.78-10.77,25.57-16.15,38.35-17.83,45.06"/>
      </g>
    </g>
    <circle class="cls-11" cx="823.12" cy="357.68" r="8.23"/>
    <circle class="cls-12" cx="88.12" cy="480.51" r="8.23"/>
    <text class="cls-13" transform="translate(88.32 229.63) rotate(-62.31)"><tspan x="0" y="0">D</tspan></text>
    <text class="cls-13" transform="translate(94.85 217.21) rotate(-59.61)"><tspan x="0" y="0">R</tspan></text>
    <text class="cls-13" transform="translate(101.19 206.43) rotate(-57.22)"><tspan x="0" y="0">Z</tspan></text>
    <text class="cls-13" transform="translate(107.22 197.14) rotate(-55.57)"><tspan x="0" y="0"> </tspan></text>
    <text class="cls-13" transform="translate(110.06 192.92) rotate(-53.93)"><tspan x="0" y="0">Z</tspan></text>
    <text class="cls-13" transform="translate(116.53 183.99) rotate(-51.53)"><tspan x="0" y="0">o</tspan></text>
    <text class="cls-13" transform="translate(124.38 174.11) rotate(-48.94)"><tspan x="0" y="0">n</tspan></text>
    <text class="cls-13" transform="translate(132.81 164.43) rotate(-46.4)"><tspan x="0" y="0">e</tspan></text>
    <text class="cls-13" transform="translate(141.29 155.61) rotate(-44.63)"><tspan x="0" y="0"> </tspan></text>
    <text class="cls-13" transform="translate(144.92 152.01) rotate(-43.41)"><tspan x="0" y="0">1</tspan></text>
    <text class="cls-13" transform="translate(149.97 147.25) rotate(-42.19)"><tspan x="0" y="0"> </tspan></text>
    <path class="cls-6" d="m277.91,411.51c-3.31,0-6,2.69-6,6v57H114.91c-3.31,0-6,2.69-6,6s2.69,6,6,6h163c3.31,0,6-2.69,6-6v-63c0-3.31-2.69-6-6-6Z"/>
    <path class="cls-7" d="m813.05,374.14c-2.87-1.66-6.54-.67-8.2,2.2l-44,76.21c-.27.47-.47.96-.6,1.46-.24.65-.37,1.34-.37,2.07v38c0,3.31,2.69,6,6,6s6-2.69,6-6v-36.63l43.36-75.11c1.66-2.87.67-6.54-2.2-8.2Z"/>
    <rect class="cls-6" x="219.38" y="317.64" width="120" height="85" rx="12" ry="12"/>
    <text class="cls-14" transform="translate(261.44 344.72)"><tspan x="0" y="0">DRS</tspan><tspan x="-26.89" y="21.6">Detection</tspan><tspan x="-10.05" y="43.2">Zone 1</tspan></text>
    <rect class="cls-7" x="703.12" y="507.5" width="120" height="85" rx="12" ry="12"/>
    <text class="cls-14" transform="translate(734.28 546.04)"><tspan x="0" y="0">Speed</tspan><tspan x="7.45" y="21.6">Trap</tspan></text>
    <polygon points="198.7 188.12 174.46 205.53 186.23 215.23 198.7 188.12"/>
    <g>
      <rect x="161.46" y="218.42" width="5.01" height="5.01" transform="translate(438.72 234.97) rotate(129.51)"/>
      <rect class="cls-10" x="158.26" y="222.29" width="5.01" height="5.01" transform="translate(436.49 243.77) rotate(129.51)"/>
      <rect class="cls-10" x="151.88" y="230.02" width="5.01" height="5.01" transform="translate(432.02 261.35) rotate(129.51)"/>
      <rect x="155.07" y="226.15" width="5.01" height="5.01" transform="translate(434.25 252.56) rotate(129.51)"/>
      <rect x="148.69" y="233.89" width="5.01" height="5.01" transform="translate(-127.38 202.66) rotate(-50.49)"/>
      <rect x="169.26" y="224.85" width="5.01" height="5.01" transform="translate(456.45 239.48) rotate(129.51)"/>
      <rect class="cls-10" x="166.07" y="228.72" width="5.01" height="5.01" transform="translate(454.21 248.27) rotate(129.51)"/>
      <rect class="cls-10" x="159.68" y="236.46" width="5.01" height="5.01" transform="translate(449.74 265.86) rotate(129.51)"/>
      <rect x="162.88" y="232.59" width="5.01" height="5.01" transform="translate(451.98 257.06) rotate(129.51)"/>
      <rect x="156.49" y="240.32" width="5.01" height="5.01" transform="translate(-129.51 211.02) rotate(-50.49)"/>
      <rect x="155.78" y="233.24" width="5.01" height="5.01" transform="translate(-124.3 207.89) rotate(-50.49)"/>
      <rect class="cls-10" x="158.97" y="229.37" width="5.01" height="5.01" transform="translate(-120.15 208.94) rotate(-50.49)"/>
      <rect class="cls-10" x="165.36" y="221.63" width="5.01" height="5.01" transform="translate(-111.86 211.05) rotate(-50.49)"/>
      <rect class="cls-10" x="152.59" y="237.11" width="5.01" height="5.01" transform="translate(-128.44 206.84) rotate(-50.49)"/>
      <rect x="162.17" y="225.5" width="5.01" height="5.01" transform="translate(-116.01 210) rotate(-50.49)"/>
    </g>
  </g>
</svg>