<?xml version="1.0" encoding="UTF-8"?>
<svg id="Layer_2" data-name="Layer 2" xmlns="http://www.w3.org/2000/svg" viewBox="0 0 1205.42 991.88">
  <defs>
    <style>
      .cls-1 {
        stroke: #00a6ff;
      }

      .cls-1, .cls-2, .cls-3 {
        stroke-width: 6px;
      }

      .cls-1, .cls-2, .cls-3, .cls-4, .cls-5, .cls-6, .cls-7, .cls-8, .cls-9 {
        stroke-miterlimit: 10;
      }

      .cls-1, .cls-2, .cls-3, .cls-4, .cls-5, .cls-9 {
        fill: none;
      }

      .cls-2 {
        stroke: #ffd600;
      }

      .cls-3 {
        stroke: red;
      }

      .cls-10 {
        fill: #fff;
      }

      .cls-11, .cls-8 {
        fill: #ff73cb;
      }

      .cls-12, .cls-7 {
        fill: #0df400;
      }

      .cls-4 {
        stroke: lime;
        stroke-width: 4px;
      }

      .cls-4, .cls-5 {
        stroke-dasharray: 0 16.89;
        stroke-linecap: round;
      }

      .cls-13 {
        font-size: 26.09px;
      }

      .cls-13, .cls-14 {
        font-family: Poppins-Bold, Poppins;
        font-weight: 700;
      }

      .cls-5 {
        stroke-width: 8px;
      }

      .cls-5, .cls-6, .cls-7, .cls-8, .cls-9 {
        stroke: #000;
      }

      .cls-6 {
        stroke-width: 9px;
      }

      .cls-7, .cls-8 {
        stroke-width: 3px;
      }

      .cls-14 {
        font-size: 18px;
      }

      .cls-9 {
        stroke-width: 18px;
      }
    </style>
  </defs>
  <g id="Layer_1-2" data-name="Layer 1">
    <circle class="cls-6" cx="1081.99" cy="682.2" r="8.23"/>
    <circle class="cls-6" cx="255.96" cy="800.64" r="8.23"/>
    <g>
      <path class="cls-9" d="m519.83,800.54l-370.95-.04s-46.46-1.99-53.43-44.8c0,0-6.46-35.2,23.63-54.95.83-.55,1.7-1.04,2.58-1.51l127.6-68.8c2.37-1.28,4.61-2.78,6.64-4.54,7.66-6.62,21.76-23.06,13.67-49.72-.29-.96-.54-1.93-.73-2.91-1.06-5.44-7.47-27.67-42.48-41.12-1.41-.54-2.8-1.14-4.15-1.83l-84.65-43.6c-.86-.44-1.74-.84-2.62-1.22-4.57-1.95-23.63-12.18-35.83-51.39L14.47,196.13s-17.76-49.44,10.74-69.19c2.56-1.78,5.4-3.12,8.34-4.16l72.85-25.88s37.75-15.41,58.12,20.52c1.03,1.82,1.87,3.75,2.57,5.72l37.22,104.86"/>
      <path class="cls-9" d="m204.31,227.99l25.77,70.62s7.93,23.06,28.1,18.38c0,0,26.3-.72,26.66-26.66l26.66-235.63s7.57-46.12,44.68-45.4c0,0,43.59-5.04,53.32,25.94,1.22,10.85,3.66,26.19,9.05,43.96,12.95,42.68,34.47,71.61,45.35,84.8,6.14,7.44,14.51,16.68,25.43,26.44,5.03,4.5,10.41,8.58,15.95,12.43,9.37,6.51,29.95,25.56,18.06,61.51l-27.38,100.39c-2.16,7.92-2.99,16.17-2.14,24.33,1.35,13.04,6.99,28.96,26,31.65,15.77.75,40.56.14,68.94-8.64,45.37-14.05,73.54-40.85,92.28-58.69,27.56-26.23,43.57-51.76,50.56-63.81,8.87-15.3,12.75-25.39,27.18-62.06,7.14-18.15,19.35-49.13,35.57-89.98"/>
      <path class="cls-9" d="m519.83,800.54h525.3c30.03,1.55,56.18-15.29,64.12-39.49,5.51-16.79.69-32.35-3.19-40.98-1.39-3.09-3.06-6.04-4.95-8.84l-169.37-250.62c-20.3-30.58-3.96-51.68-.58-55.51.58-.66,1.15-1.33,1.7-2.02l130.38-161.5c1.04-1.28,2.1-2.55,3.23-3.75,26.09-27.64,11.32-52.36,11.32-52.36-18.68-33.97-37.36-67.94-56.04-101.9-.44-.79-.85-1.59-1.25-2.4-2.89-5.83-9.77-17.41-23.51-25.61-.48-.28-.95-.56-1.42-.82-8.79-4.92-18.76-7.32-28.83-7.32-29.17,0-58.33,0-87.5.01-48.95-.85-66.5,41.31-66.5,41.31-6.13,16.27-12.26,32.55-18.39,48.83"/>
    </g>
    <g>
      <path class="cls-3" d="m519.83,800.54l-370.95-.04s-46.46-1.99-53.43-44.8c0,0-6.46-35.2,23.63-54.95.83-.55,1.7-1.04,2.58-1.51l127.6-68.8c2.37-1.28,4.61-2.78,6.64-4.54,7.66-6.62,21.76-23.06,13.67-49.72-.29-.96-.54-1.93-.73-2.91-1.06-5.44-7.47-27.67-42.48-41.12-1.41-.54-2.8-1.14-4.15-1.83l-84.65-43.6c-.86-.44-1.74-.84-2.62-1.22-4.57-1.95-23.63-12.18-35.83-51.39L14.47,196.13s-17.76-49.44,10.74-69.19c2.56-1.78,5.4-3.12,8.34-4.16l72.85-25.88s37.75-15.41,58.12,20.52c1.03,1.82,1.87,3.75,2.57,5.72l37.22,104.86"/>
      <path class="cls-1" d="m204.31,227.99l25.77,70.62s7.93,23.06,28.1,18.38c0,0,26.3-.72,26.66-26.66l26.66-235.63s7.57-46.12,44.68-45.4c0,0,43.59-5.04,53.32,25.94,1.22,10.85,3.66,26.19,9.05,43.96,12.95,42.68,34.47,71.61,45.35,84.8,6.14,7.44,14.51,16.68,25.43,26.44,5.03,4.5,10.41,8.58,15.95,12.43,9.37,6.51,29.95,25.56,18.06,61.51l-27.38,100.39c-2.16,7.92-2.99,16.17-2.14,24.33,1.35,13.04,6.99,28.96,26,31.65,15.77.75,40.56.14,68.94-8.64,45.37-14.05,73.54-40.85,92.28-58.69,27.56-26.23,43.57-51.76,50.56-63.81,8.87-15.3,12.75-25.39,27.18-62.06,7.14-18.15,19.35-49.13,35.57-89.98"/>
      <path class="cls-2" d="m519.83,800.54h525.3c30.03,1.55,56.18-15.29,64.12-39.49,5.51-16.79.69-32.35-3.19-40.98-1.39-3.09-3.06-6.04-4.95-8.84l-169.37-250.62c-20.3-30.58-3.96-51.68-.58-55.51.58-.66,1.15-1.33,1.7-2.02l130.38-161.5c1.04-1.28,2.1-2.55,3.23-3.75,26.09-27.64,11.32-52.36,11.32-52.36-18.68-33.97-37.36-67.94-56.04-101.9-.44-.79-.85-1.59-1.25-2.4-2.89-5.83-9.77-17.41-23.51-25.61-.48-.28-.95-.56-1.42-.82-8.79-4.92-18.76-7.32-28.83-7.32-29.17,0-58.33,0-87.5.01-48.95-.85-66.5,41.31-66.5,41.31-6.13,16.27-12.26,32.55-18.39,48.83"/>
    </g>
    <g>
      <g>
        <line class="cls-5" x1="586.3" y1="824.42" x2="165.78" y2="824.37"/>
        <line class="cls-5" x1="569.7" y1="824.42" x2="993.8" y2="824.42"/>
      </g>
      <g>
        <line class="cls-4" x1="586.3" y1="824.4" x2="165.78" y2="824.35"/>
        <line class="cls-4" x1="569.7" y1="824.4" x2="993.8" y2="824.4"/>
      </g>
    </g>
    <circle class="cls-12" cx="1081.99" cy="682.2" r="8.23"/>
    <circle class="cls-11" cx="255.96" cy="800.64" r="8.23"/>
    <polygon points="471.37 769.09 500.23 776.71 500.23 761.46 471.37 769.09"/>
    <text class="cls-13" transform="translate(499.33 855.6)"><tspan x="0" y="0">DRS Zone 1</tspan></text>
    <rect class="cls-8" x="249.96" y="839.9" width="12" height="50" rx="6" ry="6"/>
    <path class="cls-7" d="m1149.34,578.35c0-3.31-2.69-6-6-6s-6,2.69-6,6v46.28l-32.4,32.4c-2.34,2.34-2.34,6.14,0,8.48h0c2.34,2.34,6.14,2.34,8.49,0l34.12-34.12c1.12-1.12,1.68-2.56,1.74-4.02.03-.25.05-.5.05-.76v-48.25Z"/>
    <rect class="cls-7" x="1083.92" y="480.57" width="120" height="85" rx="12" ry="12"/>
    <text class="cls-14" transform="translate(1125.97 507.65)"><tspan x="0" y="0">DRS</tspan><tspan x="-26.89" y="21.6">Detection</tspan><tspan x="-10.05" y="43.2">Zone 1</tspan></text>
    <rect class="cls-8" x="195.96" y="905.38" width="120" height="85" rx="12" ry="12"/>
    <text class="cls-14" transform="translate(227.11 943.92)"><tspan x="0" y="0">Speed</tspan><tspan x="7.45" y="21.6">Trap</tspan></text>
    <g>
      <rect x="527.35" y="761.52" width="5.01" height="5.01" transform="translate(1059.72 1528.06) rotate(180)"/>
      <rect class="cls-10" x="522.34" y="761.52" width="5.01" height="5.01" transform="translate(1049.69 1528.06) rotate(180)"/>
      <rect class="cls-10" x="512.31" y="761.52" width="5.01" height="5.01" transform="translate(1029.64 1528.06) rotate(180)"/>
      <rect x="517.32" y="761.52" width="5.01" height="5.01" transform="translate(1039.66 1528.06) rotate(180)"/>
      <rect x="507.3" y="761.52" width="5.01" height="5.01"/>
      <rect x="527.35" y="771.63" width="5.01" height="5.01" transform="translate(1059.72 1548.28) rotate(180)"/>
      <rect class="cls-10" x="522.34" y="771.63" width="5.01" height="5.01" transform="translate(1049.69 1548.28) rotate(180)"/>
      <rect class="cls-10" x="512.31" y="771.63" width="5.01" height="5.01" transform="translate(1029.64 1548.28) rotate(180)"/>
      <rect x="517.32" y="771.63" width="5.01" height="5.01" transform="translate(1039.66 1548.28) rotate(180)"/>
      <rect x="507.3" y="771.63" width="5.01" height="5.01"/>
      <rect x="512.31" y="766.58" width="5.01" height="5.01"/>
      <rect class="cls-10" x="517.32" y="766.58" width="5.01" height="5.01"/>
      <rect class="cls-10" x="527.35" y="766.58" width="5.01" height="5.01"/>
      <rect class="cls-10" x="507.3" y="766.58" width="5.01" height="5.01"/>
      <rect x="522.34" y="766.58" width="5.01" height="5.01"/>
    </g>
  </g>
</svg>