<?xml version="1.0" encoding="UTF-8"?>
<svg id="Layer_2" data-name="Layer 2" xmlns="http://www.w3.org/2000/svg" viewBox="0 0 966.15 905.11">
  <defs>
    <style>
      .cls-1 {
        stroke-width: 8px;
      }

      .cls-1, .cls-2 {
        stroke-dasharray: 0 19.34;
        stroke-linecap: round;
      }

      .cls-1, .cls-2, .cls-3, .cls-4, .cls-5, .cls-6, .cls-7, .cls-8, .cls-9 {
        stroke-miterlimit: 10;
      }

      .cls-1, .cls-2, .cls-3, .cls-4, .cls-5, .cls-9 {
        fill: none;
      }

      .cls-1, .cls-6, .cls-7, .cls-8, .cls-9 {
        stroke: #000;
      }

      .cls-2 {
        stroke: lime;
        stroke-width: 4px;
      }

      .cls-3 {
        stroke: #00a6ff;
      }

      .cls-3, .cls-4, .cls-5 {
        stroke-width: 6px;
      }

      .cls-4 {
        stroke: #ffd600;
      }

      .cls-5 {
        stroke: red;
      }

      .cls-10 {
        fill: #fff;
      }

      .cls-11, .cls-8 {
        fill: #ff73cb;
      }

      .cls-12, .cls-7 {
        fill: #0df400;
      }

      .cls-6 {
        stroke-width: 9px;
      }

      .cls-7, .cls-8 {
        stroke-width: 3px;
      }

      .cls-13 {
        font-family: Poppins-Bold, Poppins;
        font-size: 18px;
        font-weight: 700;
      }

      .cls-9 {
        stroke-width: 18px;
      }
    </style>
  </defs>
  <g id="Layer_1-2" data-name="Layer 1">
    <circle class="cls-6" cx="296.98" cy="649.25" r="8.23"/>
    <circle class="cls-6" cx="198.4" cy="282.01" r="8.23"/>
    <g>
      <path class="cls-9" d="m198.4,502.45V35.37c0-8.86,4.11-17.33,11.34-22.44,1.58-1.12,5.87-4.03,11.33-3.93,10.22.18,17.64,10.82,21.76,16.91,26.67,39.35,40,59.02,47.57,84.92,3.19,10.92,6.91,26.54,8.66,45.9.17,54.75.33,109.49.5,164.24,0,0-2.69,43.17,37.96,43.17,0,0,24.76,3.33,38.06-28.09l29.13-68.74s3.46-10.01,13.93-16.42c6.33-3.88,12.35-4.64,13.99-4.87,14.01-1.89,110.48-22.13,244.64-50.67"/>
      <path class="cls-9" d="m677.28,195.36c3.74-1.02,9.68-2.51,17.06-3.74,6.13-1.02,24.82-3.78,53.09-1.64,21.73,1.64,26.29,4.41,35.1.33,4.65-2.15,7.99-5.07,19-18.11,16.59-19.66,22.94-28.77,22.94-28.77,12.18-17.49,26.34-37.67,42.46-60.83,2.83-4.06,6.22-7.73,10.16-10.72,2.01-1.52,4.3-3.02,6.9-4.37,13.82-7.2,27.15-5.63,32.14-4.78,5,.86,11.95,2.82,18.79,7.59,19.29,13.47,20.79,37.45,20.96,41.12l.56,7.78c1.42,19.66.69,39.42-2.16,58.92l-14.17,96.95c-.25,1.68-.4,3.37-.51,5.06-.34,5.36-2.77,20.05-19.16,18.73-.98-.08-1.96-.23-2.93-.43-3.23-.65-16.02-2.47-22.5,8.09-.8,1.31-1.62,2.61-2.54,3.84l-65.37,87.24s-11.56,11.24,5.09,37.11c.92,1.43,1.79,2.9,2.64,4.37l20.84,35.99c4.05,6.99,6.43,14.86,6.62,22.94.27,11.71-3.61,26.52-22.19,34.56-2.81,1.21-5.51,2.67-8.15,4.23l-73.62,43.49c-2.07,1.22-4.19,2.36-6.37,3.39-6.67,3.15-26.87,15.27-35.96,49.62l-19.76,60.3c-3.55,10.83-9.89,20.56-18.51,28.02-7.84,6.78-18.37,13-30.63,13-19.75-.88-39.51-1.77-59.26-2.65"/>
      <path class="cls-9" d="m587.84,732l-223-13.99s-23.53.63-20.08-23.85c3.15-14.98,7.07-35.31,10.67-59.58,12.33-83.16,4.02-98.57-4.6-105.66-4.73-3.89-11.64-6.99-22.07-7.35,0,0-29.18-1.88-31.69,31.69v94.76c0,7.58-1.36,15.13-4.19,22.16-5.77,14.33-18.64,34.39-45.39,33.38-23.47-.89-35.86-14.17-42.19-25.52-4.07-7.29-6.13-15.52-6.17-23.87-.24-50.58-.48-101.16-.72-151.74"/>
    </g>
    <g>
      <path class="cls-5" d="m198.4,502.45V35.37c0-8.86,4.11-17.33,11.34-22.44,1.58-1.12,5.87-4.03,11.33-3.93,10.22.18,17.64,10.82,21.76,16.91,26.67,39.35,40,59.02,47.57,84.92,3.19,10.92,6.91,26.54,8.66,45.9.17,54.75.33,109.49.5,164.24,0,0-2.69,43.17,37.96,43.17,0,0,24.76,3.33,38.06-28.09l29.13-68.74s3.46-10.01,13.93-16.42c6.33-3.88,12.35-4.64,13.99-4.87,14.01-1.89,110.48-22.13,244.64-50.67"/>
      <path class="cls-3" d="m677.28,195.36c3.74-1.02,9.68-2.51,17.06-3.74,6.13-1.02,24.82-3.78,53.09-1.64,21.73,1.64,26.29,4.41,35.1.33,4.65-2.15,7.99-5.07,19-18.11,16.59-19.66,22.94-28.77,22.94-28.77,12.18-17.49,26.34-37.67,42.46-60.83,2.83-4.06,6.22-7.73,10.16-10.72,2.01-1.52,4.3-3.02,6.9-4.37,13.82-7.2,27.15-5.63,32.14-4.78,5,.86,11.95,2.82,18.79,7.59,19.29,13.47,20.79,37.45,20.96,41.12l.56,7.78c1.42,19.66.69,39.42-2.16,58.92l-14.17,96.95c-.25,1.68-.4,3.37-.51,5.06-.34,5.36-2.77,20.05-19.16,18.73-.98-.08-1.96-.23-2.93-.43-3.23-.65-16.02-2.47-22.5,8.09-.8,1.31-1.62,2.61-2.54,3.84l-65.37,87.24s-11.56,11.24,5.09,37.11c.92,1.43,1.79,2.9,2.64,4.37l20.84,35.99c4.05,6.99,6.43,14.86,6.62,22.94.27,11.71-3.61,26.52-22.19,34.56-2.81,1.21-5.51,2.67-8.15,4.23l-73.62,43.49c-2.07,1.22-4.19,2.36-6.37,3.39-6.67,3.15-26.87,15.27-35.96,49.62l-19.76,60.3c-3.55,10.83-9.89,20.56-18.51,28.02-7.84,6.78-18.37,13-30.63,13-19.75-.88-39.51-1.77-59.26-2.65"/>
      <path class="cls-4" d="m587.84,732l-223-13.99s-23.53.63-20.08-23.85c3.15-14.98,7.07-35.31,10.67-59.58,12.33-83.16,4.02-98.57-4.6-105.66-4.73-3.89-11.64-6.99-22.07-7.35,0,0-29.18-1.88-31.69,31.69v94.76c0,7.58-1.36,15.13-4.19,22.16-5.77,14.33-18.64,34.39-45.39,33.38-23.47-.89-35.86-14.17-42.19-25.52-4.07-7.29-6.13-15.52-6.17-23.87-.24-50.58-.48-101.16-.72-151.74"/>
    </g>
    <g>
      <path class="cls-1" d="m175.35,617.22V96.45"/>
      <path class="cls-2" d="m175.35,617.22V96.45"/>
    </g>
    <g>
      <path class="cls-1" d="m326.68,304.06c-.17-54.75-.33-109.49-.5-164.24-1.75-19.36-5.47-34.98-8.66-45.9-7.57-25.9-20.91-45.58-47.57-84.92"/>
      <path class="cls-2" d="m326.68,304.06c-.17-54.75-.33-109.49-.5-164.24-1.75-19.36-5.47-34.98-8.66-45.9-7.57-25.9-20.91-45.58-47.57-84.92"/>
    </g>
    <circle class="cls-12" cx="296.98" cy="649.25" r="8.23"/>
    <circle class="cls-11" cx="198.4" cy="282.01" r="8.23"/>
    <rect class="cls-7" x="290.98" y="707.42" width="12" height="100" rx="6" ry="6"/>
    <path class="cls-8" d="m149.43,276.01h-82v-82.74c0-3.31-2.69-6-6-6h0c-3.31,0-6,2.69-6,6v88c0,.14.01.27.02.41,0,.11-.02.22-.02.33,0,3.31,2.69,6,6,6h88c3.31,0,6-2.69,6-6s-2.69-6-6-6Z"/>
    <rect class="cls-8" x="1.5" y="96.45" width="120" height="85" rx="12" ry="12"/>
    <rect class="cls-7" x="236.98" y="818.61" width="120" height="85" rx="12" ry="12"/>
    <text class="cls-13" transform="translate(9.35 146.03)"><tspan x="0" y="0">Speed Trap</tspan></text>
    <text class="cls-13" transform="translate(279.03 844.97)"><tspan x="0" y="0">DRS</tspan><tspan x="-28.8" y="21.6">Detection </tspan><tspan x="-10.05" y="43.2">Zone 1</tspan></text>
    <polygon points="219.67 456.35 212.04 485.21 227.3 485.21 219.67 456.35"/>
    <g>
      <rect x="212.11" y="489.68" width="5.01" height="5.01" transform="translate(706.8 277.57) rotate(90)"/>
      <rect class="cls-10" x="212.11" y="494.69" width="5.01" height="5.01" transform="translate(711.82 282.58) rotate(90)"/>
      <rect class="cls-10" x="212.11" y="504.72" width="5.01" height="5.01" transform="translate(721.84 292.61) rotate(90)"/>
      <rect x="212.11" y="499.71" width="5.01" height="5.01" transform="translate(716.83 287.6) rotate(90)"/>
      <rect x="212.11" y="509.74" width="5.01" height="5.01" transform="translate(-297.63 726.86) rotate(-90)"/>
      <rect x="222.22" y="489.68" width="5.01" height="5.01" transform="translate(716.91 267.46) rotate(90)"/>
      <rect class="cls-10" x="222.22" y="494.69" width="5.01" height="5.01" transform="translate(721.93 272.47) rotate(90)"/>
      <rect class="cls-10" x="222.22" y="504.72" width="5.01" height="5.01" transform="translate(731.95 282.5) rotate(90)"/>
      <rect x="222.22" y="499.71" width="5.01" height="5.01" transform="translate(726.94 277.49) rotate(90)"/>
      <rect x="222.22" y="509.74" width="5.01" height="5.01" transform="translate(-287.52 736.97) rotate(-90)"/>
      <rect x="217.16" y="504.72" width="5.01" height="5.01" transform="translate(-287.56 726.9) rotate(-90)"/>
      <rect class="cls-10" x="217.16" y="499.71" width="5.01" height="5.01" transform="translate(-282.54 721.89) rotate(-90)"/>
      <rect class="cls-10" x="217.16" y="489.68" width="5.01" height="5.01" transform="translate(-272.52 711.86) rotate(-90)"/>
      <rect class="cls-10" x="217.16" y="509.74" width="5.01" height="5.01" transform="translate(-292.57 731.91) rotate(-90)"/>
      <rect x="217.16" y="494.69" width="5.01" height="5.01" transform="translate(-277.53 716.87) rotate(-90)"/>
    </g>
    <text class="cls-13" transform="translate(160.23 502.03) rotate(-90)"><tspan x="0" y="0">DRS Zone 1</tspan></text>
    <text class="cls-13" transform="translate(341.5 169.08) rotate(90)"><tspan x="0" y="0">DRS Zone 2</tspan></text>
  </g>
</svg>