<?xml version="1.0" encoding="UTF-8"?>
<svg id="Layer_2" data-name="Layer 2" xmlns="http://www.w3.org/2000/svg" viewBox="0 0 498.06 468.38">
  <defs>
    <style>
      .cls-1 {
        fill: #fff;
      }

      .cls-2 {
        fill: #a50000;
      }

      .cls-2, .cls-3 {
        stroke: #000;
        stroke-miterlimit: 10;
        stroke-width: 2px;
      }

      .cls-3 {
        fill: #137400;
      }
    </style>
  </defs>
  <g id="Layer_1-2" data-name="Layer 1">
    <g>
      <path class="cls-2" d="m269.53,114.64s-39.36-2.15-59.69,12.12c-20.33,14.27-31.62,31.8-38.33,53.19,0,0-5.36.16-6.25,1.32l-18.09,76.15s-.4.72.65,1.8c-1.25,2.02-2.71,4.82-3.8,8.35-1.17,3.79-1.51,7.15-1.58,9.62.31,1.2.61,2.41.91,3.61,3.25,12.94,6.26,25.79,9.04,38.55.11.52.24,1.31.29,2.27.11,2.26-.34,3.95-.49,4.55-.41,1.67-.78,4.27-.57,8.33,0,0,.84,3.01,3.71,3.05,0,0,12.02,2.4,17.21,2.46,3.5.39,8.59.67,14.66-.06,2.64-.32,4.5-.72,8.23-1.54,7.22-1.58,12.63-3.2,20.55-5.59,5.14-1.55,7.7-2.33,11.2-3.57,1.18-.42,3.51-1.26,8.58-3.06,1.42-.51,2.61-.92,2.91-1.03,7.35-2.7,17.05-6.59,28.29-12.05,5.15-2.03,10.3-4.06,15.46-6.09,0,0,12.29-3.96,16.76-4.24,0,0,18.35-3.31,18.96-3.73l15.53-3.22s5.27-.79,6.06-6.3c4.2-8.15,8.39-16.29,12.59-24.44l3.31-9.05,4.29-12.54c1.93-5.72,3.82-12.95,4.76-21.45.68-6.2.72-11.81.47-16.6,0,0,.19-22.01-17.25-47.75-2.7-3.99-15.52-21.88-37.26-32.46-7.55-3.68-14.98-5.88-17.21-6.52-9.45-2.71-17.73-3.73-23.88-4.1Z"/>
      <path d="m303.11,177.3c-11.07,3.21-22.15,6.42-33.22,9.63,0,0-62.43-9.59-99.53-6.96,0,0-5.61.23-6.3,1.32l-18.24,76.15s-.31.97.66,1.8c0,0,1.3,1.1,2.84,1.67,0,0,3.37,1.4,5.4,1.58l1.67.3,1.45.22,1.64.21,2.07.21,1.92.15,2.41.14,3.31.11,2.05.03h3.52s3.65-.09,3.65-.09l3.31-.13,3.47-.19,3.19-.23,1.7-.05,4.54-.15,5-.21,4.29-.22,4.48-.25,5.82-.37,5.51-.4,3.29-.27,57.09-11.71,9.59-1.97,15.54-47.01,6.02-7.48c4.6-2.31,6.34-8.02,3.93-12.36-2.31-4.15-7.72-5.78-12.07-3.48Z"/>
      <circle class="cls-1" cx="306.85" cy="185.23" r="5.55"/>
      <g>
        <g>
          <path class="cls-3" d="m240.64,438.89s-9.27,30.55-82.66,28.37c0,0,56.2-34.92,82.66-28.37Z"/>
          <path class="cls-3" d="m97.15,435.08s67.93,27.55,90.57-1.09c0,0-21.82-16.09-90.57,1.09Z"/>
          <path class="cls-3" d="m138.61,365.51s4.64,54.24,40.65,61.63c0,0,17.19-6.25-40.65-61.63Z"/>
          <path class="cls-3" d="m49.41,383.52s51.56,47.19,85.66,25.92c0,0-11.46-24.28-85.66-25.92Z"/>
          <path class="cls-3" d="m105.61,325.41s-7.37,61.43,24.82,73.82c0,0,13.09-19.81-24.82-73.82Z"/>
          <path class="cls-3" d="m18.31,321.32s37.1,59.2,72.56,47.47c0,0-9-31.37-72.56-47.47Z"/>
          <path class="cls-3" d="m85.69,276.04s-25.64,57.29,5.18,80.2c0,0,13.64-23.19-5.18-80.2Z"/>
          <path class="cls-3" d="m1.66,252.03s21.83,63.29,56.48,64.11c0,0,.53-40.92-56.48-64.11Z"/>
          <path class="cls-3" d="m77.51,227.48s-36.28,38.19-16.09,75.84c0,0,20.73-18,16.09-75.84Z"/>
          <path class="cls-3" d="m6.04,187.11c-.42,5.71-2.47,40.6,21.67,60.42,3.61,2.96,8.46,6.13,14.88,8.6,1.59-5.7,1.98-10.76,1.82-14.99-1.14-31.6-33.55-51.2-38.38-54.02Z"/>
          <path class="cls-3" d="m82.21,176.2s-43.44,28.91-32.53,70.38c0,0,33.41-38.73,32.53-70.38Z"/>
          <path class="cls-3" d="m25.78,124.02s-10.69,69.91,17.4,72.51c2.5-5.77,5.56-15.1,5.12-26.68-.97-25.77-18.47-42.21-22.53-45.83Z"/>
          <path class="cls-3" d="m100.74,131.02s-50.84,17.33-49.98,56.76c0,0,31.63-14.59,49.98-56.76Z"/>
          <path class="cls-3" d="m58.28,68.92s-24.41,46.94-2.46,73.37c3.71-4.03,6.26-8.05,8.04-11.65,13.1-26.55-2.67-56.42-5.58-61.72Z"/>
          <path class="cls-3" d="m125.1,94.99s-46.23,3.13-58.97,40.02c0,0,34.51-9.72,58.97-40.02Z"/>
          <path class="cls-3" d="m102.09,30.03s-35,30.3-21.39,64.97c0,0,32.73-19.6,21.39-64.97Z"/>
          <path class="cls-3" d="m157.02,70.04s-38.99-11.83-65.99,20.58c0,0,36.83.97,65.99-20.58Z"/>
          <path class="cls-3" d="m153.61,7.18s-44.23,19.44-35.16,52.01c0,0,32.89-15.07,35.16-52.01Z"/>
          <path class="cls-3" d="m195.09,56.11s-36.98-22.15-65.29,1.13c0,0,25.27,9.72,65.29-1.13Z"/>
          <path class="cls-3" d="m205.62,1.2s-45.04,5.01-45.85,33.2c0,0,26.41,5.21,45.85-33.2Z"/>
          <path class="cls-3" d="m181.65,395.21s15.3,49.09,52.73,39.13c0,0,.74-22.12-52.73-39.13Z"/>
        </g>
        <g>
          <path class="cls-3" d="m257.42,438.89s9.27,30.55,82.66,28.37c0,0-56.2-34.92-82.66-28.37Z"/>
          <path class="cls-3" d="m400.91,435.08s-67.93,27.55-90.57-1.09c0,0,21.82-16.09,90.57,1.09Z"/>
          <path class="cls-3" d="m359.44,365.51s-4.64,54.24-40.65,61.63c0,0-17.19-6.25,40.65-61.63Z"/>
          <path class="cls-3" d="m448.64,383.52s-51.56,47.19-85.66,25.92c0,0,11.46-24.28,85.66-25.92Z"/>
          <path class="cls-3" d="m392.45,325.41s7.37,61.43-24.82,73.82c0,0-13.09-19.81,24.82-73.82Z"/>
          <path class="cls-3" d="m479.74,321.32s-37.1,59.2-72.56,47.47c0,0,9-31.37,72.56-47.47Z"/>
          <path class="cls-3" d="m412.36,276.04s25.64,57.29-5.18,80.2c0,0-13.64-23.19,5.18-80.2Z"/>
          <path class="cls-3" d="m496.39,252.03s-21.83,63.29-56.48,64.11c0,0-.53-40.92,56.48-64.11Z"/>
          <path class="cls-3" d="m420.55,227.48s36.28,38.19,16.09,75.84c0,0-20.73-18-16.09-75.84Z"/>
          <path class="cls-3" d="m492.02,187.11c.42,5.71,2.47,40.6-21.67,60.42-3.61,2.96-8.46,6.13-14.88,8.6-1.59-5.7-1.98-10.76-1.82-14.99,1.14-31.6,33.55-51.2,38.38-54.02Z"/>
          <path class="cls-3" d="m415.85,176.2s43.44,28.91,32.53,70.38c0,0-33.41-38.73-32.53-70.38Z"/>
          <path class="cls-3" d="m472.28,124.02s10.69,69.91-17.4,72.51c-2.5-5.77-5.56-15.1-5.12-26.68.97-25.77,18.47-42.21,22.53-45.83Z"/>
          <path class="cls-3" d="m397.32,131.02s50.84,17.33,49.98,56.76c0,0-31.63-14.59-49.98-56.76Z"/>
          <path class="cls-3" d="m439.78,68.92s24.41,46.94,2.46,73.37c-3.71-4.03-6.26-8.05-8.04-11.65-13.1-26.55,2.67-56.42,5.58-61.72Z"/>
          <path class="cls-3" d="m372.96,94.99s46.23,3.13,58.97,40.02c0,0-34.51-9.72-58.97-40.02Z"/>
          <path class="cls-3" d="m395.96,30.03s35,30.3,21.39,64.97c0,0-32.73-19.6-21.39-64.97Z"/>
          <path class="cls-3" d="m341.04,70.04s38.99-11.83,65.99,20.58c0,0-36.83.97-65.99-20.58Z"/>
          <path class="cls-3" d="m344.44,7.18s44.23,19.44,35.16,52.01c0,0-32.89-15.07-35.16-52.01Z"/>
          <path class="cls-3" d="m302.97,56.11s36.98-22.15,65.29,1.13c0,0-25.27,9.72-65.29-1.13Z"/>
          <path class="cls-3" d="m292.44,1.2s45.04,5.01,45.85,33.2c0,0-26.41,5.21-45.85-33.2Z"/>
          <path class="cls-3" d="m316.41,395.21s-15.3,49.09-52.73,39.13c0,0-.74-22.12,52.73-39.13Z"/>
        </g>
      </g>
    </g>
  </g>
</svg>