<?xml version="1.0" encoding="UTF-8"?>
<svg id="Layer_2" data-name="Layer 2" xmlns="http://www.w3.org/2000/svg" viewBox="0 0 1622.24 784.78">
  <defs>
    <style>
      .cls-1 {
        stroke: #00a6ff;
      }

      .cls-1, .cls-2, .cls-3 {
        stroke-width: 6px;
      }

      .cls-1, .cls-2, .cls-3, .cls-4, .cls-5, .cls-6, .cls-7, .cls-8, .cls-9 {
        stroke-miterlimit: 10;
      }

      .cls-1, .cls-2, .cls-3, .cls-4, .cls-5, .cls-9 {
        fill: none;
      }

      .cls-2 {
        stroke: #ffd600;
      }

      .cls-3 {
        stroke: red;
      }

      .cls-4 {
        stroke: lime;
        stroke-width: 4px;
      }

      .cls-4, .cls-5 {
        stroke-dasharray: 0 14.01;
        stroke-linecap: round;
      }

      .cls-10 {
        fill: #fff;
      }

      .cls-11, .cls-8 {
        fill: #ff73cb;
      }

      .cls-12, .cls-7 {
        fill: #0df400;
      }

      .cls-5 {
        stroke-width: 8px;
      }

      .cls-5, .cls-6, .cls-7, .cls-8, .cls-9 {
        stroke: #000;
      }

      .cls-6 {
        stroke-width: 9px;
      }

      .cls-7, .cls-8 {
        stroke-width: 3px;
      }

      .cls-13 {
        font-family: Poppins-Bold, Poppins;
        font-size: 18px;
        font-weight: 700;
      }

      .cls-9 {
        stroke-width: 18px;
      }
    </style>
  </defs>
  <g id="Layer_1-2" data-name="Layer 1">
    <circle class="cls-6" cx="1440.78" cy="457.31" r="8.23"/>
    <circle class="cls-6" cx="489.24" cy="557.01" r="8.23"/>
    <circle class="cls-6" cx="656.88" cy="244.56" r="8.23"/>
    <g>
      <path class="cls-9" d="m1064.52,556.98H244.36s-45.52,3.01-44.73-48.57-6.35-64.28-46.03-82.13l-77.77-31.74s-54.36-14.48-65.87-93.24,81.19-164.39,185.61-163.73h198.4"/>
      <path class="cls-9" d="m393.97,137.55h61.02s60.95,7.14,49.69,74.05c-9.98,59.29-73.01,72.8-97.85,77.88-5.26,1.08-10.61,1.62-15.98,1.62h-166.42c-1.77,0-3.53-.06-5.29-.16-8.85-.51-44.12-.38-43.93,34.24.07,12.37,6.39,23.86,16.53,30.94l112.52,78.5s57.2,41.97,130.75,39.75l88.03.09s42.72,2.14,43.46-45.77c0,0-1.61-57.9,12.83-75.22,4.06-4.86,8.09-9.75,11.7-14.95l101.76-146.45s25.63-34.17,69.83-33.06c7.43-.21,17.25.27,28.4,2.93,14.13,3.36,25,8.93,32.22,13.39,124.9,75.04,249.81,150.08,374.71,225.13"/>
      <path class="cls-9" d="m1197.96,400.43l60.47,36.17s36.03,18.31,50.14-19.83c8.99-24.31-11.84-76.3-11.84-76.3-17.76-38.15-88.14-56.57-88.14-56.57-2.68-.87-32.48-11.08-41.52-41.85-6.81-23.15.55-49.71,20.37-65.32,24.49-19.28,53.93-10.76,56.67-9.92l138.13,47.36c24.18,8.07,35.93,20.01,42.19,29.57,15.58,23.81,16.35,62.25,16.35,62.25h0v168.45c-17.76,91.88-92.09,82.56-92.09,82.56l-284.17-.03"/>
    </g>
    <g>
      <path class="cls-3" d="m1064.52,556.98H244.36s-45.52,3.01-44.73-48.57-6.35-64.28-46.03-82.13l-77.77-31.74s-54.36-14.48-65.87-93.24,81.19-164.39,185.61-163.73h198.4"/>
      <path class="cls-1" d="m393.97,137.55h61.02s60.95,7.14,49.69,74.05c-9.98,59.29-73.01,72.8-97.85,77.88-5.26,1.08-10.61,1.62-15.98,1.62h-166.42c-1.77,0-3.53-.06-5.29-.16-8.85-.51-44.12-.38-43.93,34.24.07,12.37,6.39,23.86,16.53,30.94l112.52,78.5s57.2,41.97,130.75,39.75l88.03.09s42.72,2.14,43.46-45.77c0,0-1.61-57.9,12.83-75.22,4.06-4.86,8.09-9.75,11.7-14.95l101.76-146.45s25.63-34.17,69.83-33.06c7.43-.21,17.25.27,28.4,2.93,14.13,3.36,25,8.93,32.22,13.39,124.9,75.04,249.81,150.08,374.71,225.13"/>
      <path class="cls-2" d="m1197.96,400.43l60.47,36.17s36.03,18.31,50.14-19.83c8.99-24.31-11.84-76.3-11.84-76.3-17.76-38.15-88.14-56.57-88.14-56.57-2.68-.87-32.48-11.08-41.52-41.85-6.81-23.15.55-49.71,20.37-65.32,24.49-19.28,53.93-10.76,56.67-9.92l138.13,47.36c24.18,8.07,35.93,20.01,42.19,29.57,15.58,23.81,16.35,62.25,16.35,62.25h0v168.45c-17.76,91.88-92.09,82.56-92.09,82.56l-284.17-.03"/>
    </g>
    <g>
      <g>
        <line class="cls-5" x1="985.96" y1="576.27" x2="262.92" y2="576.27"/>
        <line class="cls-5" x1="974.34" y1="576.26" x2="1224.86" y2="576.29"/>
      </g>
      <g>
        <line class="cls-4" x1="985.96" y1="576.26" x2="262.92" y2="576.26"/>
        <line class="cls-4" x1="974.34" y1="576.24" x2="1224.86" y2="576.27"/>
      </g>
    </g>
    <g>
      <g>
        <path class="cls-5" d="m1198.4,377.76c-124.9-75.04-249.81-150.08-374.71-225.13"/>
        <line class="cls-5" x1="1187.18" y1="371.11" x2="1247.64" y2="407.28"/>
      </g>
      <g>
        <path class="cls-4" d="m1198.4,377.76c-124.9-75.04-249.81-150.08-374.71-225.13"/>
        <line class="cls-4" x1="1187.18" y1="371.11" x2="1247.64" y2="407.28"/>
      </g>
    </g>
    <circle class="cls-12" cx="656.88" cy="244.56" r="8.23"/>
    <circle class="cls-12" cx="1440.78" cy="457.31" r="8.23"/>
    <circle class="cls-11" cx="489.24" cy="557.01" r="8.23"/>
    <path class="cls-7" d="m1562.14,362.67c-3.31,0-6,2.69-6,6v82h-82.52c-3.31,0-6,2.69-6,6s2.69,6,6,6h88c.09,0,.17,0,.26-.01.09,0,.17.01.26.01,3.31,0,6-2.69,6-6v-88c0-3.31-2.69-6-6-6Z"/>
    <rect class="cls-8" x="482.12" y="587.29" width="12" height="100" rx="6" ry="6"/>
    <rect class="cls-7" x="1500.74" y="266.63" width="120" height="85" rx="12" ry="12"/>
    <text class="cls-13" transform="translate(1542.79 293.71)"><tspan x="0" y="0">DRS</tspan><tspan x="-26.89" y="21.6">Detection</tspan><tspan x="-11.81" y="43.2">Zone 2</tspan></text>
    <rect class="cls-7" x="650.88" y="108.25" width="12" height="100" rx="6" ry="6"/>
    <rect class="cls-7" x="596.88" y="1.5" width="120" height="85" rx="12" ry="12"/>
    <text class="cls-13" transform="translate(638.94 28.58)"><tspan x="0" y="0">DRS</tspan><tspan x="-26.89" y="21.6">Detection</tspan><tspan x="-10.05" y="43.2">Zone 1</tspan></text>
    <rect class="cls-8" x="429.24" y="698.28" width="120" height="85" rx="12" ry="12"/>
    <text class="cls-13" transform="translate(460.4 736.82)"><tspan x="0" y="0">Speed</tspan><tspan x="7.45" y="21.6">Trap</tspan></text>
    <polygon points="1010.23 535.67 1039.09 543.3 1039.09 528.04 1010.23 535.67"/>
    <g>
      <rect x="1072.04" y="528.1" width="5.01" height="5.01" transform="translate(2149.1 1061.22) rotate(180)"/>
      <rect class="cls-10" x="1067.03" y="528.1" width="5.01" height="5.01" transform="translate(2139.07 1061.22) rotate(180)"/>
      <rect class="cls-10" x="1057" y="528.1" width="5.01" height="5.01" transform="translate(2119.01 1061.22) rotate(180)"/>
      <rect x="1062.01" y="528.1" width="5.01" height="5.01" transform="translate(2129.04 1061.22) rotate(180)"/>
      <rect x="1051.98" y="528.1" width="5.01" height="5.01"/>
      <rect x="1072.04" y="538.22" width="5.01" height="5.01" transform="translate(2149.1 1081.44) rotate(180)"/>
      <rect class="cls-10" x="1067.03" y="538.22" width="5.01" height="5.01" transform="translate(2139.07 1081.44) rotate(180)"/>
      <rect class="cls-10" x="1057" y="538.22" width="5.01" height="5.01" transform="translate(2119.01 1081.44) rotate(180)"/>
      <rect x="1062.01" y="538.22" width="5.01" height="5.01" transform="translate(2129.04 1081.44) rotate(180)"/>
      <rect x="1051.98" y="538.22" width="5.01" height="5.01"/>
      <rect x="1057" y="533.16" width="5.01" height="5.01"/>
      <rect class="cls-10" x="1062.01" y="533.16" width="5.01" height="5.01"/>
      <rect class="cls-10" x="1072.04" y="533.16" width="5.01" height="5.01"/>
      <rect class="cls-10" x="1051.98" y="533.16" width="5.01" height="5.01"/>
      <rect x="1067.03" y="533.16" width="5.01" height="5.01"/>
    </g>
    <text class="cls-13" transform="translate(734.58 609.3)"><tspan x="0" y="0">DRS Zone 1</tspan></text>
    <text class="cls-13" transform="translate(974.38 230.87) rotate(33.32)"><tspan x="0" y="0">DRS Zone 2</tspan></text>
  </g>
</svg>