<?xml version="1.0" encoding="UTF-8"?>
<svg id="Layer_2" data-name="Layer 2" xmlns="http://www.w3.org/2000/svg" viewBox="0 0 1499.88 1021.97">
  <defs>
    <style>
      .cls-1, .cls-2, .cls-3, .cls-4, .cls-5, .cls-6, .cls-7, .cls-8, .cls-9, .cls-10, .cls-11 {
        stroke-miterlimit: 10;
      }

      .cls-1, .cls-2, .cls-3, .cls-4, .cls-5, .cls-6, .cls-7, .cls-11 {
        fill: none;
      }

      .cls-1, .cls-5 {
        stroke: lime;
        stroke-width: 4px;
      }

      .cls-1, .cls-5, .cls-6, .cls-7 {
        stroke-linecap: round;
      }

      .cls-1, .cls-6 {
        stroke-dasharray: 0 14.38;
      }

      .cls-2 {
        stroke: #00a6ff;
      }

      .cls-2, .cls-3, .cls-4 {
        stroke-width: 6px;
      }

      .cls-3 {
        stroke: #ffd600;
      }

      .cls-4 {
        stroke: red;
      }

      .cls-12 {
        fill: #fff;
      }

      .cls-13, .cls-10 {
        fill: #ff73cb;
      }

      .cls-14, .cls-9 {
        fill: #0df400;
      }

      .cls-5, .cls-7 {
        stroke-dasharray: 0 15;
      }

      .cls-6, .cls-7 {
        stroke-width: 8px;
      }

      .cls-6, .cls-7, .cls-8, .cls-9, .cls-10, .cls-11 {
        stroke: #000;
      }

      .cls-8 {
        stroke-width: 9px;
      }

      .cls-9, .cls-10 {
        stroke-width: 3px;
      }

      .cls-15 {
        font-family: Poppins-Bold, Poppins;
        font-size: 18px;
        font-weight: 700;
      }

      .cls-11 {
        stroke-width: 18px;
      }
    </style>
  </defs>
  <g id="Layer_1-2" data-name="Layer 1">
    <g>
      <g>
        <line class="cls-7" x1="1051.97" y1="319.92" x2="851.05" y2="487.79"/>
        <path class="cls-6" d="m1063.05,311.22c30.2-22.11,60.4-44.22,90.6-66.33l139.14-90.82"/>
      </g>
      <g>
        <line class="cls-5" x1="1052.06" y1="319.92" x2="851.14" y2="487.79"/>
        <path class="cls-1" d="m1063.14,311.22c30.2-22.11,60.4-44.22,90.6-66.33l139.14-90.82"/>
      </g>
    </g>
    <g>
      <path class="cls-7" d="m863.95,595.05c-20.96,6.44-52.17,18.34-83.79,40.2-28.13,19.45-46.4,39.74-57.59,54.41-26.91,41.19-82,63.5-100.62,70.1-3.56,1.26-7.29,2.11-11.09,2.69-41.2,6.29-87.53,44.96-102.15,57.98-2.48,2.21-4.83,4.51-6.96,6.94"/>
      <path class="cls-5" d="m863.95,595.05c-20.96,6.44-52.17,18.34-83.79,40.2-28.13,19.45-46.4,39.74-57.59,54.41-26.91,41.19-82,63.5-100.62,70.1-3.56,1.26-7.29,2.11-11.09,2.69-41.2,6.29-87.53,44.96-102.15,57.98-2.48,2.21-4.83,4.51-6.96,6.94"/>
    </g>
    <circle class="cls-8" cx="1310.28" cy="165.24" r="8.23"/>
    <circle class="cls-8" cx="1335.61" cy="272.76" r="8.23"/>
    <circle class="cls-8" cx="872.18" cy="567.27" r="8.23"/>
    <circle class="cls-8" cx="383.59" cy="859.37" r="8.23"/>
    <g>
      <g>
        <path class="cls-11" d="m1080.61,323.7l-208.7,175.96s-14.97,9.92-.78,20.85c.65.5,1.26,1.02,1.83,1.6,3.72,3.84,15.03,17.55-5.98,24.25-1.91.61-3.91.95-5.92,1.04-9.4.4-42.27,2.11-60.31,7.12-1.69.47-3.3,1.18-4.81,2.07-15.83,9.3-113.46,66.54-130.69,74.42-.95.44-1.96.71-3,.79-3.75.32-14.98,2.93-11.08,22.98.27,1.38.33,2.78.19,4.18-.7,7.24-4.09,26.61-21.48,40.34-22.71,17.93-49.44,10.58-52.01,9.82-4.12-1.41-10.34-3.09-18.01-3.42-29.25-1.26-49.26,18.42-51.69,20.9-13.89,14.16-17.92,30.55-19.23,37.92,0,0-.97,16.5-17.23,22.33l-42.71,16.99s-29.36,10.44-45.38-13.59c-16.02-24.03-37.86-25.72-49.26-19.41-3.62,1.38-9.05,3.26-15.8,4.79-21.33,4.85-34.69,1.55-48.9,1.3-13.11-.23-29.32,5.4-61.73,16.71-14.06,4.91-32.65,12.01-54.09,22.01"/>
        <path class="cls-11" d="m153.81,815.64l-118.87,52.84c-7.56,3.36-14.23,8.5-19.15,15.15-7.25,9.81-12.12,24.47,3.79,40.06,6.57,6.44,15.33,10.11,24.53,10.39,14.82.45,38.46-3.49,54.79-29.07,0,0,35.58-61.55,98.26-70.59,0,0,28.8-6.49,51.95,0s65.22-8.19,65.22-8.19c0,0,22.42-8.92,33.62,12.7,2.03,3.92,4.76,7.46,8.22,10.2,10.61,8.39,34.54,19.65,74.86-.32,2.12-1.05,4.28-2.03,6.47-2.95,10.73-4.5,46.44-21.26,72.51-54.35,1.83-2.32,3.82-4.49,5.92-6.57,12.36-12.25,51.45-48.5,85.04-52.67,3.1-.38,6.15-1.04,9.09-2.12,15.34-5.64,60.83-25.1,84.31-64.85,9.66-14.07,25.28-33.4,48.85-51.39,26.49-20.22,52.24-30.5,69.46-35.86"/>
        <path class="cls-11" d="m812.68,578.05s40.98-12.46,60.64-10.15c0,0,27.75-4.96,29.29-29.65,1.54-24.69,32.76-43.58,32.76-43.58l26.59-16.96s11.95-10.41,49.72,0c14.91,2.63,32.11,4.68,51.21,5.2,27.09.75,50.86-1.75,70.24-5.15,9.18-3.77,22.12-9.68,36.75-18.5,8.43-5.08,14.91-9.62,27.24-18.79,30.22-22.47,45.33-33.7,58.42-45.98,9.64-9.04,22.7-22.3,36.73-40.11,33.46-50.8,53.82-100.18,60.76-147.46.09-.62.2-1.23.34-1.84l5.06-22.92c1.31-5.95,1.1-12.19-.95-17.94-3.64-10.22-13.18-20.91-38.23-5.25l-144.53,95.2c-31.37,23.18-62.74,46.35-94.1,69.53"/>
      </g>
      <g>
        <path class="cls-4" d="m1080.61,323.7l-208.7,175.96s-14.97,9.92-.78,20.85c.65.5,1.26,1.02,1.83,1.6,3.72,3.84,15.03,17.55-5.98,24.25-1.91.61-3.91.95-5.92,1.04-9.4.4-42.27,2.11-60.31,7.12-1.69.47-3.3,1.18-4.81,2.07-15.83,9.3-113.46,66.54-130.69,74.42-.95.44-1.96.71-3,.79-3.75.32-14.98,2.93-11.08,22.98.27,1.38.33,2.78.19,4.18-.7,7.24-4.09,26.61-21.48,40.34-22.71,17.93-49.44,10.58-52.01,9.82-4.12-1.41-10.34-3.09-18.01-3.42-29.25-1.26-49.26,18.42-51.69,20.9-13.89,14.16-17.92,30.55-19.23,37.92,0,0-.97,16.5-17.23,22.33l-42.71,16.99s-29.36,10.44-45.38-13.59c-16.02-24.03-37.86-25.72-49.26-19.41-3.62,1.38-9.05,3.26-15.8,4.79-21.33,4.85-34.69,1.55-48.9,1.3-13.11-.23-29.32,5.4-61.73,16.71-14.06,4.91-32.65,12.01-54.09,22.01"/>
        <path class="cls-2" d="m153.81,815.64l-118.87,52.84c-7.56,3.36-14.23,8.5-19.15,15.15-7.25,9.81-12.12,24.47,3.79,40.06,6.57,6.44,15.33,10.11,24.53,10.39,14.82.45,38.46-3.49,54.79-29.07,0,0,35.58-61.55,98.26-70.59,0,0,28.8-6.49,51.95,0s65.22-8.19,65.22-8.19c0,0,22.42-8.92,33.62,12.7,2.03,3.92,4.76,7.46,8.22,10.2,10.61,8.39,34.54,19.65,74.86-.32,2.12-1.05,4.28-2.03,6.47-2.95,10.73-4.5,46.44-21.26,72.51-54.35,1.83-2.32,3.82-4.49,5.92-6.57,12.36-12.25,51.45-48.5,85.04-52.67,3.1-.38,6.15-1.04,9.09-2.12,15.34-5.64,60.83-25.1,84.31-64.85,9.66-14.07,25.28-33.4,48.85-51.39,26.49-20.22,52.24-30.5,69.46-35.86"/>
        <path class="cls-3" d="m812.68,578.05s40.98-12.46,60.64-10.15c0,0,27.75-4.96,29.29-29.65,1.54-24.69,32.76-43.58,32.76-43.58l26.59-16.96s11.95-10.41,49.72,0c14.91,2.63,32.11,4.68,51.21,5.2,27.09.75,50.86-1.75,70.24-5.15,9.18-3.77,22.12-9.68,36.75-18.5,8.43-5.08,14.91-9.62,27.24-18.79,30.22-22.47,45.33-33.7,58.42-45.98,9.64-9.04,22.7-22.3,36.73-40.11,33.46-50.8,53.82-100.18,60.76-147.46.09-.62.2-1.23.34-1.84l5.06-22.92c1.31-5.95,1.1-12.19-.95-17.94-3.64-10.22-13.18-20.91-38.23-5.25l-144.53,95.2c-31.37,23.18-62.74,46.35-94.1,69.53"/>
      </g>
    </g>
    <g>
      <path class="cls-7" d="m1369.83,237.57c-.13.61-.25,1.22-.34,1.84-6.94,47.27-27.3,96.65-60.76,147.46-14.02,17.81-27.09,31.08-36.73,40.11-13.1,12.28-28.2,23.51-58.42,45.98-12.33,9.17-18.81,13.71-27.24,18.79-14.63,8.82-27.57,14.73-36.75,18.5-19.38,3.4-43.15,5.9-70.24,5.15-19.1-.53-36.3-2.57-51.21-5.2"/>
      <path class="cls-5" d="m1369.83,237.57c-.13.61-.25,1.22-.34,1.84-6.94,47.27-27.3,96.65-60.76,147.46-14.02,17.81-27.09,31.08-36.73,40.11-13.1,12.28-28.2,23.51-58.42,45.98-12.33,9.17-18.81,13.71-27.24,18.79-14.63,8.82-27.57,14.73-36.75,18.5-19.38,3.4-43.15,5.9-70.24,5.15-19.1-.53-36.3-2.57-51.21-5.2"/>
    </g>
    <circle class="cls-14" cx="383.59" cy="859.37" r="8.23"/>
    <circle class="cls-14" cx="872.18" cy="567.27" r="8.23"/>
    <circle class="cls-14" cx="1310.28" cy="165.24" r="8.23"/>
    <circle class="cls-13" cx="1335.61" cy="272.76" r="8.23"/>
    <rect class="cls-9" x="1304.28" y="92.68" width="12" height="50" rx="6" ry="6"/>
    <rect class="cls-9" x="377.59" y="880.28" width="12" height="50" rx="6" ry="6"/>
    <path class="cls-9" d="m868.36,609.23c0-3.31,2.69-6,6-6s6,2.69,6,6v46.28l32.4,32.4c2.34,2.34,2.34,6.14,0,8.48h0c-2.34,2.34-6.14,2.34-8.49,0l-34.12-34.12c-1.12-1.12-1.68-2.56-1.74-4.02-.03-.25-.05-.5-.05-.76v-48.25Z"/>
    <rect class="cls-9" x="866.38" y="713.58" width="120" height="85" rx="12" ry="12"/>
    <text class="cls-15" transform="translate(908.43 740.66)"><tspan x="0" y="0">DRS</tspan><tspan x="-26.89" y="21.6">Detection</tspan><tspan x="-11.81" y="43.2">Zone 2</tspan></text>
    <rect class="cls-9" x="1252.53" y="1.5" width="120" height="85" rx="12" ry="12"/>
    <text class="cls-15" transform="translate(1294.59 28.58)"><tspan x="0" y="0">DRS</tspan><tspan x="-26.89" y="21.6">Detection</tspan><tspan x="-12.11" y="43.2">Zone 3</tspan></text>
    <rect class="cls-9" x="323.59" y="935.47" width="120" height="85" rx="12" ry="12"/>
    <text class="cls-15" transform="translate(365.65 962.55)"><tspan x="0" y="0">DRS</tspan><tspan x="-26.89" y="21.6">Detection</tspan><tspan x="-10.05" y="43.2">Zone 1</tspan></text>
    <rect class="cls-10" x="1378.38" y="360.62" width="120" height="85" rx="12" ry="12"/>
    <text class="cls-15" transform="translate(1409.53 399.16)"><tspan x="0" y="0">Speed</tspan><tspan x="7.45" y="21.6">Trap</tspan></text>
    <path class="cls-10" d="m1440.9,303.45c-.35-.21-.72-.4-1.11-.54l-59.2-21.55c-3.11-1.13-6.56.47-7.69,3.59-1.13,3.11.47,6.56,3.59,7.69l55.53,20.21v33.86c0,3.31,2.69,6,6,6s6-2.69,6-6v-38c0-2.27-1.26-4.24-3.12-5.26Z"/>
    <polygon points="1056.07 373.86 1081.87 358.85 1071.08 348.06 1056.07 373.86"/>
    <g>
      <rect x="1094.49" y="324.73" width="5.01" height="5.01" transform="translate(2138.99 -146.82) rotate(138.93)"/>
      <rect class="cls-12" x="1090.7" y="328.03" width="5.01" height="5.01" transform="translate(2134.52 -138.55) rotate(138.93)"/>
      <rect class="cls-12" x="1083.14" y="334.61" width="5.01" height="5.01" transform="translate(2125.59 -122.03) rotate(138.93)"/>
      <rect x="1086.92" y="331.32" width="5.01" height="5.01" transform="translate(2130.05 -130.29) rotate(138.93)"/>
      <rect x="1079.36" y="337.91" width="5.01" height="5.01" transform="translate(42.62 794.6) rotate(-41.07)"/>
      <rect x="1101.13" y="332.35" width="5.01" height="5.01" transform="translate(2155.64 -137.81) rotate(138.93)"/>
      <rect class="cls-12" x="1097.35" y="335.65" width="5.01" height="5.01" transform="translate(2151.18 -129.55) rotate(138.93)"/>
      <rect class="cls-12" x="1089.79" y="342.24" width="5.01" height="5.01" transform="translate(2142.25 -113.03) rotate(138.93)"/>
      <rect x="1093.57" y="338.94" width="5.01" height="5.01" transform="translate(2146.71 -121.29) rotate(138.93)"/>
      <rect x="1086.01" y="345.53" width="5.01" height="5.01" transform="translate(39.25 800.84) rotate(-41.07)"/>
      <rect x="1086.47" y="338.43" width="5.01" height="5.01" transform="translate(44.03 799.39) rotate(-41.07)"/>
      <rect class="cls-12" x="1090.25" y="335.13" width="5.01" height="5.01" transform="translate(47.12 801.07) rotate(-41.07)"/>
      <rect class="cls-12" x="1097.81" y="328.54" width="5.01" height="5.01" transform="translate(53.31 804.41) rotate(-41.07)"/>
      <rect class="cls-12" x="1082.69" y="341.72" width="5.01" height="5.01" transform="translate(40.93 797.72) rotate(-41.07)"/>
      <rect x="1094.03" y="331.84" width="5.01" height="5.01" transform="translate(50.22 802.74) rotate(-41.07)"/>
    </g>
    <text class="cls-15" transform="translate(637.61 779.42) rotate(-29.13)"><tspan x="0" y="0">DRS Zone 1</tspan></text>
    <text class="cls-15" transform="translate(1205.47 509.57) rotate(-36.88)"><tspan x="0" y="0">DRS Zone 2</tspan></text>
    <text class="cls-15" transform="translate(1017.1 331.14) rotate(-34.9)"><tspan x="0" y="0">DRS Zone 3</tspan></text>
  </g>
</svg>