<?xml version="1.0" encoding="UTF-8"?>
<svg id="Layer_2" data-name="Layer 2" xmlns="http://www.w3.org/2000/svg" viewBox="0 0 1248.58 1013.25">
  <defs>
    <style>
      .cls-1 {
        stroke: #00a6ff;
      }

      .cls-1, .cls-2, .cls-3 {
        stroke-width: 6px;
      }

      .cls-1, .cls-2, .cls-3, .cls-4, .cls-5, .cls-6, .cls-7, .cls-8, .cls-9 {
        stroke-miterlimit: 10;
      }

      .cls-1, .cls-2, .cls-3, .cls-5, .cls-8, .cls-9 {
        fill: none;
      }

      .cls-2 {
        stroke: #ffd600;
      }

      .cls-3 {
        stroke: red;
      }

      .cls-10 {
        fill: #fff;
      }

      .cls-11, .cls-7 {
        fill: #ff73cb;
      }

      .cls-12, .cls-6 {
        fill: #0df400;
      }

      .cls-4 {
        stroke-width: 9px;
      }

      .cls-4, .cls-6, .cls-7, .cls-8, .cls-9 {
        stroke: #000;
      }

      .cls-5 {
        stroke: lime;
        stroke-width: 4px;
      }

      .cls-5, .cls-9 {
        stroke-dasharray: 0 14.26;
        stroke-linecap: round;
      }

      .cls-6, .cls-7 {
        stroke-width: 3px;
      }

      .cls-13 {
        font-family: Poppins-Bold, Poppins;
        font-size: 18px;
        font-weight: 700;
      }

      .cls-8 {
        stroke-width: 18px;
      }

      .cls-9 {
        stroke-width: 8px;
      }
    </style>
  </defs>
  <g id="Layer_1-2" data-name="Layer 1">
    <circle class="cls-4" cx="133.31" cy="194.31" r="8.23"/>
    <circle class="cls-4" cx="544.96" cy="804.46" r="8.23"/>
    <circle class="cls-4" cx="1166.67" cy="790.09" r="8.23"/>
    <g>
      <path class="cls-8" d="m1052.52,804.46H484.13c-.82,0-1.64.05-2.45.14-1.89.21-6.19.31-8.77-2.49-.53-.58-1.43-1.82-2.06-6.26-.31-2.23-.57-5.38-.28-9.23.2-2.67-.96-5.33-3.15-6.86,0,0-.93-.68-2.18-1.02-5.35-1.43-28.47,9.46-29.95,10.16-28.21,8.95-52.69,13.45-71.07,15.86-25.1,3.3-47.04,6.01-75.27,1.6-21.5-3.36-38.69-9.62-50.37-14.73-15.22-7.54-33.11-18.7-50.34-35.31-52.82-50.93-61.72-116.77-63.75-140.47-6.27-42.12-12.54-84.25-18.81-126.37"/>
      <path class="cls-8" d="m105.69,489.47l-8.6-53.31s-.43-13.2-12.56-12.14-15.33-14.48-15.33-14.48L10.85,263.98s-8.06-24.3,9.52-42.01c5.84-5.88,13.46-9.68,21.62-11.17l120.98-22.06c.99-.18,1.99-.38,2.97-.63,3.52-.89,17.2-3.18,26.53,12.21,2.99,4.93,5.99,9.85,9.22,14.62l68.89,101.38c2.91,4.28,5.72,8.62,8.42,13.03,7.72,12.61,28.51,44.77,50.5,63.63,2.02,1.74,3.99,3.53,5.91,5.38l193.1,186.22"/>
      <path class="cls-8" d="m1052.52,804.46l61.54-3.94c9.87-.28,26.03-1.66,44.68-7.93,8.62-2.9,67.71-23.63,78.6-67.86,1.48-6.02,5.13-20.74-2.09-35.52-1.57-3.22-3.41-5.96-5.26-8.24-3.56-4.39-8.09-7.85-13.14-10.39-2.72-1.37-5.88-2.7-9.45-3.8-8-2.46-14.99-2.82-19.72-2.68-169.1-3.69-338.21-7.38-507.31-11.07-3.96-.09-7.89-.69-11.66-1.9-4.74-1.52-10.46-4.12-12.98-8.23-.99-1.61-2.02-3.19-3.26-4.63-6.95-8.06-27.88-27.1-64.31-16.88-4.91,1.38-10.1,1.63-15.06.46-.85-.2-1.72-.44-2.6-.72-7.36-2.33-12.02-6.49-16.07-10.25-11.75-10.89-20.81-20.79-25.93-26.3"/>
    </g>
    <g>
      <path class="cls-3" d="m1052.52,804.46H484.13c-.82,0-1.64.05-2.45.14-1.89.21-6.19.31-8.77-2.49-.53-.58-1.43-1.82-2.06-6.26-.31-2.23-.57-5.38-.28-9.23.2-2.67-.96-5.33-3.15-6.86,0,0-.93-.68-2.18-1.02-5.35-1.43-28.47,9.46-29.95,10.16-28.21,8.95-52.69,13.45-71.07,15.86-25.1,3.3-47.04,6.01-75.27,1.6-21.5-3.36-38.69-9.62-50.37-14.73-15.22-7.54-33.11-18.7-50.34-35.31-52.82-50.93-61.72-116.77-63.75-140.47-6.27-42.12-12.54-84.25-18.81-126.37"/>
      <path class="cls-1" d="m105.69,489.47l-8.6-53.31s-.43-13.2-12.56-12.14-15.33-14.48-15.33-14.48L10.85,263.98s-8.06-24.3,9.52-42.01c5.84-5.88,13.46-9.68,21.62-11.17l120.98-22.06c.99-.18,1.99-.38,2.97-.63,3.52-.89,17.2-3.18,26.53,12.21,2.99,4.93,5.99,9.85,9.22,14.62l68.89,101.38c2.91,4.28,5.72,8.62,8.42,13.03,7.72,12.61,28.51,44.77,50.5,63.63,2.02,1.74,3.99,3.53,5.91,5.38l193.1,186.22"/>
      <path class="cls-2" d="m1052.52,804.46l61.54-3.94c9.87-.28,26.03-1.66,44.68-7.93,8.62-2.9,67.71-23.63,78.6-67.86,1.48-6.02,5.13-20.74-2.09-35.52-1.57-3.22-3.41-5.96-5.26-8.24-3.56-4.39-8.09-7.85-13.14-10.39-2.72-1.37-5.88-2.7-9.45-3.8-8-2.46-14.99-2.82-19.72-2.68-169.1-3.69-338.21-7.38-507.31-11.07-3.96-.09-7.89-.69-11.66-1.9-4.74-1.52-10.46-4.12-12.98-8.23-.99-1.61-2.02-3.19-3.26-4.63-6.95-8.06-27.88-27.1-64.31-16.88-4.91,1.38-10.1,1.63-15.06.46-.85-.2-1.72-.44-2.6-.72-7.36-2.33-12.02-6.49-16.07-10.25-11.75-10.89-20.81-20.79-25.93-26.3"/>
    </g>
    <g>
      <path class="cls-9" d="m553.19,580.83l-193.1-186.22c-1.92-1.85-3.88-3.65-5.91-5.38-21.99-18.87-42.78-51.02-50.5-63.63-2.7-4.41-5.51-8.75-8.42-13.03l-68.89-101.38"/>
      <path class="cls-5" d="m553.19,580.83l-193.1-186.22c-1.92-1.85-3.88-3.65-5.91-5.38-21.99-18.87-42.78-51.02-50.5-63.63-2.7-4.41-5.51-8.75-8.42-13.03l-68.89-101.38"/>
    </g>
    <g>
      <path class="cls-9" d="m495.37,829.63c.84-.09,1.69-.14,2.54-.14h558.68"/>
      <path class="cls-5" d="m495.37,829.56c.84-.09,1.69-.14,2.54-.14h558.68"/>
    </g>
    <circle class="cls-12" cx="1166.67" cy="790.09" r="8.23"/>
    <circle class="cls-12" cx="133.31" cy="194.31" r="8.23"/>
    <circle class="cls-11" cx="544.96" cy="804.46" r="8.23"/>
    <rect class="cls-6" x="1160.67" y="814.6" width="12" height="95" rx="6" ry="6"/>
    <rect class="cls-6" x="127.31" y="98.79" width="12" height="75" rx="6" ry="6"/>
    <rect class="cls-7" x="538.96" y="842.26" width="12" height="75" rx="6" ry="6"/>
    <rect class="cls-6" x="1106.67" y="915.54" width="120" height="85" rx="12" ry="12"/>
    <text class="cls-13" transform="translate(1148.73 942.62)"><tspan x="0" y="0">DRS</tspan><tspan x="-26.89" y="21.6">Detection</tspan><tspan x="-11.81" y="43.2">Zone 2</tspan></text>
    <rect class="cls-6" x="73.31" y="1.5" width="120" height="85" rx="12" ry="12"/>
    <text class="cls-13" transform="translate(115.37 28.58)"><tspan x="0" y="0">DRS</tspan><tspan x="-26.89" y="21.6">Detection</tspan><tspan x="-10.05" y="43.2">Zone 1</tspan></text>
    <rect class="cls-7" x="484.96" y="926.75" width="120" height="85" rx="12" ry="12"/>
    <text class="cls-13" transform="translate(516.11 965.29)"><tspan x="0" y="0">Speed</tspan><tspan x="7.45" y="21.6">Trap</tspan></text>
    <polygon points="991.22 785.04 1020.07 792.67 1020.07 777.41 991.22 785.04"/>
    <g>
      <rect x="1060.04" y="777.48" width="5.01" height="5.01" transform="translate(2125.09 1559.97) rotate(180)"/>
      <rect class="cls-10" x="1055.02" y="777.48" width="5.01" height="5.01" transform="translate(2115.06 1559.97) rotate(180)"/>
      <rect class="cls-10" x="1044.99" y="777.48" width="5.01" height="5.01" transform="translate(2095 1559.97) rotate(180)"/>
      <rect x="1050.01" y="777.48" width="5.01" height="5.01" transform="translate(2105.03 1559.97) rotate(180)"/>
      <rect x="1039.98" y="777.48" width="5.01" height="5.01"/>
      <rect x="1060.04" y="787.59" width="5.01" height="5.01" transform="translate(2125.09 1580.19) rotate(180)"/>
      <rect class="cls-10" x="1055.02" y="787.59" width="5.01" height="5.01" transform="translate(2115.06 1580.19) rotate(180)"/>
      <rect class="cls-10" x="1044.99" y="787.59" width="5.01" height="5.01" transform="translate(2095 1580.19) rotate(180)"/>
      <rect x="1050.01" y="787.59" width="5.01" height="5.01" transform="translate(2105.03 1580.19) rotate(180)"/>
      <rect x="1039.98" y="787.59" width="5.01" height="5.01"/>
      <rect x="1044.99" y="782.53" width="5.01" height="5.01"/>
      <rect class="cls-10" x="1050.01" y="782.53" width="5.01" height="5.01"/>
      <rect class="cls-10" x="1060.04" y="782.53" width="5.01" height="5.01"/>
      <rect class="cls-10" x="1039.98" y="782.53" width="5.01" height="5.01"/>
      <rect x="1055.02" y="782.53" width="5.01" height="5.01"/>
    </g>
    <text class="cls-13" transform="translate(407.14 426.22) rotate(44.83)"><tspan x="0" y="0">DRS Zone 1</tspan></text>
    <text class="cls-13" transform="translate(726.37 864.24)"><tspan x="0" y="0">DRS Zone 2</tspan></text>
  </g>
</svg>