<?xml version="1.0" encoding="UTF-8"?>
<svg id="Layer_2" data-name="Layer 2" xmlns="http://www.w3.org/2000/svg" viewBox="0 0 1490.06 815.36">
  <defs>
    <style>
      .cls-1, .cls-2, .cls-3, .cls-4, .cls-5, .cls-6, .cls-7, .cls-8, .cls-9, .cls-10, .cls-11 {
        stroke-miterlimit: 10;
      }

      .cls-1, .cls-2, .cls-3, .cls-4, .cls-5, .cls-6, .cls-10, .cls-11 {
        fill: none;
      }

      .cls-1, .cls-5 {
        stroke-width: 8px;
      }

      .cls-1, .cls-5, .cls-6, .cls-10 {
        stroke-linecap: round;
      }

      .cls-1, .cls-5, .cls-7, .cls-8, .cls-9, .cls-11 {
        stroke: #000;
      }

      .cls-1, .cls-10 {
        stroke-dasharray: 0 14.92;
      }

      .cls-2 {
        stroke: #00a6ff;
      }

      .cls-2, .cls-3, .cls-4 {
        stroke-width: 6px;
      }

      .cls-3 {
        stroke: #ffd600;
      }

      .cls-4 {
        stroke: red;
      }

      .cls-5, .cls-6 {
        stroke-dasharray: 0 14.5;
      }

      .cls-12 {
        fill: #fff;
      }

      .cls-13, .cls-9 {
        fill: #ff73cb;
      }

      .cls-14, .cls-8 {
        fill: #0df400;
      }

      .cls-6, .cls-10 {
        stroke: lime;
        stroke-width: 4px;
      }

      .cls-7 {
        stroke-width: 9px;
      }

      .cls-8, .cls-9 {
        stroke-width: 3px;
      }

      .cls-15 {
        font-family: Poppins-Bold, Poppins;
        font-size: 18px;
        font-weight: 700;
      }

      .cls-11 {
        stroke-width: 18px;
      }
    </style>
  </defs>
  <g id="Layer_1-2" data-name="Layer 1">
    <g>
      <path class="cls-5" d="m1346.87,542.14c-37.54-24.79-76.31-49.51-116.35-74.07-103.46-63.46-204.59-119.21-302-168.27"/>
      <path class="cls-6" d="m1346.87,542.14c-37.54-24.79-76.31-49.51-116.35-74.07-103.46-63.46-204.59-119.21-302-168.27"/>
    </g>
    <circle class="cls-7" cx="712.03" cy="441.22" r="8.23"/>
    <circle class="cls-7" cx="609.65" cy="387.7" r="8.23"/>
    <circle class="cls-7" cx="1334.3" cy="609.96" r="8.23"/>
    <g>
      <path class="cls-11" d="m1051.47,640.06l182.1,106.28s19.63,16.25,33.85-17.6l77.85-140.13c.89-2.25,2.33-6.84,1.29-12.38-2.08-11.06-12.21-16.12-13.47-16.73-37.54-24.79-76.31-49.51-116.35-74.07-103.46-63.46-204.59-119.21-302-168.27-2.38-.79-5.63-1.47-9.38-1-12.29,1.53-18.42,13.89-19.06,15.22-16.47,27.98-32.94,55.96-49.42,83.94,0,0-7.24,21.39-30.32,2.32-21.31-14.12-46.82-28.95-76.53-42.59-21.2-9.73-41.34-17.39-59.85-23.45"/>
      <path class="cls-11" d="m670.18,351.6c-12.33-4.11-22.07-5.85-26.48-5.45-1.22.11-3.59.32-5.96,1.91-1.7,1.13-2.74,2.52-3.33,3.46-1.01,2.27-2.56,5.85-4.3,10.33-2.89,7.42-3.11,9.11-4.72,10.54-1.65,1.47-6.38,4.08-20.39-2.22l-176.13-48.76c-2.36-.65-4.68-1.47-6.94-2.41-4.47-1.86-12.87-4.85-16.96-3.02,0,0-12.38,4.31-10.67-10.22.38-3.23,1.56-6.32,3.36-9.03l57.07-85.66s6.34-6.37,2.32-10.39c0,0-5.17-3.26-5.25-13.93-.06-8.57-9.85-20.13-13.69-24.34-1.85-2.03-3.12-4.53-3.51-7.24-.46-3.23.03-7.49,3.7-11.78.44-.51.87-1.03,1.24-1.59l10.82-16.04s5.92-8.7-7.88-16.01c-1.42-.75-2.83-1.53-4.19-2.39-17.98-11.34-137.54-85.95-187.89-96.83,0,0-14.2-4.55-30.08,2.03-4.66,1.93-9.32,3.86-14.06,5.58l-77.32,28.06s-13.9,4.73-27.28,19.74c-2.16,2.42-4.38,4.79-6.75,7.01-12.24,11.48-49.29,45.38-74.02,58.94-2.66,1.46-5.46,2.59-8.37,3.46-2.17.65-4.99,2.58-2.6,8.34,3.38,8.15,6.03,16.6,7.38,25.32l24.39,157.68"/>
      <path class="cls-11" d="m41.68,326.69c.28,1.52,2.71,13.42,14.15,19.43,8.18,4.3,16.11,3.02,19.29,2.24,1.29-.31,2.59-.58,3.89-.83,26.18-5.04,52.36-10.09,78.54-15.13,4.48-.86,9.05-1.26,13.61-1.05.03,0,.07,0,.1,0,4.83.23,9.07.96,12.61,1.83.77.19,1.54.37,2.32.51l114.58,21.66s10.69,2.06,19.01-1.85c2.84-1.33,5.69-2.62,8.66-3.61l58.43-19.48s14.98-4.45,27.19,1.83c.07.03.13.06.21.08l165.28,44.67c14.25,4.39,29.61,9.88,45.73,16.79,25.55,10.96,47.48,23.12,65.78,34.78,120.14,70.5,240.28,141,360.42,211.49"/>
    </g>
    <g>
      <path class="cls-4" d="m1051.47,640.06l182.1,106.28s19.63,16.25,33.85-17.6l77.85-140.13c.89-2.25,2.33-6.84,1.29-12.38-2.08-11.06-12.21-16.12-13.47-16.73-37.54-24.79-76.31-49.51-116.35-74.07-103.46-63.46-204.59-119.21-302-168.27-2.38-.79-5.63-1.47-9.38-1-12.29,1.53-18.42,13.89-19.06,15.22-16.47,27.98-32.94,55.96-49.42,83.94,0,0-7.24,21.39-30.32,2.32-21.31-14.12-46.82-28.95-76.53-42.59-21.2-9.73-41.34-17.39-59.85-23.45"/>
      <path class="cls-2" d="m670.18,351.6c-12.33-4.11-22.07-5.85-26.48-5.45-1.22.11-3.59.32-5.96,1.91-1.7,1.13-2.74,2.52-3.33,3.46-1.01,2.27-2.56,5.85-4.3,10.33-2.89,7.42-3.11,9.11-4.72,10.54-1.65,1.47-6.38,4.08-20.39-2.22l-176.13-48.76c-2.36-.65-4.68-1.47-6.94-2.41-4.47-1.86-12.87-4.85-16.96-3.02,0,0-12.38,4.31-10.67-10.22.38-3.23,1.56-6.32,3.36-9.03l57.07-85.66s6.34-6.37,2.32-10.39c0,0-5.17-3.26-5.25-13.93-.06-8.57-9.85-20.13-13.69-24.34-1.85-2.03-3.12-4.53-3.51-7.24-.46-3.23.03-7.49,3.7-11.78.44-.51.87-1.03,1.24-1.59l10.82-16.04s5.92-8.7-7.88-16.01c-1.42-.75-2.83-1.53-4.19-2.39-17.98-11.34-137.54-85.95-187.89-96.83,0,0-14.2-4.55-30.08,2.03-4.66,1.93-9.32,3.86-14.06,5.58l-77.32,28.06s-13.9,4.73-27.28,19.74c-2.16,2.42-4.38,4.79-6.75,7.01-12.24,11.48-49.29,45.38-74.02,58.94-2.66,1.46-5.46,2.59-8.37,3.46-2.17.65-4.99,2.58-2.6,8.34,3.38,8.15,6.03,16.6,7.38,25.32l24.39,157.68"/>
      <path class="cls-3" d="m41.68,326.69c.28,1.52,2.71,13.42,14.15,19.43,8.18,4.3,16.11,3.02,19.29,2.24,1.29-.31,2.59-.58,3.89-.83,26.18-5.04,52.36-10.09,78.54-15.13,4.48-.86,9.05-1.26,13.61-1.05.03,0,.07,0,.1,0,4.83.23,9.07.96,12.61,1.83.77.19,1.54.37,2.32.51l114.58,21.66s10.69,2.06,19.01-1.85c2.84-1.33,5.69-2.62,8.66-3.61l58.43-19.48s14.98-4.45,27.19,1.83c.07.03.13.06.21.08l165.28,44.67c14.25,4.39,29.61,9.88,45.73,16.79,25.55,10.96,47.48,23.12,65.78,34.78,120.14,70.5,240.28,141,360.42,211.49"/>
    </g>
    <g>
      <g>
        <line class="cls-1" x1="1209.31" y1="771.36" x2="1027.22" y2="665.08"/>
        <path class="cls-1" d="m1027.22,665.08c-74.96-43.99-149.92-87.97-224.87-131.96"/>
      </g>
      <g>
        <line class="cls-10" x1="1209.31" y1="771.36" x2="1027.22" y2="665.08"/>
        <path class="cls-10" d="m1027.22,665.08c-74.96-43.99-149.92-87.97-224.87-131.96"/>
      </g>
    </g>
    <circle class="cls-14" cx="1334.3" cy="609.96" r="8.23"/>
    <circle class="cls-14" cx="609.65" cy="387.7" r="8.23"/>
    <circle class="cls-13" cx="712.03" cy="441.22" r="8.23"/>
    <rect class="cls-9" x="703.8" y="463.89" width="12" height="69.24" rx="6" ry="6"/>
    <path class="cls-8" d="m599.58,406.15h0c-2.87-1.66-6.54-.67-8.2,2.2l-44,76.21c-.71,1.23-.93,2.61-.73,3.92-.04.29-.07.59-.07.9v38c0,3.31,2.69,6,6,6s6-2.69,6-6v-38c0-.06,0-.13,0-.19l43.21-74.84c1.66-2.87.67-6.54-2.2-8.2Z"/>
    <rect class="cls-9" x="649.8" y="542.79" width="120" height="85" rx="12" ry="12"/>
    <rect class="cls-8" x="492.38" y="542.79" width="120" height="85" rx="12" ry="12"/>
    <text class="cls-15" transform="translate(534.44 569.87)"><tspan x="0" y="0">DRS</tspan><tspan x="-26.89" y="21.6">Detection</tspan><tspan x="-11.81" y="43.2">Zone 2</tspan></text>
    <rect class="cls-8" x="1368.56" y="728.86" width="120" height="85" rx="12" ry="12"/>
    <text class="cls-15" transform="translate(1410.61 755.94)"><tspan x="0" y="0">DRS</tspan><tspan x="-26.89" y="21.6">Detection</tspan><tspan x="-10.05" y="43.2">Zone 1</tspan></text>
    <text class="cls-15" transform="translate(680.95 581.33)"><tspan x="0" y="0">Speed</tspan><tspan x="7.45" y="21.6">Trap</tspan></text>
    <path class="cls-8" d="m1438.93,668.43c.08-2.15-1-4.28-2.99-5.43l-76.21-44c-2.87-1.66-6.54-.67-8.2,2.2-1.66,2.87-.67,6.54,2.2,8.2l73.24,42.28v35.38c0,3.31,2.69,6,6,6s6-2.69,6-6v-38c0-.21-.01-.42-.03-.62Z"/>
    <polygon points="1104.09 646.74 1082.92 625.71 1075.29 638.92 1104.09 646.74"/>
    <g>
      <rect x="1070.85" y="619.77" width="5.01" height="5.01" transform="translate(1691.76 1697.87) rotate(-150)"/>
      <rect class="cls-12" x="1066.5" y="617.27" width="5.01" height="5.01" transform="translate(1684.91 1691.02) rotate(-150)"/>
      <rect class="cls-12" x="1057.82" y="612.25" width="5.01" height="5.01" transform="translate(1671.21 1677.32) rotate(-150)"/>
      <rect x="1062.16" y="614.76" width="5.01" height="5.01" transform="translate(1678.06 1684.17) rotate(-150)"/>
      <rect x="1053.47" y="609.75" width="5.01" height="5.01" transform="translate(447.6 -445.96) rotate(30)"/>
      <rect x="1065.79" y="628.53" width="5.01" height="5.01" transform="translate(1677.95 1711.68) rotate(-150)"/>
      <rect class="cls-12" x="1061.45" y="626.02" width="5.01" height="5.01" transform="translate(1671.1 1704.83) rotate(-150)"/>
      <rect class="cls-12" x="1052.76" y="621.01" width="5.01" height="5.01" transform="translate(1657.4 1691.13) rotate(-150)"/>
      <rect x="1057.11" y="623.52" width="5.01" height="5.01" transform="translate(1664.25 1697.98) rotate(-150)"/>
      <rect x="1048.42" y="618.5" width="5.01" height="5.01" transform="translate(451.3 -442.26) rotate(30)"/>
      <rect x="1055.29" y="616.63" width="5.01" height="5.01" transform="translate(451.29 -445.95) rotate(30)"/>
      <rect class="cls-12" x="1059.63" y="619.14" width="5.01" height="5.01" transform="translate(453.12 -447.78) rotate(30)"/>
      <rect class="cls-12" x="1068.32" y="624.15" width="5.01" height="5.01" transform="translate(456.79 -451.46) rotate(30)"/>
      <rect class="cls-12" x="1050.95" y="614.12" width="5.01" height="5.01" transform="translate(449.45 -444.11) rotate(30)"/>
      <rect x="1063.98" y="621.65" width="5.01" height="5.01" transform="translate(454.96 -449.62) rotate(30)"/>
    </g>
    <text class="cls-15" transform="translate(1106.73 378.86) rotate(30)"><tspan x="0" y="0">DRS Zone 1</tspan></text>
    <text class="cls-15" transform="translate(945.05 651.44) rotate(30)"><tspan x="0" y="0">DRS Zone 2</tspan></text>
  </g>
</svg>