<?xml version="1.0" encoding="UTF-8"?>
<svg id="Layer_2" data-name="Layer 2" xmlns="http://www.w3.org/2000/svg" viewBox="0 0 968.75 866.72">
  <defs>
    <style>
      .cls-1 {
        stroke: #00a6ff;
      }

      .cls-1, .cls-2, .cls-3 {
        stroke-width: 6px;
      }

      .cls-1, .cls-2, .cls-3, .cls-4, .cls-5, .cls-6, .cls-7, .cls-8, .cls-9, .cls-10, .cls-11 {
        stroke-miterlimit: 10;
      }

      .cls-1, .cls-2, .cls-3, .cls-4, .cls-6, .cls-7, .cls-10, .cls-11 {
        fill: none;
      }

      .cls-2 {
        stroke: #ffd600;
      }

      .cls-3 {
        stroke: red;
      }

      .cls-12 {
        fill: #fff;
      }

      .cls-13, .cls-9 {
        fill: #ff73cb;
      }

      .cls-14, .cls-8 {
        fill: #0df400;
      }

      .cls-4, .cls-6 {
        stroke: lime;
        stroke-width: 4px;
      }

      .cls-4, .cls-6, .cls-7, .cls-11 {
        stroke-linecap: round;
      }

      .cls-4, .cls-7 {
        stroke-dasharray: 0 16.07;
      }

      .cls-5 {
        stroke-width: 9px;
      }

      .cls-5, .cls-7, .cls-8, .cls-9, .cls-10, .cls-11 {
        stroke: #000;
      }

      .cls-6, .cls-11 {
        stroke-dasharray: 0 14.26;
      }

      .cls-7, .cls-11 {
        stroke-width: 8px;
      }

      .cls-8, .cls-9 {
        stroke-width: 3px;
      }

      .cls-15 {
        font-family: Poppins-Bold, Poppins;
        font-size: 18px;
        font-weight: 700;
      }

      .cls-10 {
        stroke-width: 18px;
      }
    </style>
  </defs>
  <g id="Layer_1-2" data-name="Layer 1">
    <circle class="cls-5" cx="725.73" cy="307.29" r="8.23"/>
    <circle class="cls-5" cx="161.21" cy="329.23" r="8.23"/>
    <circle class="cls-5" cx="730.85" cy="685.05" r="8.23"/>
    <g>
      <path class="cls-10" d="m220.04,517.57s55.19-4,88.34-28.48c52.18-38.52,95.37-45.3,95.37-45.3,26.78-8.76,118.39,15.02,118.39,15.02,63.33,14.52,112.36-3,112.36-3l99.4-30.68c30.54-6.65,40.3,22.92,40.3,22.92,4.28,10.7-.45,20.62-5.78,27.53-4.29,5.56-9.99,9.87-16.45,12.62l-57.82,24.58c-3.55,1.65-16.36,8.11-22.82,23.08-4.03,9.34-3.79,17.82-3.35,22.19,1.27,10.68,1.93,22.67,1.41,35.74-1.44,36.23-11.35,65.67-20.41,85.89l-32.05,75.8c-2,4.74-3.42,9.72-4.09,14.82-1.69,12.89-.54,34.05,21.65,44.43,21.53,10.07,36.9-1.24,45.05-10.45,3.66-4.13,6.53-8.9,8.59-14.02,37.15-92.06,74.29-184.12,111.44-276.18"/>
      <path class="cls-10" d="m220.04,517.57l-124.22-5.97s-55.62-4.25-78.31-58.73c0,0-20.25-45.4,1.75-77.87,19.22-26.86,39.1-57.6,58.35-92.29,13.34-24.04,24.86-47.26,34.83-69.28,1.4-3.09,2.9-6.13,4.52-9.1,2.93-5.38,5.87-10.76,8.8-16.14,0,0,8.76-16.84,45.79-12.81,1.45.16,2.9.24,4.35.29,15.56.52,105.72,6.14,141.5,67.01,5.67,9.64,5.34,21.81-1.34,30.77-4.91,6.59-13.53,13.68-28.37,19.99-2.04.87-4.14,1.6-6.27,2.21-7.33,2.09-26.84,7.17-55.27,10.83-36.65,4.71-74.26,28.02-74.26,28.02,0,0-24.77,15.71-15.97,48.18.3,1.1.52,2.21.74,3.32,1.16,5.93,8.17,27.13,49.19,30.21l59.22,4.74c2.02.16,4.04.24,6.07.25,72.75.21,143.71-12.44,143.71-12.44,20.56-3.68,48.14-8.7,83.91-19.42,38.42-11.52,70.22-24.79,94.37-36.21"/>
      <path class="cls-10" d="m799.59,514.07l124.76-307.53c8.07-19.88,11.76-41.34,10.23-62.74-2.28-32.03-16.28-72.43-65.37-99.94-6.48-2.79-15.48-6.29-26.51-9.36-29.47-8.21-52.99-7.72-73.38-7.14-25.07.72-38.45,1.26-54.23,9.22-7.97,4.02-20.93,10.8-26.19,25.22-2.86,7.83-2.41,15.05-1.73,19.49l8.33,55.23,30.75,174.68c1.44,8.2.9,16.67-1.88,24.51-3.46,9.77-10.69,20.03-25.8,19.77-28.67-.49-34.61-18.04-34.61-18.04-2.89-7.69-8.03-17.51-16.81-19.71-9.15-2.29-17.12,4.96-31.39,14.02-9.84,6.25-23.97,14.18-42.65,21.4"/>
    </g>
    <g>
      <path class="cls-3" d="m220.04,517.57s55.19-4,88.34-28.48c52.18-38.52,95.37-45.3,95.37-45.3,26.78-8.76,118.39,15.02,118.39,15.02,63.33,14.52,112.36-3,112.36-3l99.4-30.68c30.54-6.65,40.3,22.92,40.3,22.92,4.28,10.7-.45,20.62-5.78,27.53-4.29,5.56-9.99,9.87-16.45,12.62l-57.82,24.58c-3.55,1.65-16.36,8.11-22.82,23.08-4.03,9.34-3.79,17.82-3.35,22.19,1.27,10.68,1.93,22.67,1.41,35.74-1.44,36.23-11.35,65.67-20.41,85.89l-32.05,75.8c-2,4.74-3.42,9.72-4.09,14.82-1.69,12.89-.54,34.05,21.65,44.43,21.53,10.07,36.9-1.24,45.05-10.45,3.66-4.13,6.53-8.9,8.59-14.02,37.15-92.06,74.29-184.12,111.44-276.18"/>
      <path class="cls-1" d="m220.04,517.57l-124.22-5.97s-55.62-4.25-78.31-58.73c0,0-20.25-45.4,1.75-77.87,19.22-26.86,39.1-57.6,58.35-92.29,13.34-24.04,24.86-47.26,34.83-69.28,1.4-3.09,2.9-6.13,4.52-9.1,2.93-5.38,5.87-10.76,8.8-16.14,0,0,8.76-16.84,45.79-12.81,1.45.16,2.9.24,4.35.29,15.56.52,105.72,6.14,141.5,67.01,5.67,9.64,5.34,21.81-1.34,30.77-4.91,6.59-13.53,13.68-28.37,19.99-2.04.87-4.14,1.6-6.27,2.21-7.33,2.09-26.84,7.17-55.27,10.83-36.65,4.71-74.26,28.02-74.26,28.02,0,0-24.77,15.71-15.97,48.18.3,1.1.52,2.21.74,3.32,1.16,5.93,8.17,27.13,49.19,30.21l59.22,4.74c2.02.16,4.04.24,6.07.25,72.75.21,143.71-12.44,143.71-12.44,20.56-3.68,48.14-8.7,83.91-19.42,38.42-11.52,70.22-24.79,94.37-36.21"/>
      <path class="cls-2" d="m799.59,514.07l124.76-307.53c8.07-19.88,11.76-41.34,10.23-62.74-2.28-32.03-16.28-72.43-65.37-99.94-6.48-2.79-15.48-6.29-26.51-9.36-29.47-8.21-52.99-7.72-73.38-7.14-25.07.72-38.45,1.26-54.23,9.22-7.97,4.02-20.93,10.8-26.19,25.22-2.86,7.83-2.41,15.05-1.73,19.49l8.33,55.23,30.75,174.68c1.44,8.2.9,16.67-1.88,24.51-3.46,9.77-10.69,20.03-25.8,19.77-28.67-.49-34.61-18.04-34.61-18.04-2.89-7.69-8.03-17.51-16.81-19.71-9.15-2.29-17.12,4.96-31.39,14.02-9.84,6.25-23.97,14.18-42.65,21.4"/>
    </g>
    <g>
      <path class="cls-11" d="m573.07,328.69c18.67-7.22,32.81-15.15,42.65-21.4"/>
      <g>
        <path class="cls-11" d="m562.59,333.62c-24.14,11.42-55.94,24.69-94.37,36.21-35.77,10.72-63.35,15.74-83.91,19.42,0,0-70.96,12.65-143.71,12.44-2.03,0-4.05-.09-6.07-.25l-59.22-4.74"/>
        <path class="cls-6" d="m562.59,333.62c-24.14,11.42-55.94,24.69-94.37,36.21-35.77,10.72-63.35,15.74-83.91,19.42,0,0-70.96,12.65-143.71,12.44-2.03,0-4.05-.09-6.07-.25l-59.22-4.74"/>
        <path class="cls-6" d="m573.07,328.69c18.67-7.22,32.81-15.15,42.65-21.4"/>
      </g>
    </g>
    <g>
      <g>
        <path class="cls-7" d="m704.27,820.35c37.45-92.82,74.9-185.64,112.36-278.45"/>
        <path class="cls-7" d="m812.16,553.12l140.67-346.76c9.1-22.42,13.26-46.61,11.54-70.75-2.57-36.11-18.35-81.67-73.7-112.69-7.3-3.15-17.46-7.09-29.89-10.56-33.23-9.26-59.75-8.71-82.74-8.05"/>
      </g>
      <g>
        <path class="cls-4" d="m704.27,820.35c37.45-92.82,74.9-185.64,112.36-278.45"/>
        <path class="cls-4" d="m812.16,553.12l140.67-346.76c9.1-22.42,13.26-46.61,11.54-70.75-2.57-36.11-18.35-81.67-73.7-112.69-7.3-3.15-17.46-7.09-29.89-10.56-33.23-9.26-59.75-8.71-82.74-8.05"/>
      </g>
    </g>
    <polygon points="765.87 553.12 782.78 528.53 768.42 523.39 765.87 553.12"/>
    <circle class="cls-14" cx="725.73" cy="307.29" r="8.23"/>
    <circle class="cls-14" cx="161.21" cy="329.23" r="8.23"/>
    <circle class="cls-13" cx="730.85" cy="685.05" r="8.23"/>
    <path class="cls-8" d="m399.48,235.23h0c-3.31,0-6,2.69-6,6v82h-182c-3.31,0-6,2.69-6,6s2.69,6,6,6h188c3.31,0,6-2.69,6-6v-88c0-3.31-2.69-6-6-6Z"/>
    <rect class="cls-8" x="523.8" y="31.7" width="120" height="85" rx="12" ry="12"/>
    <text class="cls-15" transform="translate(565.85 58.78)"><tspan x="0" y="0">DRS</tspan><tspan x="-26.89" y="21.6">Detection</tspan><tspan x="-11.81" y="43.2">Zone 2</tspan></text>
    <rect class="cls-8" x="340.24" y="138.58" width="120" height="85" rx="12" ry="12"/>
    <text class="cls-15" transform="translate(382.29 165.65)"><tspan x="0" y="0">DRS</tspan><tspan x="-26.89" y="21.6">Detection</tspan><tspan x="-10.05" y="43.2">Zone 1</tspan></text>
    <rect class="cls-9" x="799.59" y="780.22" width="120" height="85" rx="12" ry="12"/>
    <text class="cls-15" transform="translate(830.74 818.76)"><tspan x="0" y="0">Speed</tspan><tspan x="7.45" y="21.6">Trap</tspan></text>
    <path class="cls-9" d="m863.79,727.23c-.53-1.77-1.85-3.27-3.72-3.94l-82.85-29.66c-3.12-1.12-6.55.51-7.67,3.63-1.12,3.12.51,6.55,3.63,7.67l78.94,28.26v33.96c0,3.31,2.69,6,6,6s6-2.69,6-6v-38c0-.67-.11-1.31-.32-1.92Z"/>
    <path class="cls-8" d="m707.75,283.19l-117.65-117.65v-35.82c0-3.31-2.69-6-6-6h0c-3.31,0-6,2.69-6,6v38c0,.1.01.2.01.3,0,.03,0,.05,0,.08,0,.14.02.28.04.42.11,1.37.66,2.71,1.71,3.76l119.4,119.4c2.34,2.34,6.14,2.34,8.49,0h0c2.34-2.34,2.34-6.14,0-8.49Z"/>
    <g>
      <rect x="780.27" y="493.47" width="5.01" height="5.01" transform="translate(1536.75 -42.79) rotate(112.09)"/>
      <rect class="cls-12" x="778.39" y="498.12" width="5.01" height="5.01" transform="translate(1538.46 -34.65) rotate(112.09)"/>
      <rect class="cls-12" x="774.61" y="507.41" width="5.01" height="5.01" transform="translate(1541.88 -18.37) rotate(112.09)"/>
      <rect x="776.5" y="502.76" width="5.01" height="5.01" transform="translate(1540.17 -26.51) rotate(112.09)"/>
      <rect x="772.73" y="512.06" width="5.01" height="5.01" transform="translate(6.89 1039.36) rotate(-67.91)"/>
      <rect x="789.64" y="497.27" width="5.01" height="5.01" transform="translate(1553.16 -46.24) rotate(112.09)"/>
      <rect class="cls-12" x="787.75" y="501.92" width="5.01" height="5.01" transform="translate(1554.87 -38.1) rotate(112.09)"/>
      <rect class="cls-12" x="783.98" y="511.21" width="5.01" height="5.01" transform="translate(1558.29 -21.82) rotate(112.09)"/>
      <rect x="785.87" y="506.57" width="5.01" height="5.01" transform="translate(1556.58 -29.96) rotate(112.09)"/>
      <rect x="782.1" y="515.86" width="5.01" height="5.01" transform="translate(9.21 1050.41) rotate(-67.91)"/>
      <rect x="779.3" y="509.31" width="5.01" height="5.01" transform="translate(13.53 1043.73) rotate(-67.91)"/>
      <rect class="cls-12" x="781.18" y="504.67" width="5.01" height="5.01" transform="translate(19.01 1042.58) rotate(-67.91)"/>
      <rect class="cls-12" x="784.96" y="495.37" width="5.01" height="5.01" transform="translate(29.97 1040.28) rotate(-67.91)"/>
      <rect class="cls-12" x="777.41" y="513.96" width="5.01" height="5.01" transform="translate(8.05 1044.88) rotate(-67.91)"/>
      <rect x="783.07" y="500.02" width="5.01" height="5.01" transform="translate(24.49 1041.43) rotate(-67.91)"/>
    </g>
    <text class="cls-15" transform="translate(376.23 381.63) rotate(-12.09)"><tspan x="0" y="0">DRS Zone 1</tspan></text>
    <text class="cls-15" transform="translate(858.14 510.44) rotate(-67.91)"><tspan x="0" y="0">DRS Zone 2</tspan></text>
  </g>
</svg>