<?xml version="1.0" encoding="UTF-8"?>
<svg id="Layer_2" data-name="Layer 2" xmlns="http://www.w3.org/2000/svg" viewBox="0 0 147.67 173.82">
  <defs>
    <style>
      .cls-1 {
        fill: #ffd023;
      }

      .cls-1, .cls-2 {
        stroke-width: 2px;
      }

      .cls-1, .cls-2, .cls-3 {
        stroke: #000;
        stroke-miterlimit: 10;
      }

      .cls-2 {
        fill: #4f4f4f;
      }

      .cls-3 {
        fill: #29abe2;
        stroke-width: 1.5px;
      }
    </style>
  </defs>
  <g id="Layer_1-2" data-name="Layer 1">
    <path class="cls-3" d="m124.79,138.82l-6.5-10.12-6.5,10.12c-1.27,1.99-1.7,4.46-.93,6.69.57,1.66,1.82,3.34,4.39,4.29,1.95.72,4.12.72,6.07,0,2.57-.95,3.82-2.63,4.39-4.29.77-2.23.34-4.7-.93-6.69Z"/>
    <path class="cls-3" d="m45.72,125.33l-6.27-9.78-6.27,9.78c-1.23,1.92-1.64,4.31-.9,6.46.55,1.61,1.76,3.22,4.24,4.14,1.88.7,3.98.7,5.86,0,2.48-.92,3.69-2.54,4.24-4.14.74-2.15.33-4.54-.9-6.46Z"/>
    <polygon class="cls-1" points="89.07 113.86 78.58 113.86 70.57 76.86 58.61 132.1 69.1 132.1 77.11 169.1 89.07 113.86"/>
    <path class="cls-2" d="m146.67,51.29c0,4.6-1.27,8.91-3.47,12.59H4.75c-2.39-3.68-3.75-7.98-3.75-12.58,0-12.54,10.19-22.88,23.35-24.38,5.64-9.84,16.25-16.47,28.4-16.47,4.9,0,9.54,1.08,13.7,3.01C72.85,4.29,83.8-.45,94.4,1.39c12.27,2.13,21.91,12.7,23.13,25.78,1.49-.29,3.03-.44,4.6-.44,13.56,0,24.55,10.99,24.55,24.56Z"/>
    <path class="cls-3" d="m120.07,70.12l-9.72-15.15-9.72,15.15c-1.91,2.97-2.54,6.67-1.39,10.01.86,2.49,2.73,4.99,6.57,6.42,2.91,1.08,6.17,1.08,9.08,0,3.84-1.43,5.71-3.93,6.57-6.42,1.15-3.34.51-7.04-1.39-10.01Z"/>
    <path class="cls-3" d="m57.44,86.47l-8.17-12.73-8.17,12.73c-1.6,2.5-2.14,5.61-1.17,8.41.72,2.09,2.29,4.19,5.52,5.39,2.45.91,5.18.91,7.63,0,3.23-1.2,4.8-3.3,5.52-5.39.97-2.8.43-5.91-1.17-8.41Z"/>
  </g>
</svg>