<?xml version="1.0" encoding="UTF-8"?>
<svg id="Layer_2" data-name="Layer 2" xmlns="http://www.w3.org/2000/svg" viewBox="0 0 1356.24 789.06">
  <defs>
    <style>
      .cls-1 {
        stroke: #00a6ff;
      }

      .cls-1, .cls-2, .cls-3 {
        fill: none;
        stroke-miterlimit: 10;
        stroke-width: 6px;
      }

      .cls-2 {
        stroke: #ffd600;
      }

      .cls-3 {
        stroke: red;
      }
    </style>
  </defs>
  <g id="Layer_1-2" data-name="Layer 1">
    <g>
      <path class="cls-3" d="m1074.61,175.64l-208.7,175.96s-14.97,9.92-.78,20.85c.65.5,1.26,1.02,1.83,1.6,3.72,3.84,15.03,17.55-5.98,24.25-1.91.61-3.91.95-5.92,1.04-9.4.4-42.27,2.11-60.31,7.12-1.69.47-3.3,1.18-4.81,2.07-15.83,9.3-113.46,66.54-130.69,74.42-.95.44-1.96.71-3,.79-3.75.32-14.98,2.93-11.08,22.98.27,1.38.33,2.78.19,4.18-.7,7.24-4.09,26.61-21.48,40.34-22.71,17.93-49.44,10.58-52.01,9.82-4.12-1.41-10.34-3.09-18.01-3.42-29.25-1.26-49.26,18.42-51.69,20.9-13.89,14.16-17.92,30.55-19.23,37.92,0,0-.97,16.5-17.23,22.33l-42.71,16.99s-29.36,10.44-45.38-13.59c-16.02-24.03-37.86-25.72-49.26-19.41-3.62,1.38-9.05,3.26-15.8,4.79-21.33,4.85-34.69,1.55-48.9,1.3-13.11-.23-29.32,5.4-61.73,16.71-14.06,4.91-32.65,12.01-54.09,22.01"/>
      <path class="cls-1" d="m147.81,667.59l-118.87,52.84c-7.56,3.36-14.23,8.5-19.15,15.15-7.25,9.81-12.12,24.47,3.79,40.06,6.57,6.44,15.33,10.11,24.53,10.39,14.82.45,38.46-3.49,54.79-29.07,0,0,35.58-61.55,98.26-70.59,0,0,28.8-6.49,51.95,0s65.22-8.19,65.22-8.19c0,0,22.42-8.92,33.62,12.7,2.03,3.92,4.76,7.46,8.22,10.2,10.61,8.39,34.54,19.65,74.86-.32,2.12-1.05,4.28-2.03,6.47-2.95,10.73-4.5,46.44-21.26,72.51-54.35,1.83-2.32,3.82-4.49,5.92-6.57,12.36-12.25,51.45-48.5,85.04-52.67,3.1-.38,6.15-1.04,9.09-2.12,15.34-5.64,60.83-25.1,84.31-64.85,9.66-14.07,25.28-33.4,48.85-51.39,26.49-20.22,52.24-30.5,69.46-35.86"/>
      <path class="cls-2" d="m806.68,429.99s40.98-12.46,60.64-10.15c0,0,27.75-4.96,29.29-29.65,1.54-24.69,32.76-43.58,32.76-43.58l26.59-16.96s11.95-10.41,49.72,0c14.91,2.63,32.11,4.68,51.21,5.2,27.09.75,50.86-1.75,70.24-5.15,9.18-3.77,22.12-9.68,36.75-18.5,8.43-5.08,14.91-9.62,27.24-18.79,30.22-22.47,45.33-33.7,58.42-45.98,9.64-9.04,22.7-22.3,36.73-40.11,33.46-50.8,53.82-100.18,60.76-147.46.09-.62.2-1.23.34-1.84l5.06-22.92c1.31-5.95,1.1-12.19-.95-17.94-3.64-10.22-13.18-20.91-38.23-5.25l-144.53,95.2c-31.37,23.18-62.74,46.35-94.1,69.53"/>
    </g>
  </g>
</svg>