<?xml version="1.0" encoding="UTF-8"?>
<svg id="Layer_2" data-name="Layer 2" xmlns="http://www.w3.org/2000/svg" viewBox="0 0 1600.22 680">
  <defs>
    <style>
      .cls-1 {
        stroke: #00a6ff;
      }

      .cls-1, .cls-2, .cls-3 {
        fill: none;
        stroke-miterlimit: 10;
        stroke-width: 6px;
      }

      .cls-2 {
        stroke: #ffd600;
      }

      .cls-3 {
        stroke: red;
      }
    </style>
  </defs>
  <g id="Layer_1-2" data-name="Layer 1">
    <g>
      <path class="cls-3" d="m809.54,375.14l-254.42-128.27s-15.03-10.79-25.82,0l-31.75,31.75s-19.05,23.71-50.8,8.47l-18.19-6.9c-18.41-6.98-35.91-16.11-52.33-26.98-13.06-8.65-27.32-17.25-42.81-25.5-50.33-26.8-98.28-41.71-138.09-50.2-16.13-3.44-32.02-7.9-47.57-13.42-8.77-3.11-17.55-6.23-26.32-9.34-5.56-1.97-10.48-5.57-13.72-10.5-.47-.72-.92-1.48-1.34-2.28-3.2-6.12-2.21-10.17-3.05-19.93-1.05-12.31-2.01-23.52-9.48-31.92-5.54-6.23-12.45-8.44-15.02-9.23-10.33-3.16-19.07-.59-22.14.48l-37.59,9.48s-21.34,7.45-14.9-19.64c2.6-15.47,5.19-30.93,7.79-46.4"/>
      <path class="cls-2" d="m809.54,375.14l325.74,168.22s29.4,13.57,17.08-26.47l-6.16-27.33s-5.39-41.96,40.03-53.89c0,0,32.72-11.55,61.2,20.02,0,0,97.96,73.13,198.23,0l31.95-24.38s29.31-15.24,43.85,19.23c14.54,34.47-9.73,67.79-9.73,67.79-15.39,23.73-25.85,46.11-33.09,65.25-9.59,25.32-14.29,38.27-9.96,52.61,6.83,22.65,31.68,38.75,56.41,40.62,23.72,1.79,46.61-9.57,59.96-28.55,16.33-23.23,11.81-48.5,10.89-53.13l-30.07-166.64c-3.03-11.26-9.77-29.99-25.53-47.8-28.24-31.92-65.27-38.07-76.21-39.47-79.89-13.75-159.79-27.5-239.68-41.26"/>
      <path class="cls-1" d="m12,24.81s3.52-11,14.62-17.38c7.64-4.39,15.01-4.46,18.77-4.42,27.34.25,55.99,25.83,63.5,32.67,12.04,10.96,29.05,29.09,43.62,56.2,2.01,2.58,4.15,5.58,7.37,7.63,6.62,4.21,19.13,9.19,42.65,12.32l692.61,128.2s11.58,3.02,21.61-7.01c10.03-10.03,23.36-27.45,23.36-27.45,0,0,15.96-15.96,32.51.58l22.39,25.5,86.64,39.91,21.91,6.04,120.91,22.36"/>
    </g>
  </g>
</svg>