<?xml version="1.0" encoding="UTF-8"?>
<svg id="Layer_2" data-name="Layer 2" xmlns="http://www.w3.org/2000/svg" viewBox="0 0 1437.78 425.73">
  <defs>
    <style>
      .cls-1 {
        stroke: #00a6ff;
      }

      .cls-1, .cls-2, .cls-3 {
        fill: none;
        stroke-miterlimit: 10;
        stroke-width: 6px;
      }

      .cls-2 {
        stroke: #ffd600;
      }

      .cls-3 {
        stroke: red;
      }
    </style>
  </defs>
  <g id="Layer_1-2" data-name="Layer 1">
    <g>
      <path class="cls-3" d="m1058.52,422.43H238.36s-45.52,3.01-44.73-48.57-6.35-64.28-46.03-82.13l-77.77-31.74S15.48,245.5,3.97,166.74,85.15,2.35,189.57,3h198.4"/>
      <path class="cls-1" d="m387.97,3h61.02s60.95,7.14,49.69,74.05c-9.98,59.29-73.01,72.8-97.85,77.88-5.26,1.08-10.61,1.62-15.98,1.62h-166.42c-1.77,0-3.53-.06-5.29-.16-8.85-.51-44.12-.38-43.93,34.24.07,12.37,6.39,23.86,16.53,30.94l112.52,78.5s57.2,41.97,130.75,39.75l88.03.09s42.72,2.14,43.46-45.77c0,0-1.61-57.9,12.83-75.22,4.06-4.86,8.09-9.75,11.7-14.95l101.76-146.45s25.63-34.17,69.83-33.06c7.43-.21,17.25.27,28.4,2.93,14.13,3.36,25,8.93,32.22,13.39,124.9,75.04,249.81,150.08,374.71,225.13"/>
      <path class="cls-2" d="m1191.96,265.88l60.47,36.17s36.03,18.31,50.14-19.83c8.99-24.31-11.84-76.3-11.84-76.3-17.76-38.15-88.14-56.57-88.14-56.57-2.68-.87-32.48-11.08-41.52-41.85-6.81-23.15.55-49.71,20.37-65.32,24.49-19.28,53.93-10.76,56.67-9.92l138.13,47.36c24.18,8.07,35.93,20.01,42.19,29.57,15.58,23.81,16.35,62.25,16.35,62.25h0v168.45c-17.76,91.88-92.09,82.56-92.09,82.56l-284.17-.03"/>
    </g>
  </g>
</svg>