<?xml version="1.0" encoding="UTF-8"?>
<svg id="Layer_2" data-name="Layer 2" xmlns="http://www.w3.org/2000/svg" viewBox="0 0 931.91 797.6">
  <defs>
    <style>
      .cls-1 {
        stroke: #00a6ff;
      }

      .cls-1, .cls-2, .cls-3 {
        fill: none;
        stroke-miterlimit: 10;
        stroke-width: 6px;
      }

      .cls-2 {
        stroke: #ffd600;
      }

      .cls-3 {
        stroke: red;
      }
    </style>
  </defs>
  <g id="Layer_1-2" data-name="Layer 1">
    <g>
      <path class="cls-3" d="m214.04,493.5s55.19-4,88.34-28.48c52.18-38.52,95.37-45.3,95.37-45.3,26.78-8.76,118.39,15.02,118.39,15.02,63.33,14.52,112.36-3,112.36-3l99.4-30.68c30.54-6.65,40.3,22.92,40.3,22.92,4.28,10.7-.45,20.62-5.78,27.53-4.29,5.56-9.99,9.87-16.45,12.62l-57.82,24.58c-3.55,1.65-16.36,8.11-22.82,23.08-4.03,9.34-3.79,17.82-3.35,22.19,1.27,10.68,1.93,22.67,1.41,35.74-1.44,36.23-11.35,65.67-20.41,85.89l-32.05,75.8c-2,4.74-3.42,9.72-4.09,14.82-1.69,12.89-.54,34.05,21.65,44.43,21.53,10.07,36.9-1.24,45.05-10.45,3.66-4.13,6.53-8.9,8.59-14.02,37.15-92.06,74.29-184.12,111.44-276.18"/>
      <path class="cls-1" d="m214.04,493.5l-124.22-5.97s-55.62-4.25-78.31-58.73c0,0-20.25-45.4,1.75-77.87,19.22-26.86,39.1-57.6,58.35-92.29,13.34-24.04,24.86-47.26,34.83-69.28,1.4-3.09,2.9-6.13,4.52-9.1,2.93-5.38,5.87-10.76,8.8-16.14,0,0,8.76-16.84,45.79-12.81,1.45.16,2.9.24,4.35.29,15.56.52,105.72,6.14,141.5,67.01,5.67,9.64,5.34,21.81-1.34,30.77-4.91,6.59-13.53,13.68-28.37,19.99-2.04.87-4.14,1.6-6.27,2.21-7.33,2.09-26.84,7.17-55.27,10.83-36.65,4.71-74.26,28.02-74.26,28.02,0,0-24.77,15.71-15.97,48.18.3,1.1.52,2.21.74,3.32,1.16,5.93,8.17,27.13,49.19,30.21l59.22,4.74c2.02.16,4.04.24,6.07.25,72.75.21,143.71-12.44,143.71-12.44,20.56-3.68,48.14-8.7,83.91-19.42,38.42-11.52,70.22-24.79,94.37-36.21"/>
      <path class="cls-2" d="m793.59,490l124.76-307.53c8.07-19.88,11.76-41.34,10.23-62.74-2.28-32.03-16.28-72.43-65.37-99.94-6.48-2.79-15.48-6.29-26.51-9.36-29.47-8.21-52.99-7.72-73.38-7.14-25.07.72-38.45,1.26-54.23,9.22-7.97,4.02-20.93,10.8-26.19,25.22-2.86,7.83-2.41,15.05-1.73,19.49l8.33,55.23,30.75,174.68c1.44,8.2.9,16.67-1.88,24.51-3.46,9.77-10.69,20.03-25.8,19.77-28.67-.49-34.61-18.04-34.61-18.04-2.89-7.69-8.03-17.51-16.81-19.71-9.15-2.29-17.12,4.96-31.39,14.02-9.84,6.25-23.97,14.18-42.65,21.4"/>
    </g>
  </g>
</svg>