<?xml version="1.0" encoding="UTF-8"?>
<svg id="Layer_2" data-name="Layer 2" xmlns="http://www.w3.org/2000/svg" viewBox="0 0 1218.06 776.16">
  <defs>
    <style>
      .cls-1 {
        stroke: #00a6ff;
      }

      .cls-1, .cls-2, .cls-3 {
        fill: none;
        stroke-miterlimit: 10;
        stroke-width: 6px;
      }

      .cls-2 {
        stroke: #ffd600;
      }

      .cls-3 {
        stroke: red;
      }
    </style>
  </defs>
  <g id="Layer_1-2" data-name="Layer 1">
    <g>
      <path class="cls-3" d="m346.56,81.63l-250.49,67.86S2.08,164.78,3.01,218.48c0,0-.93,16.21,19.45,31.02,4.52,2.7,27.13,16.52,36.95,35.29,1.96,3.76,5.15,10.01,5.18,18.41.02,6.95-2.12,12.18-3.02,14.32-7.32,17.37-18.93,39-23.93,49.32-18.87,38.95-16.84,68.15-16.28,74.31.09.96.18,1.93.29,2.91,6.01,54.52,40.98,101.72,81.91,125.17,8.33,4.77,24.43,10.67,56.62,22.47,0,0,33.05,12.11,67.38,22.63,46.22,14.16,230.62,62.69,481.8,125.04"/>
      <path class="cls-1" d="m709.36,739.39l117.62,30.29s54.17,18.63,69.5-30.29l18.4-95.42s28.62-98.63-78.19-159.95l-278-197.77s-53.15-29.13-34.75-104.76c0,0,8.22-61.83,51.64-81.25,44.96-12.17,168.23-43.15,183.96-11.15,1.65,3.36,2.23,7.65,1.01,13.2,0,0,2.56,22.49-16.86,42.93,0,0-34.24,31.68-10.22,72.57,0,0,19.93,32.71,57.23,17.89,0,0,15.33-6.13,28.11-18.4l56.72-56.72c4.08-4.21,10.44-10.15,19.16-15.91,9.55-6.3,20.35-11.33,51.88-19.66,12.31-3.25,28.4-7.17,47.52-10.94,12.85-2.92,25.13.47,31.86,8.81,2.31,2.86,4.01,6.57,4.71,11.37.63,2,.96,3.88,1.08,5.59,1.14,15.54-13.32,27.34-16.46,29.8-25.94,23.71-51.87,47.43-77.81,71.14,0,0-40.71,40.71-27.33,108.75,0,0,10.6,37.83,40.71,61.02,34.21,26.34,62.35,45.96,80.9,52.75"/>
      <path class="cls-2" d="m346.56,81.63l191.53-51.87c15.69-4.24,37.67-9.75,64.26-15,31.98-6.32,56.16-11.1,85.11-11.7,28.75-.6,49.61,3.19,76.22,8.17,90.82,17.01,114.11,21.78,264.14,58.85,10.71,2.65,26.08,7.08,44.74,16.72,24.31,12.56,52.51,33.53,68.06,67.15,17.61,31.94,30.23,59.55,38.77,79.72,39.35,92.87,36.6,132.37,34.8,147.51-1.82,15.3-5.26,27.55-7.77,35.25l-29.65,86.04s-8,16.72-24.84,20.56c-20.56,4.68-35.76-9.96-36.46-10.67l-83.72-49.11"/>
    </g>
  </g>
</svg>