<?xml version="1.0" encoding="UTF-8"?>
<svg id="Layer_2" data-name="Layer 2" xmlns="http://www.w3.org/2000/svg" viewBox="0 0 1424.4 504.9">
  <defs>
    <style>
      .cls-1 {
        stroke: #00a6ff;
      }

      .cls-1, .cls-2, .cls-3 {
        fill: none;
        stroke-miterlimit: 10;
        stroke-width: 6px;
      }

      .cls-2 {
        stroke: #ffd600;
      }

      .cls-3 {
        stroke: red;
      }
    </style>
  </defs>
  <g id="Layer_1-2" data-name="Layer 1">
    <g>
      <path class="cls-3" d="m1180.21,238.68s87.41,15.57,167.29,79.37c0,0,13.08,10.75,30.24-12.38,2.43-3.27,5.23-6.27,8.51-8.68,7.16-5.26,18.98-10.41,29.57,1.47,16.58,18.59-9.04,51.74-9.04,51.74-8.82,12.62-17.82,22.4-25.8,29.9-16.37,15.39-35.42,25.93-73.5,47.02-18.7,10.36-12.31,6.1-35.62,18.76,0,0-11.08,6.02-37.21,17.41-10.97,4.78-16.05,5.89-21.66,4.5-10.66-2.64-11.38-12.28-20.13-19.07-11.03-8.56-32.19-3.31-74.5,7.19-20.12,4.99-32.34,9.3-45.31,16.87-3.2,1.87-6.09,3.73-8.66,5.5-14.36,9.89-31.14,15.83-48.56,16.52-.52.02-1.03.04-1.52.05-13.34.31-27.28-2.16-79.63-24.97-17.02-7.41-31.28-14.01-41.88-19.02"/>
      <path class="cls-1" d="m892.79,450.86s-26.46-17.95-40.58-7.57c-3.42,2.51-5.53,6.44-6.06,10.65-1.42,11.21-9.43,49.15-52.54,47.94-50.57-1.42-161.08-50.57-161.08-50.57,0,0-92.38-39.56-131.46-69.77l-103.87-85.1c-.91-.75-1.84-1.47-2.82-2.14-2.83-1.95-10.49-8.2-5.02-15.66.94-1.29,1.84-2.62,2.53-4.06,3.83-8.02,11.6-31.51-14.4-54.15,0,0-75.26-68.16-139.17-107.74,0,0-50.12-34.35-88.07-48.08"/>
      <path class="cls-2" d="m1180.21,238.68l-288.19-61.04c-7.58-1.6-10.59-4.6-11.92-7.12-.64-1.22-2.37-3.94-1.53-9.23,2.35-14.89-8.75-15.48-8.75-15.48-263.13-58.87-453.45-101.34-476.27-106.75-7.09-1.68-23.33-5.79-38.3-6.15-2.14-.05-10.84-.18-22.91-.82,0,0-4.1-.16-8.29-.49-32.7-2.58-165.27-12.79-177.64-9.69-14.12,3.53-43.25,1.94-43.25,1.94-18.03-.47-63.9-15.59-75.58-19.53-3.33-1.12-6.87-1.58-10.36-1.14-5.37.68-11.94,3.43-13.94,12.49C.11,29.98,25.68,33.22,31.35,33.76c.96.09,1.91.2,2.86.33,17.18,2.4,36.19,5.95,56.57,11.21,15.69,4.05,35.97,10.22,59.47,19.32"/>
    </g>
  </g>
</svg>