<?xml version="1.0" encoding="UTF-8"?>
<svg id="Layer_2" data-name="Layer 2" xmlns="http://www.w3.org/2000/svg" viewBox="0 0 1056.5 667.27">
  <defs>
    <style>
      .cls-1 {
        stroke: #00a6ff;
      }

      .cls-1, .cls-2, .cls-3 {
        fill: none;
        stroke-miterlimit: 10;
        stroke-width: 6px;
      }

      .cls-2 {
        stroke: #ffd600;
      }

      .cls-3 {
        stroke: red;
      }
    </style>
  </defs>
  <g id="Layer_1-2" data-name="Layer 1">
    <g>
      <path class="cls-3" d="m1045.44,374.99c-14.23-106.37-28.47-212.74-42.7-319.12,0,0-.59-11.23-7.85-14.69-2.48-1.18-4.81-.92-7.88-.65-8.65.78-17.71,1.28-20.73,1.3-14.64.1-30.1-10.24-36.07-21.56-1-1.89-1.37-3.13-2.95-5.41-1.2-1.73-9.1-13.15-19.32-11.76-5.86.8-9.53,5.41-10.91,7.14-4.58,5.75-4.75,12.13-4.72,14.16l-4.62,42.28c-.38,4.8-.63,11.94.26,20.47,2.44,23.31,11.49,38.32,19.58,55.46,6.04,12.78,13.68,31.29,20.02,55.39l6.34,64.37c.59,5.97-1.65,11.88-6.06,15.95l-.08.08c-14.41,13.29-33.34,13.53-40.28,13.26l-269.09-17.16c-10.77-.69-21.46-2.33-31.89-5.11-7.52-2-15.51-4.73-21.42-8.25-37.16-21.89-74.32-43.78-111.48-65.67"/>
      <path class="cls-1" d="m259.9,355.61s-31.33,81.84-33.73,100.9c-.14,1.12-.28,2.24-.48,3.35l-33.9,193.13c-.33,1.89-.87,3.74-1.7,5.47-4.17,8.69-10.41,6.02-14.86,2.32-2.98-2.47-4.97-5.88-6.12-9.57-5.46-17.49-39.92-45.91-64.59-62.87-26.57-18.27-26.29-34.87-26.29-34.87l-.83-27.95c.13-2.12.05-6.32-2.41-10.51-3.16-5.38-8.45-7.68-12.45-8.67-7.53-1.86-14.77-4.75-21.4-8.76-24.27-14.69-31.27-32.39-31.27-32.39-9.13-19.14-6.99-24.43-5.65-25.83.8-.83,1.61-1.63,2.32-2.53,3.51-4.41,8.14-10.46,13.24-17.83,11.85-17.14,18.58-30.34,30.59-53.82,4.09-8,18.86-36.88,27.72-54.18,17.58-30.89,35.15-61.77,52.73-92.66,6.36-11.18,14.6-21.19,24.36-29.59l.16-.14c.64-.55,1.28-1.11,1.88-1.7,2.64-2.58,6.99-5.93,12.8-6.58,6.63-.74,12.09,2.39,15.38,4.55,26.42,17.38,39.63,26.07,78.8,80.36,11.51,12.92,19.18-6.96,19.18-6.96,5-22.65,67.13-105.08,67.13-105.08,11.21-16.81,23.26-5.09,23.26-5.09,26.6,15.8,53.21,31.59,79.81,47.39"/>
      <path class="cls-2" d="m259.9,355.61l20.2-56.16s3.46-16.44,20.76,0l105.55,85.36s25.16,23.78,50.58,23.69c1.08,0,2.16,0,3.24.05,103.79,5.75,207.58,11.49,311.37,17.23,1.04-.04,8.99-.25,14.64,6.17,5.03,5.72,4.64,12.61,4.16,15.63-.31,1.9-.48,3.81-.42,5.73.33,9.98,4.67,34.25,39.11,35.33l169.1,9.03c1.72.09,3.43.25,5.15.41,3.59.34,12.92.12,18.39-10,.94-1.74,1.88-3.49,2.94-5.16l20.75-32.79s10.63-14.87,7.48-28.41c-.18-.78-.37-1.55-.49-2.34l-6.99-44.39"/>
    </g>
  </g>
</svg>