<?xml version="1.0" encoding="UTF-8"?>
<svg id="Layer_2" data-name="Layer 2" xmlns="http://www.w3.org/2000/svg" viewBox="0 0 1298.87 775.5">
  <defs>
    <style>
      .cls-1 {
        stroke: #00a6ff;
      }

      .cls-1, .cls-2, .cls-3 {
        fill: none;
        stroke-miterlimit: 10;
        stroke-width: 6px;
      }

      .cls-2 {
        stroke: #ffd600;
      }

      .cls-3 {
        stroke: red;
      }
    </style>
  </defs>
  <g id="Layer_1-2" data-name="Layer 1">
    <g>
      <path class="cls-2" d="m1253.51,153.04l-102.39-138.67c-6.39-10.65-17.06-13.43-22.11-9.96-4.72,3.25-4.04,11.63-3.96,12.46v36.87c0,14.36,4.2,28.41,12.13,40.38,4.87,7.35,11.7,16.85,21.27,29.02,0,0,38.29,52.96-7.74,85.55,0,0-41.96,28.52-89.62,25.66l-573.15,9.82c-5.37-.03-12.73-1.01-18.59-5.88-11.4-9.49-9.46-27.33-8.31-56.22.61-15.37,1.14-37.56.54-64.98-1.35-10.19-6.32-41.7-33.2-66.23-19.03-17.37-48.89-30.78-95.69-28.62-1.55.07-3.09.35-4.53.91-1.13.45-2.33,1.09-3.45,2.04-5.23,4.41-3.23,10.57-6.09,14.44-3.72,5.05-13.86,3.72-41.44-2.13-24.79-5.26-37.15-8.54-42.36-2.44-.75.88-1.25,1.84-1.58,2.74-.43,1.16-.6,2.39-.6,3.62,0,66.08,0,132.17,0,198.25"/>
      <path class="cls-1" d="m837.18,772.2s-176.99.79-336.9-.21c-12.04-.07-37.63-.37-70.08-7.32-15.12-3.24-27.33-6.98-35.42-9.69-31.77-11.01-59.68-22.36-83.37-32.87-48.06-21.32-84.63-41.8-104.35-53.31-29.44-17.17-52.08-32.44-67.31-43.21-16.95-11.98-27.88-20.63-47.18-32.37-15.47-9.4-29.22-16.49-39.74-21.51-4.16-1.99-8.23-4.17-12.18-6.54-6.55-3.94-12.37-5.94-16.9-7.03-9.31-2.25-16-1.38-19.19-5.98-2.54-3.68-1.49-8.87-.11-12.84l23.77-85.85c12.5-34.19,64.03-48.56,64.03-48.56,72.26-26.81,105.28-55.55,105.28-55.55,6.59-6.33,14.61-15.5,21.37-27.97,13.56-25.01,14.27-48.95,13.76-60.99v-20.7"/>
      <path class="cls-3" d="m1253.51,153.04s44.72,50.11,42.27,91.13l-4.67,467.37c.94,17.37-8.68,20.18-8.68,20.18,0,0-15.25,7.04-13.61,25.11,1.64,18.07-11.03,14.55-11.03,14.55l-420.6.82"/>
    </g>
  </g>
</svg>