<?xml version="1.0" encoding="UTF-8"?>
<svg id="Layer_2" data-name="Layer 2" xmlns="http://www.w3.org/2000/svg" viewBox="0 0 764.74 731.64">
  <defs>
    <style>
      .cls-1 {
        stroke: #00a6ff;
      }

      .cls-1, .cls-2, .cls-3 {
        fill: none;
        stroke-miterlimit: 10;
        stroke-width: 6px;
      }

      .cls-2 {
        stroke: #ffd600;
      }

      .cls-3 {
        stroke: red;
      }
    </style>
  </defs>
  <g id="Layer_1-2" data-name="Layer 1">
    <g>
      <path class="cls-3" d="m3,496.45V29.37c0-8.86,4.11-17.33,11.34-22.44,1.58-1.12,5.87-4.03,11.33-3.93,10.22.18,17.64,10.82,21.76,16.91,26.67,39.35,40,59.02,47.57,84.92,3.19,10.92,6.91,26.54,8.66,45.9.17,54.75.33,109.49.5,164.24,0,0-2.69,43.17,37.96,43.17,0,0,24.76,3.33,38.06-28.09l29.13-68.74s3.46-10.01,13.93-16.42c6.33-3.88,12.35-4.64,13.99-4.87,14.01-1.89,110.48-22.13,244.64-50.67"/>
      <path class="cls-1" d="m481.88,189.36c3.74-1.02,9.68-2.51,17.06-3.74,6.13-1.02,24.82-3.78,53.09-1.64,21.73,1.64,26.29,4.41,35.1.33,4.65-2.15,7.99-5.07,19-18.11,16.59-19.66,22.94-28.77,22.94-28.77,12.18-17.49,26.34-37.67,42.46-60.83,2.83-4.06,6.22-7.73,10.16-10.72,2.01-1.52,4.3-3.02,6.9-4.37,13.82-7.2,27.15-5.63,32.14-4.78,5,.86,11.95,2.82,18.79,7.59,19.29,13.47,20.79,37.45,20.96,41.12l.56,7.78c1.42,19.66.69,39.42-2.16,58.92l-14.17,96.95c-.25,1.68-.4,3.37-.51,5.06-.34,5.36-2.77,20.05-19.16,18.73-.98-.08-1.96-.23-2.93-.43-3.23-.65-16.02-2.47-22.5,8.09-.8,1.31-1.62,2.61-2.54,3.84l-65.37,87.24s-11.56,11.24,5.09,37.11c.92,1.43,1.79,2.9,2.64,4.37l20.84,35.99c4.05,6.99,6.43,14.86,6.62,22.94.27,11.71-3.61,26.52-22.19,34.56-2.81,1.21-5.51,2.67-8.15,4.23l-73.62,43.49c-2.07,1.22-4.19,2.36-6.37,3.39-6.67,3.15-26.87,15.27-35.96,49.62l-19.76,60.3c-3.55,10.83-9.89,20.56-18.51,28.02-7.84,6.78-18.37,13-30.63,13-19.75-.88-39.51-1.77-59.26-2.65"/>
      <path class="cls-2" d="m392.43,726l-223-13.99s-23.53.63-20.08-23.85c3.15-14.98,7.07-35.31,10.67-59.58,12.33-83.16,4.02-98.57-4.6-105.66-4.73-3.89-11.64-6.99-22.07-7.35,0,0-29.18-1.88-31.69,31.69v94.76c0,7.58-1.36,15.13-4.19,22.16-5.77,14.33-18.64,34.39-45.39,33.38-23.47-.89-35.86-14.17-42.19-25.52-4.07-7.29-6.13-15.52-6.17-23.87-.24-50.58-.48-101.16-.72-151.74"/>
    </g>
  </g>
</svg>