<?xml version="1.0" encoding="UTF-8"?>
<svg id="Layer_2" data-name="Layer 2" xmlns="http://www.w3.org/2000/svg" viewBox="0 0 1108.73 797.64">
  <defs>
    <style>
      .cls-1 {
        stroke: #00a6ff;
      }

      .cls-1, .cls-2, .cls-3 {
        fill: none;
        stroke-miterlimit: 10;
        stroke-width: 6px;
      }

      .cls-2 {
        stroke: #ffd600;
      }

      .cls-3 {
        stroke: red;
      }
    </style>
  </defs>
  <g id="Layer_1-2" data-name="Layer 1">
    <g>
      <path class="cls-3" d="m513.83,794.54l-370.95-.04s-46.46-1.99-53.43-44.8c0,0-6.46-35.2,23.63-54.95.83-.55,1.7-1.04,2.58-1.51l127.6-68.8c2.37-1.28,4.61-2.78,6.64-4.54,7.66-6.62,21.76-23.06,13.67-49.72-.29-.96-.54-1.93-.73-2.91-1.06-5.44-7.47-27.67-42.48-41.12-1.41-.54-2.8-1.14-4.15-1.83l-84.65-43.6c-.86-.44-1.74-.84-2.62-1.22-4.57-1.95-23.63-12.18-35.83-51.39L8.47,190.13s-17.76-49.44,10.74-69.19c2.56-1.78,5.4-3.12,8.34-4.16l72.85-25.88s37.75-15.41,58.12,20.52c1.03,1.82,1.87,3.75,2.57,5.72l37.22,104.86"/>
      <path class="cls-1" d="m198.31,221.99l25.77,70.62s7.93,23.06,28.1,18.38c0,0,26.3-.72,26.66-26.66l26.66-235.63s7.57-46.12,44.68-45.4c0,0,43.59-5.04,53.32,25.94,1.22,10.85,3.66,26.19,9.05,43.96,12.95,42.68,34.47,71.61,45.35,84.8,6.14,7.44,14.51,16.68,25.43,26.44,5.03,4.5,10.41,8.58,15.95,12.43,9.37,6.51,29.95,25.56,18.06,61.51l-27.38,100.39c-2.16,7.92-2.99,16.17-2.14,24.33,1.35,13.04,6.99,28.96,26,31.65,15.77.75,40.56.14,68.94-8.64,45.37-14.05,73.54-40.85,92.28-58.69,27.56-26.23,43.57-51.76,50.56-63.81,8.87-15.3,12.75-25.39,27.18-62.06,7.14-18.15,19.35-49.13,35.57-89.98"/>
      <path class="cls-2" d="m513.83,794.54h525.3c30.03,1.55,56.18-15.29,64.12-39.49,5.51-16.79.69-32.35-3.19-40.98-1.39-3.09-3.06-6.04-4.95-8.84l-169.37-250.62c-20.3-30.58-3.96-51.68-.58-55.51.58-.66,1.15-1.33,1.7-2.02l130.38-161.5c1.04-1.28,2.1-2.55,3.23-3.75,26.09-27.64,11.32-52.36,11.32-52.36-18.68-33.97-37.36-67.94-56.04-101.9-.44-.79-.85-1.59-1.25-2.4-2.89-5.83-9.77-17.41-23.51-25.61-.48-.28-.95-.56-1.42-.82-8.79-4.92-18.76-7.32-28.83-7.32-29.17,0-58.33,0-87.5.01-48.95-.85-66.5,41.31-66.5,41.31-6.13,16.27-12.26,32.55-18.39,48.83"/>
    </g>
  </g>
</svg>