<?xml version="1.0" encoding="UTF-8"?>
<svg id="Layer_2" data-name="Layer 2" xmlns="http://www.w3.org/2000/svg" viewBox="0 0 1186.72 758.57">
  <defs>
    <style>
      .cls-1 {
        stroke: #00a6ff;
      }

      .cls-1, .cls-2, .cls-3 {
        fill: none;
        stroke-miterlimit: 10;
        stroke-width: 6px;
      }

      .cls-2 {
        stroke: #ffd600;
      }

      .cls-3 {
        stroke: red;
      }
    </style>
  </defs>
  <g id="Layer_1-2" data-name="Layer 1">
    <g>
      <path class="cls-3" d="m203.1,591.66L24.25,730.78c-.39.3-.76.61-1.13.92-3.02,2.57-20.03,16.22-20.11-2.21-.01-3.38.59-6.74,1.63-9.96l25.26-77.82c.31-.96.67-1.91,1.07-2.84,4.38-10.23,31.53-72.71,47.26-88.19.47-.46.93-.93,1.37-1.42,0,0,77.3-79.77,124.35-140.27,1.47-1.89,2.25-2.91,2.88-3.76,19.49-25.92,18.89-35.88,29.63-49.08,1.35-1.67,17.88-21.46,43.28-27.05,8.3-1.83,16.9-2,28.59-7.92,9.08-4.61,14.73-10.21,17.49-12.56,39.47-33.57,78.94-67.15,118.41-100.72,1.36-1.15,2.79-2.2,4.32-3.12,7.39-4.46,15.38-8.96,23.98-13.36,11.27-5.78,22.08-10.64,32.21-14.74,17.23-6.97,116.58-50.52,366.62-161.25"/>
      <path class="cls-1" d="m871.36,15.42l20.36-8.98s27.82-13.69,40.12,13.49c0,0,19.45,25.4,49.21,5.56l34.92-13.49s28.38-11.71,40.08,9.33l119.48,128.15s20.7,26.63-3.73,44.02c0,0-20.29,17.8-42.85-4.55l-42.64-52.37s-16.35-25.67-41.19-11.39c-23.15,12.37-48.6,24.82-76.34,36.76-32.35,13.93-63.13,25.18-91.65,34.3-25.87,7.66-51.74,15.31-77.61,22.97,0,0-45.61,11.11-42.92,63.24,0,0-.58,58.09,23.48,79.61.64.58,1.28,1.16,1.88,1.78,4.31,4.5,24.95,24.91,47.82,28.95,2.47.44,4.94.92,7.37,1.54l167.71,42.76s57,13.33,28.41,71.06c0,0-22.18,46.63,19.26,64.75,35.52,16.52,71.03,33.04,106.55,49.56,2.7,1.54,7.57,4.85,11.04,10.89,6.69,11.64,2.63,23.78,1.93,25.79-5.81,11.75-11.62,23.51-17.43,35.26"/>
      <path class="cls-2" d="m203.1,591.66l75.46-57.38c15.69-11.13,15.86,10.29,15.86,10.29v10.97c.5,2.92,1.68,6.71,4.76,9.39,5.86,5.1,14.18,1.35,43.22-5.36,10.7-2.47,11.24-2.36,24.26-5.44,0,0,12.99-2.82,23.32-5.76,13.83-3.93,49.94-14.01,86.3-30.76,69.49-32.01,81.83-60.86,132.68-64.47,3.79-.27,7.32-.36,10.54-.35,7.35.03,14.65,1.21,21.65,3.45l95.79,30.75c12.16,4.02,30,11.31,48.24,24.96,32.92,24.63,44.62,53.11,62.99,82.02,14.47,22.76,37.78,53.19,76.05,84.49,4.59,3.76,9.06,7.68,13.33,11.8,12.47,12.05,31.09,27.35,56.38,39.99,28.85,14.42,75.55,37.77,116.44,17.25,7.91-3.97,30.31-16.96,44.24-53.08"/>
    </g>
  </g>
</svg>