<?xml version="1.0" encoding="UTF-8"?>
<svg id="Layer_2" data-name="Layer 2" xmlns="http://www.w3.org/2000/svg" viewBox="0 0 124.69 118.66">
  <defs>
    <style>
      .cls-1 {
        fill: #137400;
      }

      .cls-1, .cls-2, .cls-3 {
        stroke: #000;
        stroke-miterlimit: 10;
        stroke-width: .57px;
      }

      .cls-2 {
        fill: #a50000;
      }

      .cls-4 {
        fill: #fff;
      }
    </style>
  </defs>
  <g id="Layer_1-2" data-name="Layer 1">
    <g>
      <path class="cls-2" d="m67.74,28.08s-9.95-.54-15.1,3.07-8,8.04-9.69,13.45c0,0-1.36.04-1.58.33l-4.58,19.26s-.1.18.17.46c-.32.51-.68,1.22-.96,2.11-.3.96-.38,1.81-.4,2.43.08.3.15.61.23.91.82,3.27,1.58,6.52,2.29,9.75.03.13.06.33.07.57.03.57-.09,1-.12,1.15-.1.42-.2,1.08-.14,2.11,0,0,.21.76.94.77,0,0,3.04.61,4.35.62.89.1,2.17.17,3.71-.02.67-.08,1.14-.18,2.08-.39,1.83-.4,3.19-.81,5.2-1.41,1.3-.39,1.95-.59,2.83-.9.3-.11.89-.32,2.17-.77.36-.13.66-.23.74-.26,1.86-.68,4.31-1.67,7.15-3.05,1.3-.51,2.61-1.03,3.91-1.54,0,0,3.11-1,4.24-1.07,0,0,4.64-.84,4.79-.94l3.93-.81s1.33-.2,1.53-1.59c1.06-2.06,2.12-4.12,3.18-6.18l.84-2.29,1.09-3.17c.49-1.45.97-3.28,1.2-5.43.17-1.57.18-2.99.12-4.2,0,0,.05-5.57-4.36-12.08-.68-1.01-3.93-5.53-9.42-8.21-1.91-.93-3.79-1.49-4.35-1.65-2.39-.69-4.48-.94-6.04-1.04Z"/>
      <path class="cls-3" d="m76.23,43.93c-2.8.81-5.6,1.62-8.4,2.43,0,0-15.79-2.43-25.17-1.76,0,0-1.42.06-1.59.33l-4.61,19.26s-.08.24.17.46c0,0,.33.28.72.42,0,0,.85.35,1.37.4l.42.08.37.06.42.05.52.05.48.04.61.03.84.03h.52s.89,0,.89,0l.92-.02.84-.03.88-.05.81-.06h.43s1.15-.05,1.15-.05l1.26-.05,1.09-.05,1.13-.06,1.47-.09,1.39-.1.83-.07,14.44-2.96,2.43-.5,3.93-11.89,1.52-1.89c1.16-.58,1.6-2.03.99-3.12-.58-1.05-1.95-1.46-3.05-.88Z"/>
      <g>
        <g>
          <path class="cls-1" d="m60.92,111.04s-2.35,7.73-20.9,7.18c0,0,14.21-8.83,20.9-7.18Z"/>
          <path class="cls-1" d="m24.63,110.07s17.18,6.97,22.91-.28c0,0-5.52-4.07-22.91.28Z"/>
          <path class="cls-1" d="m35.11,92.48s1.17,13.72,10.28,15.59c0,0,4.35-1.58-10.28-15.59Z"/>
          <path class="cls-1" d="m12.55,97.04s13.04,11.94,21.66,6.55c0,0-2.9-6.14-21.66-6.55Z"/>
          <path class="cls-1" d="m26.77,82.34s-1.86,15.54,6.28,18.67c0,0,3.31-5.01-6.28-18.67Z"/>
          <path class="cls-1" d="m4.69,81.31s9.38,14.97,18.35,12c0,0-2.28-7.93-18.35-12Z"/>
          <path class="cls-1" d="m21.73,69.85s-6.49,14.49,1.31,20.28c0,0,3.45-5.86-1.31-20.28Z"/>
          <path class="cls-1" d="m.48,63.78s5.52,16.01,14.28,16.21c0,0,.13-10.35-14.28-16.21Z"/>
          <path class="cls-1" d="m19.66,57.57s-9.18,9.66-4.07,19.18c0,0,5.24-4.55,4.07-19.18Z"/>
          <path class="cls-1" d="m1.58,47.36c-.11,1.44-.63,10.27,5.48,15.28.91.75,2.14,1.55,3.76,2.17.4-1.44.5-2.72.46-3.79-.29-7.99-8.49-12.95-9.71-13.66Z"/>
          <path class="cls-1" d="m20.85,44.6s-10.99,7.31-8.23,17.8c0,0,8.45-9.8,8.23-17.8Z"/>
          <path class="cls-1" d="m6.58,31.41s-2.7,17.68,4.4,18.34c.63-1.46,1.41-3.82,1.3-6.75-.24-6.52-4.67-10.67-5.7-11.59Z"/>
          <path class="cls-1" d="m25.53,33.18s-12.86,4.38-12.64,14.36c0,0,8-3.69,12.64-14.36Z"/>
          <path class="cls-1" d="m14.8,17.47s-6.17,11.87-.62,18.56c.94-1.02,1.58-2.04,2.03-2.95,3.31-6.71-.68-14.27-1.41-15.61Z"/>
          <path class="cls-1" d="m31.7,24.07s-11.69.79-14.91,10.12c0,0,8.73-2.46,14.91-10.12Z"/>
          <path class="cls-1" d="m25.88,7.63s-8.85,7.66-5.41,16.43c0,0,8.28-4.96,5.41-16.43Z"/>
          <path class="cls-1" d="m39.77,17.76s-9.86-2.99-16.69,5.2c0,0,9.31.25,16.69-5.2Z"/>
          <path class="cls-1" d="m38.91,1.86s-11.19,4.92-8.89,13.15c0,0,8.32-3.81,8.89-13.15Z"/>
          <path class="cls-1" d="m49.4,14.23s-9.35-5.6-16.51.29c0,0,6.39,2.46,16.51-.29Z"/>
          <path class="cls-1" d="m52.06.34s-11.39,1.27-11.6,8.4c0,0,6.68,1.32,11.6-8.4Z"/>
          <path class="cls-1" d="m46,99.99s3.87,12.42,13.34,9.9c0,0,.19-5.59-13.34-9.9Z"/>
        </g>
        <g>
          <path class="cls-1" d="m63.77,111.17s2.35,7.73,20.9,7.18c0,0-14.21-8.83-20.9-7.18Z"/>
          <path class="cls-1" d="m100.06,110.21s-17.18,6.97-22.91-.28c0,0,5.52-4.07,22.91.28Z"/>
          <path class="cls-1" d="m89.58,92.62s-1.17,13.72-10.28,15.59c0,0-4.35-1.58,10.28-15.59Z"/>
          <path class="cls-1" d="m112.14,97.17s-13.04,11.94-21.66,6.55c0,0,2.9-6.14,21.66-6.55Z"/>
          <path class="cls-1" d="m97.92,82.47s1.86,15.54-6.28,18.67c0,0-3.31-5.01,6.28-18.67Z"/>
          <path class="cls-1" d="m120,81.44s-9.38,14.97-18.35,12c0,0,2.28-7.93,18.35-12Z"/>
          <path class="cls-1" d="m102.96,69.99s6.49,14.49-1.31,20.28c0,0-3.45-5.86,1.31-20.28Z"/>
          <path class="cls-1" d="m124.21,63.91s-5.52,16.01-14.28,16.21c0,0-.13-10.35,14.28-16.21Z"/>
          <path class="cls-1" d="m105.03,57.71s9.18,9.66,4.07,19.18c0,0-5.24-4.55-4.07-19.18Z"/>
          <path class="cls-1" d="m123.11,47.49c.11,1.44.63,10.27-5.48,15.28-.91.75-2.14,1.55-3.76,2.17-.4-1.44-.5-2.72-.46-3.79.29-7.99,8.49-12.95,9.71-13.66Z"/>
          <path class="cls-1" d="m103.84,44.74s10.99,7.31,8.23,17.8c0,0-8.45-9.8-8.23-17.8Z"/>
          <path class="cls-1" d="m118.11,31.54s2.7,17.68-4.4,18.34c-.63-1.46-1.41-3.82-1.3-6.75.24-6.52,4.67-10.67,5.7-11.59Z"/>
          <path class="cls-1" d="m99.15,33.31s12.86,4.38,12.64,14.36c0,0-8-3.69-12.64-14.36Z"/>
          <path class="cls-1" d="m109.89,17.6s6.17,11.87.62,18.56c-.94-1.02-1.58-2.04-2.03-2.95-3.31-6.71.68-14.27,1.41-15.61Z"/>
          <path class="cls-1" d="m92.99,24.2s11.69.79,14.91,10.12c0,0-8.73-2.46-14.91-10.12Z"/>
          <path class="cls-1" d="m98.81,7.77s8.85,7.66,5.41,16.43c0,0-8.28-4.96-5.41-16.43Z"/>
          <path class="cls-1" d="m84.92,17.89s9.86-2.99,16.69,5.2c0,0-9.31.25-16.69-5.2Z"/>
          <path class="cls-1" d="m85.78,1.99s11.19,4.92,8.89,13.15c0,0-8.32-3.81-8.89-13.15Z"/>
          <path class="cls-1" d="m75.29,14.36s9.35-5.6,16.51.29c0,0-6.39,2.46-16.51-.29Z"/>
          <path class="cls-1" d="m72.63.48s11.39,1.27,11.6,8.4c0,0-6.68,1.32-11.6-8.4Z"/>
          <path class="cls-1" d="m78.69,100.12s-3.87,12.42-13.34,9.9c0,0-.19-5.59,13.34-9.9Z"/>
        </g>
      </g>
      <circle class="cls-4" cx="77.18" cy="45.93" r="1.4"/>
    </g>
  </g>
</svg>