<?xml version="1.0" encoding="UTF-8"?>
<svg id="Layer_2" data-name="Layer 2" xmlns="http://www.w3.org/2000/svg" viewBox="0 0 1876.04 1079.41">
  <defs>
    <style>
      .cls-1 {
        letter-spacing: .01em;
      }

      .cls-2 {
        letter-spacing: 0em;
      }

      .cls-3 {
        letter-spacing: -.07em;
      }

      .cls-4 {
        letter-spacing: -.07em;
      }

      .cls-5 {
        letter-spacing: -.08em;
      }

      .cls-6 {
        letter-spacing: -.01em;
      }

      .cls-7 {
        letter-spacing: 0em;
      }

      .cls-8 {
        letter-spacing: 0em;
      }

      .cls-9 {
        stroke-width: 1.16px;
      }

      .cls-9, .cls-10, .cls-11, .cls-12, .cls-13, .cls-14, .cls-15, .cls-16, .cls-17 {
        stroke: #000;
        stroke-miterlimit: 10;
      }

      .cls-9, .cls-13, .cls-14 {
        fill: #f4f4f3;
      }

      .cls-18 {
        font-family: MyriadPro-Regular, 'Myriad Pro';
        font-size: 44.99px;
      }

      .cls-19 {
        letter-spacing: .01em;
      }

      .cls-10 {
        fill: #137400;
      }

      .cls-10, .cls-11, .cls-12 {
        stroke-width: .57px;
      }

      .cls-11 {
        fill: #a50000;
      }

      .cls-20 {
        letter-spacing: 0em;
      }

      .cls-21 {
        letter-spacing: 0em;
      }

      .cls-22 {
        font-size: 34.15px;
      }

      .cls-22, .cls-23, .cls-24, .cls-25 {
        font-family: Futura-Medium, Futura;
        font-weight: 500;
      }

      .cls-26 {
        letter-spacing: 0em;
      }

      .cls-27 {
        fill: #fff;
      }

      .cls-28 {
        letter-spacing: 0em;
      }

      .cls-23 {
        font-size: 38.48px;
      }

      .cls-13 {
        stroke-width: 2px;
      }

      .cls-29 {
        letter-spacing: -.09em;
      }

      .cls-30 {
        letter-spacing: 0em;
      }

      .cls-31 {
        letter-spacing: 0em;
      }

      .cls-32 {
        letter-spacing: .02em;
      }

      .cls-14 {
        stroke-width: 1.88px;
      }

      .cls-33 {
        letter-spacing: 0em;
      }

      .cls-34 {
        letter-spacing: 0em;
      }

      .cls-35 {
        letter-spacing: 0em;
      }

      .cls-36 {
        letter-spacing: -.08em;
      }

      .cls-37 {
        letter-spacing: -.08em;
      }

      .cls-38 {
        letter-spacing: 0em;
      }

      .cls-39 {
        letter-spacing: 0em;
      }

      .cls-40 {
        letter-spacing: -.06em;
      }

      .cls-41 {
        letter-spacing: .02em;
      }

      .cls-42 {
        letter-spacing: .02em;
      }

      .cls-43 {
        letter-spacing: .02em;
      }

      .cls-24 {
        font-size: 21.3px;
      }

      .cls-15 {
        stroke-width: 1.58px;
      }

      .cls-44 {
        letter-spacing: 0em;
      }

      .cls-45 {
        letter-spacing: -.1em;
      }

      .cls-16 {
        stroke-width: 10px;
      }

      .cls-46 {
        letter-spacing: -.09em;
      }

      .cls-47 {
        letter-spacing: -.02em;
      }

      .cls-48 {
        letter-spacing: 0em;
      }

      .cls-49 {
        letter-spacing: 0em;
      }

      .cls-50 {
        letter-spacing: 0em;
      }

      .cls-51 {
        letter-spacing: 0em;
      }

      .cls-52 {
        letter-spacing: -.02em;
      }

      .cls-25 {
        font-size: 32.96px;
      }

      .cls-53 {
        letter-spacing: -.07em;
      }

      .cls-54 {
        letter-spacing: -.03em;
      }

      .cls-55 {
        letter-spacing: 0em;
      }

      .cls-17 {
        fill: none;
        stroke-width: 2.8px;
      }

      .cls-56 {
        letter-spacing: 0em;
      }
    </style>
  </defs>
  <g id="Layer_1-2" data-name="Layer 1">
    <g>
      <path class="cls-11" d="m67.74,34.04s-9.95-.54-15.1,3.07-8,8.04-9.69,13.45c0,0-1.36.04-1.58.33l-4.58,19.26s-.1.18.17.46c-.32.51-.68,1.22-.96,2.11-.3.96-.38,1.81-.4,2.43.08.3.15.61.23.91.82,3.27,1.58,6.52,2.29,9.75.03.13.06.33.07.57.03.57-.09,1-.12,1.15-.1.42-.2,1.08-.14,2.11,0,0,.21.76.94.77,0,0,3.04.61,4.35.62.89.1,2.17.17,3.71-.02.67-.08,1.14-.18,2.08-.39,1.83-.4,3.19-.81,5.2-1.41,1.3-.39,1.95-.59,2.83-.9.3-.11.89-.32,2.17-.77.36-.13.66-.23.74-.26,1.86-.68,4.31-1.67,7.15-3.05,1.3-.51,2.61-1.03,3.91-1.54,0,0,3.11-1,4.24-1.07,0,0,4.64-.84,4.79-.94l3.93-.81s1.33-.2,1.53-1.59c1.06-2.06,2.12-4.12,3.18-6.18l.84-2.29,1.09-3.17c.49-1.45.97-3.28,1.2-5.43.17-1.57.18-2.99.12-4.2,0,0,.05-5.57-4.36-12.08-.68-1.01-3.93-5.53-9.42-8.21-1.91-.93-3.79-1.49-4.35-1.65-2.39-.69-4.48-.94-6.04-1.04Z"/>
      <path class="cls-12" d="m76.23,49.89c-2.8.81-5.6,1.62-8.4,2.43,0,0-15.79-2.43-25.17-1.76,0,0-1.42.06-1.59.33l-4.61,19.26s-.08.24.17.46c0,0,.33.28.72.42,0,0,.85.35,1.37.4l.42.08.37.06.42.05.52.05.48.04.61.03.84.03h.52s.89,0,.89,0l.92-.02.84-.03.88-.05.81-.06h.43s1.15-.05,1.15-.05l1.26-.05,1.09-.05,1.13-.06,1.47-.09,1.39-.1.83-.07,14.44-2.96,2.43-.5,3.93-11.89,1.52-1.89c1.16-.58,1.6-2.03.99-3.12-.58-1.05-1.95-1.46-3.05-.88Z"/>
      <g>
        <g>
          <path class="cls-10" d="m60.92,117s-2.35,7.73-20.9,7.18c0,0,14.21-8.83,20.9-7.18Z"/>
          <path class="cls-10" d="m24.63,116.03s17.18,6.97,22.91-.28c0,0-5.52-4.07-22.91.28Z"/>
          <path class="cls-10" d="m35.11,98.44s1.17,13.72,10.28,15.59c0,0,4.35-1.58-10.28-15.59Z"/>
          <path class="cls-10" d="m12.55,102.99s13.04,11.94,21.66,6.55c0,0-2.9-6.14-21.66-6.55Z"/>
          <path class="cls-10" d="m26.77,88.3s-1.86,15.54,6.28,18.67c0,0,3.31-5.01-6.28-18.67Z"/>
          <path class="cls-10" d="m4.69,87.26s9.38,14.97,18.35,12c0,0-2.28-7.93-18.35-12Z"/>
          <path class="cls-10" d="m21.73,75.81s-6.49,14.49,1.31,20.28c0,0,3.45-5.86-1.31-20.28Z"/>
          <path class="cls-10" d="m.48,69.74s5.52,16.01,14.28,16.21c0,0,.13-10.35-14.28-16.21Z"/>
          <path class="cls-10" d="m19.66,63.53s-9.18,9.66-4.07,19.18c0,0,5.24-4.55,4.07-19.18Z"/>
          <path class="cls-10" d="m1.58,53.32c-.11,1.44-.63,10.27,5.48,15.28.91.75,2.14,1.55,3.76,2.17.4-1.44.5-2.72.46-3.79-.29-7.99-8.49-12.95-9.71-13.66Z"/>
          <path class="cls-10" d="m20.85,50.56s-10.99,7.31-8.23,17.8c0,0,8.45-9.8,8.23-17.8Z"/>
          <path class="cls-10" d="m6.58,37.36s-2.7,17.68,4.4,18.34c.63-1.46,1.41-3.82,1.3-6.75-.24-6.52-4.67-10.67-5.7-11.59Z"/>
          <path class="cls-10" d="m25.53,39.14s-12.86,4.38-12.64,14.36c0,0,8-3.69,12.64-14.36Z"/>
          <path class="cls-10" d="m14.8,23.43s-6.17,11.87-.62,18.56c.94-1.02,1.58-2.04,2.03-2.95,3.31-6.71-.68-14.27-1.41-15.61Z"/>
          <path class="cls-10" d="m31.7,30.02s-11.69.79-14.91,10.12c0,0,8.73-2.46,14.91-10.12Z"/>
          <path class="cls-10" d="m25.88,13.59s-8.85,7.66-5.41,16.43c0,0,8.28-4.96,5.41-16.43Z"/>
          <path class="cls-10" d="m39.77,23.71s-9.86-2.99-16.69,5.2c0,0,9.31.25,16.69-5.2Z"/>
          <path class="cls-10" d="m38.91,7.81s-11.19,4.92-8.89,13.15c0,0,8.32-3.81,8.89-13.15Z"/>
          <path class="cls-10" d="m49.4,20.19s-9.35-5.6-16.51.29c0,0,6.39,2.46,16.51-.29Z"/>
          <path class="cls-10" d="m52.06,6.3s-11.39,1.27-11.6,8.4c0,0,6.68,1.32,11.6-8.4Z"/>
          <path class="cls-10" d="m46,105.95s3.87,12.42,13.34,9.9c0,0,.19-5.59-13.34-9.9Z"/>
        </g>
        <g>
          <path class="cls-10" d="m63.77,117.13s2.35,7.73,20.9,7.18c0,0-14.21-8.83-20.9-7.18Z"/>
          <path class="cls-10" d="m100.06,116.17s-17.18,6.97-22.91-.28c0,0,5.52-4.07,22.91.28Z"/>
          <path class="cls-10" d="m89.58,98.57s-1.17,13.72-10.28,15.59c0,0-4.35-1.58,10.28-15.59Z"/>
          <path class="cls-10" d="m112.14,103.13s-13.04,11.94-21.66,6.55c0,0,2.9-6.14,21.66-6.55Z"/>
          <path class="cls-10" d="m97.92,88.43s1.86,15.54-6.28,18.67c0,0-3.31-5.01,6.28-18.67Z"/>
          <path class="cls-10" d="m120,87.4s-9.38,14.97-18.35,12c0,0,2.28-7.93,18.35-12Z"/>
          <path class="cls-10" d="m102.96,75.94s6.49,14.49-1.31,20.28c0,0-3.45-5.86,1.31-20.28Z"/>
          <path class="cls-10" d="m124.21,69.87s-5.52,16.01-14.28,16.21c0,0-.13-10.35,14.28-16.21Z"/>
          <path class="cls-10" d="m105.03,63.66s9.18,9.66,4.07,19.18c0,0-5.24-4.55-4.07-19.18Z"/>
          <path class="cls-10" d="m123.11,53.45c.11,1.44.63,10.27-5.48,15.28-.91.75-2.14,1.55-3.76,2.17-.4-1.44-.5-2.72-.46-3.79.29-7.99,8.49-12.95,9.71-13.66Z"/>
          <path class="cls-10" d="m103.84,50.69s10.99,7.31,8.23,17.8c0,0-8.45-9.8-8.23-17.8Z"/>
          <path class="cls-10" d="m118.11,37.5s2.7,17.68-4.4,18.34c-.63-1.46-1.41-3.82-1.3-6.75.24-6.52,4.67-10.67,5.7-11.59Z"/>
          <path class="cls-10" d="m99.15,39.27s12.86,4.38,12.64,14.36c0,0-8-3.69-12.64-14.36Z"/>
          <path class="cls-10" d="m109.89,23.56s6.17,11.87.62,18.56c-.94-1.02-1.58-2.04-2.03-2.95-3.31-6.71.68-14.27,1.41-15.61Z"/>
          <path class="cls-10" d="m92.99,30.16s11.69.79,14.91,10.12c0,0-8.73-2.46-14.91-10.12Z"/>
          <path class="cls-10" d="m98.81,13.73s8.85,7.66,5.41,16.43c0,0-8.28-4.96-5.41-16.43Z"/>
          <path class="cls-10" d="m84.92,23.85s9.86-2.99,16.69,5.2c0,0-9.31.25-16.69-5.2Z"/>
          <path class="cls-10" d="m85.78,7.95s11.19,4.92,8.89,13.15c0,0-8.32-3.81-8.89-13.15Z"/>
          <path class="cls-10" d="m75.29,20.32s9.35-5.6,16.51.29c0,0-6.39,2.46-16.51-.29Z"/>
          <path class="cls-10" d="m72.63,6.43s11.39,1.27,11.6,8.4c0,0-6.68,1.32-11.6-8.4Z"/>
          <path class="cls-10" d="m78.69,106.08s-3.87,12.42-13.34,9.9c0,0-.19-5.59,13.34-9.9Z"/>
        </g>
      </g>
      <circle class="cls-27" cx="77.18" cy="51.89" r="1.4"/>
    </g>
    <rect class="cls-13" x="47.86" y="198.41" width="809.22" height="447.94" rx="70" ry="70"/>
    <g>
      <rect class="cls-9" x="1218.49" y="181.84" width="541.5" height="223.97" rx="70" ry="70"/>
      <text class="cls-22" transform="translate(1355.88 238.49)"><tspan x="0" y="0">P</tspan><tspan class="cls-31" x="18.44" y="0">r</tspan><tspan x="30.98" y="0">actice 1 </tspan><tspan class="cls-47" x="162.88" y="0">R</tspan><tspan x="182.89" y="0" xml:space="preserve">esults      </tspan></text>
      <text class="cls-25" transform="translate(1262.84 284.99)"><tspan x="0" y="0">P1: Max </tspan><tspan class="cls-40" x="138.51" y="0">V</tspan><tspan class="cls-8" x="158.92" y="0">ers</tspan><tspan class="cls-39" x="202.86" y="0">t</tspan><tspan class="cls-8" x="212.16" y="0">appen : 1:</tspan><tspan class="cls-5" x="368.8" y="0">1</tspan><tspan x="386.54" y="0" xml:space="preserve">2:008     </tspan></text>
      <text class="cls-25" transform="translate(1262.84 329.92)"><tspan x="0" y="0" xml:space="preserve">P2: Max Emilian       : 1:</tspan><tspan class="cls-4" x="367.75" y="0">1</tspan><tspan x="385.73" y="0" xml:space="preserve">3:008     </tspan></text>
      <text class="cls-25" transform="translate(1259.86 380.44)"><tspan x="0" y="0">P3: </tspan><tspan class="cls-40" x="58.49" y="0">V</tspan><tspan class="cls-8" x="78.9" y="0">ers</tspan><tspan class="cls-39" x="122.84" y="0">t</tspan><tspan x="132.14" y="0" xml:space="preserve">appen         : 1:</tspan><tspan class="cls-5" x="370.15" y="0">1</tspan><tspan class="cls-8" x="387.89" y="0" xml:space="preserve">4:008     </tspan></text>
    </g>
    <text class="cls-23" transform="translate(235.46 264.21)"><tspan x="0" y="0">Canada GP: June </tspan><tspan class="cls-29" x="320.19" y="0">1</tspan><tspan x="340.56" y="0">6-</tspan><tspan class="cls-36" x="372.69" y="0">1</tspan><tspan x="393.55" y="0" xml:space="preserve">8      </tspan></text>
    <g>
      <path class="cls-17" d="m514.26,483.12c-.66.43-1.28.98-1.28.98-1.68,1.44-4.15,4.33-5.22,10-4.13,21.89-31.86,14.84-49.61,8.51,0,0-58.61-19.7-88.53-40.37,0,0-42.56-29.43-56.67-44.75,0,0-2.19-3.89,1.7-7.05,0,0,4.86-14.35-6.57-22.38,0,0-60.07-53.02-96.55-66.64-36.48-13.62-58.13-14.59-58.13-14.59,0,0-10.86-3.24-4.7-10.62,6.16-7.38,26.51,4.78,26.51,4.78,0,0,22.05,5.03,38.02,2.11,15.97-2.92,85.77,5.19,85.77,5.19,0,0,24.97,2.59,35.02,6.16,10.05,3.57,184.43,41.73,184.43,41.73,0,0,6.32-.7,5.53,6.65-.79,7.36,8.82,7.11,8.82,7.11l120.96,26.55s40.05,6.97,70.69,32.43c0,0,6,6.97,12.32-2.76,0,0,8.43-10.86,16.38-6.16,0,0,11.19,3.4,0,20.92,0,0-17.84,31.29-76.85,52.53,0,0-7.94,4.54-14.43-3.73-6.49-8.27-18-2.92-18-2.92l-30,7.94s-8.43,1.78-15.08,8.27c-4.18,1.88-9.94,3.8-16.86,4.05-29.4,1.08-60.5-28.67-67.68-23.94Z"/>
      <polygon class="cls-15" points="649.59 376.34 666.45 386.58 646.44 383.64 649.59 376.34"/>
    </g>
    <text class="cls-24" transform="translate(335.94 608.93)"><tspan x="0" y="0">Ci</tspan><tspan class="cls-42" x="20.23" y="0">r</tspan><tspan class="cls-44" x="28.52" y="0">uit Leng</tspan><tspan class="cls-32" x="103.49" y="0">t</tspan><tspan x="109.74" y="0">h:4.3</tspan><tspan class="cls-45" x="160.86" y="0">6</tspan><tspan class="cls-28" x="171.9" y="0" xml:space="preserve">1km     </tspan></text>
    <text class="cls-24" transform="translate(107.47 608.93)"><tspan class="cls-19" x="0" y="0">N</tspan><tspan x="18.22" y="0" xml:space="preserve">umber of Laps: 70     </tspan></text>
    <text class="cls-24" transform="translate(582.42 608.93)"><tspan class="cls-52" x="0" y="0">R</tspan><tspan x="12.46" y="0">ace Dis</tspan><tspan class="cls-38" x="83.16" y="0">t</tspan><tspan x="89.17" y="0">ance:305.</tspan><tspan class="cls-54" x="188.15" y="0">2</tspan><tspan x="200.74" y="0" xml:space="preserve">7km     </tspan></text>
    <g>
      <rect class="cls-9" x="1218.49" y="783.55" width="541.5" height="223.97" rx="70" ry="70"/>
      <text class="cls-22" transform="translate(1305.58 835.72)"><tspan class="cls-49" x="0" y="0">F</tspan><tspan class="cls-43" x="17.02" y="0">r</tspan><tspan class="cls-2" x="30.31" y="0">i </tspan><tspan class="cls-46" x="49.35" y="0">1</tspan><tspan x="67.43" y="0">6 - Sun </tspan><tspan class="cls-37" x="184.79" y="0">1</tspan><tspan class="cls-55" x="203.3" y="0" xml:space="preserve">8 Jun 2023      </tspan></text>
      <text class="cls-25" transform="translate(1264.32 895.54)"><tspan x="0" y="0">P</tspan><tspan class="cls-30" x="17.8" y="0">r</tspan><tspan x="29.9" y="0">actice 1 </tspan><tspan class="cls-48" x="157.23" y="0">F</tspan><tspan class="cls-41" x="173.67" y="0">r</tspan><tspan x="186.49" y="0" xml:space="preserve">i    </tspan><tspan class="cls-5" x="235.39" y="0">1</tspan><tspan class="cls-8" x="253.13" y="0">2:00 - </tspan><tspan class="cls-3" x="351.85" y="0">1</tspan><tspan class="cls-8" x="369.83" y="0" xml:space="preserve">3:30     </tspan></text>
      <text class="cls-25" transform="translate(1262.84 938.35)"><tspan x="0" y="0">P</tspan><tspan class="cls-30" x="17.8" y="0">r</tspan><tspan x="29.9" y="0">actice 1 </tspan><tspan class="cls-48" x="157.23" y="0">F</tspan><tspan class="cls-41" x="173.67" y="0">r</tspan><tspan x="186.49" y="0" xml:space="preserve">i    </tspan><tspan class="cls-5" x="235.39" y="0">1</tspan><tspan class="cls-8" x="253.13" y="0">2:00 - </tspan><tspan class="cls-3" x="351.85" y="0">1</tspan><tspan class="cls-8" x="369.83" y="0" xml:space="preserve">3:30     </tspan></text>
      <text class="cls-25" transform="translate(1262.84 973.13)"><tspan x="0" y="0">P</tspan><tspan class="cls-30" x="17.8" y="0">r</tspan><tspan x="29.9" y="0">actice 1 </tspan><tspan class="cls-48" x="157.23" y="0">F</tspan><tspan class="cls-41" x="173.67" y="0">r</tspan><tspan x="186.49" y="0" xml:space="preserve">i    </tspan><tspan class="cls-5" x="235.39" y="0">1</tspan><tspan class="cls-8" x="253.13" y="0">2:00 - </tspan><tspan class="cls-3" x="351.85" y="0">1</tspan><tspan class="cls-8" x="369.83" y="0" xml:space="preserve">3:30     </tspan></text>
    </g>
    <line class="cls-16" x1="947.55" x2="947.55" y2="1079.41"/>
    <text class="cls-18" transform="translate(169.51 89.25)"><tspan class="cls-35" x="0" y="0">S</tspan><tspan x="22.45" y="0">chedule</tspan></text>
    <text class="cls-18" transform="translate(396.02 89.25)"><tspan class="cls-21" x="0" y="0">R</tspan><tspan class="cls-51" x="24.38" y="0">esults</tspan></text>
    <text class="cls-18" transform="translate(601.69 90.56)"><tspan class="cls-1" x="0" y="0">R</tspan><tspan class="cls-51" x="24.74" y="0">a</tspan><tspan class="cls-26" x="46.43" y="0">c</tspan><tspan class="cls-51" x="66.31" y="0">ers</tspan></text>
    <text class="cls-18" transform="translate(775.11 90.56)"><tspan class="cls-53" x="0" y="0">T</tspan><tspan x="19.17" y="0">eams</tspan></text>
    <rect class="cls-14" x="13.2" y="688.57" width="878.54" height="363.37" rx="70" ry="70"/>
    <g>
      <rect class="cls-9" x="1218.49" y="496.95" width="541.5" height="223.97" rx="70" ry="70"/>
      <text class="cls-22" transform="translate(1305.58 549.11)"><tspan class="cls-49" x="0" y="0">F</tspan><tspan class="cls-43" x="17.02" y="0">r</tspan><tspan class="cls-2" x="30.31" y="0">i </tspan><tspan class="cls-46" x="49.35" y="0">1</tspan><tspan x="67.43" y="0">6 - Sun </tspan><tspan class="cls-37" x="184.79" y="0">1</tspan><tspan class="cls-55" x="203.3" y="0" xml:space="preserve">8 Jun 2023      </tspan></text>
      <text class="cls-25" transform="translate(1264.32 608.93)"><tspan x="0" y="0">P</tspan><tspan class="cls-30" x="17.8" y="0">r</tspan><tspan x="29.9" y="0">actice 1 </tspan><tspan class="cls-48" x="157.23" y="0">F</tspan><tspan class="cls-41" x="173.67" y="0">r</tspan><tspan x="186.49" y="0" xml:space="preserve">i    </tspan><tspan class="cls-5" x="235.39" y="0">1</tspan><tspan class="cls-8" x="253.13" y="0">2:00 - </tspan><tspan class="cls-3" x="351.85" y="0">1</tspan><tspan class="cls-8" x="369.83" y="0" xml:space="preserve">3:30     </tspan></text>
      <text class="cls-25" transform="translate(1262.84 651.75)"><tspan x="0" y="0">P</tspan><tspan class="cls-30" x="17.8" y="0">r</tspan><tspan x="29.9" y="0">actice 1 </tspan><tspan class="cls-48" x="157.23" y="0">F</tspan><tspan class="cls-41" x="173.67" y="0">r</tspan><tspan x="186.49" y="0" xml:space="preserve">i    </tspan><tspan class="cls-5" x="235.39" y="0">1</tspan><tspan class="cls-8" x="253.13" y="0">2:00 - </tspan><tspan class="cls-3" x="351.85" y="0">1</tspan><tspan class="cls-8" x="369.83" y="0" xml:space="preserve">3:30     </tspan></text>
      <text class="cls-25" transform="translate(1262.84 686.53)"><tspan x="0" y="0">P</tspan><tspan class="cls-30" x="17.8" y="0">r</tspan><tspan x="29.9" y="0">actice 1 </tspan><tspan class="cls-48" x="157.23" y="0">F</tspan><tspan class="cls-41" x="173.67" y="0">r</tspan><tspan x="186.49" y="0" xml:space="preserve">i    </tspan><tspan class="cls-5" x="235.39" y="0">1</tspan><tspan class="cls-8" x="253.13" y="0">2:00 - </tspan><tspan class="cls-3" x="351.85" y="0">1</tspan><tspan class="cls-8" x="369.83" y="0" xml:space="preserve">3:30     </tspan></text>
    </g>
    <text class="cls-18" transform="translate(1702.48 89.25)"><tspan class="cls-7" x="0" y="0">A</tspan><tspan x="27.4" y="0">bout </tspan><tspan class="cls-34" x="126.91" y="0">U</tspan><tspan x="155.75" y="0">s</tspan></text>
    <text class="cls-18" transform="translate(1267.3 91.14)"><tspan class="cls-7" x="0" y="0">A</tspan><tspan class="cls-50" x="27.4" y="0">r</tspan><tspan x="41.66" y="0">chi</tspan><tspan class="cls-50" x="97.31" y="0">v</tspan><tspan class="cls-51" x="118.5" y="0">e </tspan></text>
    <text class="cls-18" transform="translate(987.8 89.75)"><tspan class="cls-21" x="0" y="0">R</tspan><tspan class="cls-51" x="24.38" y="0">e</tspan><tspan class="cls-33" x="46.92" y="0">c</tspan><tspan class="cls-56" x="66.81" y="0">o</tspan><tspan class="cls-6" x="91.51" y="0">r</tspan><tspan x="105.77" y="0">d </tspan><tspan class="cls-20" x="140.68" y="0">B</tspan><tspan x="165.24" y="0">ook</tspan></text>
  </g>
</svg>