<?xml version="1.0" encoding="UTF-8"?>
<svg id="Layer_2" data-name="Layer 2" xmlns="http://www.w3.org/2000/svg" viewBox="0 0 177.61 149.48">
  <defs>
    <style>
      .cls-1 {
        fill: #f6f1de;
      }

      .cls-2, .cls-3 {
        fill: #e6e6e6;
        stroke: #000;
        stroke-miterlimit: 10;
        stroke-width: 2px;
      }

      .cls-3 {
        opacity: .61;
      }
    </style>
  </defs>
  <g id="Layer_1-2" data-name="Layer 1">
    <path class="cls-2" d="m83.02,85.49c0,2.59-.71,5.02-1.96,7.09H3.11c-1.34-2.07-2.11-4.49-2.11-7.08,0-7.06,5.74-12.88,13.15-13.73,3.17-5.54,9.15-9.27,15.99-9.27,2.76,0,5.37.61,7.72,1.69,3.6-5.17,9.77-7.84,15.74-6.8,6.91,1.2,12.33,7.15,13.02,14.52.84-.17,1.71-.25,2.59-.25,7.63,0,13.82,6.19,13.82,13.83Z"/>
    <g>
      <path class="cls-1" d="m105.48,148.48c-40.77,0-73.94-33.17-73.94-73.94C31.54,37.67,58.32,6.82,94.38,1.42c-16.24,14.15-25.49,34.38-25.49,56.04,0,41,33.35,74.35,74.35,74.35,3.27,0,6.54-.21,9.77-.64-13.31,11.18-30.05,17.3-47.53,17.3Z"/>
      <path d="m91.17,3c-14.87,14.19-23.27,33.68-23.27,54.46,0,41.55,33.8,75.35,75.35,75.35,2.16,0,4.32-.09,6.47-.27-12.67,9.68-28.14,14.94-44.24,14.94-40.22,0-72.94-32.72-72.94-72.94,0-18.15,6.71-35.55,18.9-48.99,10.57-11.66,24.49-19.51,39.73-22.55m6.49-3C59.95,3.91,30.54,35.79,30.54,74.54c0,41.39,33.55,74.94,74.94,74.94,19.58,0,37.41-7.51,50.76-19.81-4.22.75-8.56,1.15-13,1.15-40.51,0-73.35-32.84-73.35-73.35,0-23.28,10.85-44.02,27.76-57.46h0Z"/>
    </g>
    <path class="cls-3" d="m133.42,119.44c0,3.18-.88,6.16-2.4,8.71H35.22c-1.65-2.54-2.6-5.52-2.6-8.7,0-8.68,7.05-15.83,16.16-16.87,3.9-6.81,11.24-11.39,19.65-11.39,3.39,0,6.6.75,9.48,2.08,4.43-6.35,12.01-9.63,19.34-8.36,8.49,1.47,15.16,8.79,16,17.84,1.03-.2,2.1-.31,3.18-.31,9.38,0,16.99,7.61,16.99,16.99Z"/>
    <path class="cls-2" d="m176.61,47.19c0,3.06-.84,5.93-2.31,8.39h-92.19c-1.59-2.45-2.5-5.31-2.5-8.37,0-8.35,6.79-15.24,15.55-16.23,3.75-6.55,10.82-10.96,18.91-10.96,3.26,0,6.35.72,9.13,2,4.26-6.11,11.55-9.27,18.61-8.04,8.17,1.42,14.59,8.45,15.4,17.17.99-.2,2.02-.29,3.06-.29,9.03,0,16.35,7.32,16.35,16.35Z"/>
  </g>
</svg>