<?xml version="1.0" encoding="UTF-8"?>
<svg id="Layer_2" data-name="Layer 2" xmlns="http://www.w3.org/2000/svg" viewBox="0 0 1387.5 998.58">
  <defs>
    <style>
      .cls-1, .cls-2, .cls-3, .cls-4, .cls-5, .cls-6, .cls-7, .cls-8, .cls-9, .cls-10, .cls-11, .cls-12, .cls-13, .cls-14, .cls-15 {
        stroke-miterlimit: 10;
      }

      .cls-1, .cls-2, .cls-3, .cls-4, .cls-5, .cls-6, .cls-7, .cls-8, .cls-10, .cls-13, .cls-14, .cls-15 {
        fill: none;
      }

      .cls-1, .cls-5, .cls-6, .cls-7, .cls-8, .cls-10, .cls-13, .cls-14 {
        stroke-linecap: round;
      }

      .cls-1, .cls-6 {
        stroke-width: 8px;
      }

      .cls-1, .cls-6, .cls-7, .cls-9, .cls-10, .cls-11, .cls-12, .cls-15 {
        stroke: #000;
      }

      .cls-1, .cls-14 {
        stroke-dasharray: 0 14.92;
      }

      .cls-2 {
        stroke: #00a6ff;
      }

      .cls-2, .cls-3, .cls-4 {
        stroke-width: 6px;
      }

      .cls-3 {
        stroke: #ffd600;
      }

      .cls-4 {
        stroke: red;
      }

      .cls-5, .cls-6, .cls-7, .cls-8 {
        stroke-dasharray: 0 12.77;
      }

      .cls-5, .cls-8, .cls-13, .cls-14 {
        stroke: lime;
      }

      .cls-5, .cls-13 {
        stroke-width: 3.93px;
      }

      .cls-16 {
        fill: #fff;
      }

      .cls-17, .cls-12 {
        fill: #ff73cb;
      }

      .cls-18, .cls-11 {
        fill: #0df400;
      }

      .cls-7, .cls-10 {
        stroke-width: 7.86px;
      }

      .cls-8, .cls-14 {
        stroke-width: 4px;
      }

      .cls-9 {
        stroke-width: 9px;
      }

      .cls-10, .cls-13 {
        stroke-dasharray: 0 14.29;
      }

      .cls-11, .cls-12 {
        stroke-width: 3px;
      }

      .cls-19 {
        font-family: Poppins-Bold, Poppins;
        font-size: 18px;
        font-weight: 700;
      }

      .cls-15 {
        stroke-width: 18px;
      }
    </style>
  </defs>
  <g id="Layer_1-2" data-name="Layer 1">
    <g>
      <g>
        <path class="cls-10" d="m773.55,469.37c-22.73,3.03-90.1,8.62-156.26-33.57-44.98-28.68-69.76-66.52-81.32-87.29-11.86-24.54-20-45.06-25.23-59.21-7.03-19.01-8.95-26.94-15.18-41.84"/>
        <path class="cls-7" d="m785.99,468.25s35.29-5.05,63.3-4.89"/>
      </g>
      <g>
        <path class="cls-13" d="m773.55,469.37c-22.73,3.03-90.1,8.62-156.26-33.57-44.98-28.68-69.76-66.52-81.32-87.29-11.86-24.54-20-45.06-25.23-59.21-7.03-19.01-8.95-26.94-15.18-41.84"/>
        <path class="cls-5" d="m785.99,468.25s35.29-5.05,63.3-4.89"/>
      </g>
    </g>
    <circle class="cls-9" cx="107.53" cy="194.86" r="8.23"/>
    <g>
      <path class="cls-15" d="m67.75,256h0c-10.37,29.28-20.79,49.44-24.74,57.53-5.83,11.93-13.18,29.54-19.54,54.11-.73,2.83-1.31,5.71-1.73,8.61-3.62,24.93-7.23,49.85-10.85,74.78-.28,1.95-.63,3.89-1.05,5.82-.81,3.73-1.53,9.94.4,17.15,2.22,8.31,6.81,13.66,9.1,16.02l82.84,76.83c.42.39.85.76,1.29,1.13,2.88,2.4,13.26,11.98,12.26,25.42-.21,2.79-.87,5.27-1.69,7.36-.72,1.85-1.71,3.58-2.84,5.22l-32.89,47.38c-1.95,2.81-3.43,5.95-4.16,9.29-3.67,16.68,12.52,21.2,16.67,22.08.8.17,1.57.37,2.35.61,63.58,19.54,145.29,36.74,240.68,37.68,34.65.34,67.04-1.51,96.85-4.69,74.86-8.09,92.4,49.93,94.12,56.4.04.14.16.65.38,1.32,2.58,8.03,9.32,12.56,11.35,13.81,5.72,3.53,11.34,4.07,14.19,4.13h237.63"/>
      <path class="cls-15" d="m67.75,256c1.73-4.79,4.18-12.21,6.24-21.5,4.53-20.43,1.69-25.14,5.48-31.62,7.72-13.21,27.25-1.58,57.73-14.54,7.99-3.4,13.35-6.97,24.09-14.12,20.03-13.34,25.75-21.31,36.96-29.49,23.11-16.86,48.6-19.24,59.39-20.35,32.91-3.39,59.97,6.81,75.63,14.56,19.29,9.54,32.56,17.5,53.61,32.88,17.08,12.48,39.67,30.53,64.21,55.17,8.51,11.16,20.88,28.99,32.32,52.94,7.15,14.97,9.48,22.97,17.63,42.09,6.07,14.24,15.46,34.86,28.97,59.46,13.06,20.76,40.84,58.49,89.94,86.26,72.21,40.84,144.14,33.04,168.38,29.24"/>
      <path class="cls-15" d="m788.33,496.98s37.62-6.24,67.6-6.96c0,0,14.99,1.21,27.56-19.1l30.46-42.07s5.8-12.09,31.92-10.64l134.43-13.06s57.54-10.88,125.24,33.12l141.69,75.92,20.31,12.09s24.66,7.25,0,34.82c0,0-55.61,88.49-61.9,109.29,0,0-18.86,42.55-70.6,20.31l-99.62-23.69c-4.05-.47-9.96-.49-15.13,2.78-26.22,16.62,8.86,91.58-20.96,116.61-4.34,3.64-12.22,8.04-26.92,7.59h-284.09"/>
    </g>
    <circle class="cls-9" cx="1166.72" cy="673.99" r="8.23"/>
    <circle class="cls-9" cx="589.66" cy="794.03" r="8.23"/>
    <g>
      <path class="cls-4" d="m67.75,255.73h0c-10.37,29.28-20.79,49.44-24.74,57.53-5.83,11.93-13.18,29.54-19.54,54.11-.73,2.83-1.31,5.71-1.73,8.61-3.62,24.93-7.23,49.85-10.85,74.78-.28,1.95-.63,3.89-1.05,5.82-.81,3.73-1.53,9.94.4,17.15,2.22,8.31,6.81,13.66,9.1,16.02l82.84,76.83c.42.39.85.76,1.29,1.13,2.88,2.4,13.26,11.98,12.26,25.42-.21,2.79-.87,5.27-1.69,7.36-.72,1.85-1.71,3.58-2.84,5.22l-32.89,47.38c-1.95,2.81-3.43,5.95-4.16,9.29-3.67,16.68,12.52,21.2,16.67,22.08.8.17,1.57.37,2.35.61,63.58,19.54,145.29,36.74,240.68,37.68,34.65.34,67.04-1.51,96.85-4.69,74.86-8.09,92.4,49.93,94.12,56.4.04.14.16.65.38,1.32,2.58,8.03,9.32,12.56,11.35,13.81,5.72,3.53,11.34,4.07,14.19,4.13h237.63"/>
      <path class="cls-2" d="m67.75,255.73c1.73-4.79,4.18-12.21,6.24-21.5,4.53-20.43,1.69-25.14,5.48-31.62,7.72-13.21,27.25-1.58,57.73-14.54,7.99-3.4,13.35-6.97,24.09-14.12,20.03-13.34,25.75-21.31,36.96-29.49,23.11-16.86,48.6-19.24,59.39-20.35,32.91-3.39,59.97,6.81,75.63,14.56,19.29,9.54,32.56,17.5,53.61,32.88,17.08,12.48,39.67,30.53,64.21,55.17,8.51,11.16,20.88,28.99,32.32,52.94,7.15,14.97,9.48,22.97,17.63,42.09,6.07,14.24,15.46,34.86,28.97,59.46,13.06,20.76,40.84,58.49,89.94,86.26,72.21,40.84,144.14,33.04,168.38,29.24"/>
      <path class="cls-3" d="m788.33,496.71s37.62-6.24,67.6-6.96c0,0,14.99,1.21,27.56-19.1l30.46-42.07s5.8-12.09,31.92-10.64l134.43-13.06s57.54-10.88,125.24,33.12l141.69,75.92,20.31,12.09s24.66,7.25,0,34.82c0,0-55.61,88.49-61.9,109.29,0,0-18.86,42.55-70.6,20.31l-99.62-23.69c-4.05-.47-9.96-.49-15.13,2.78-26.22,16.62,8.86,91.58-20.96,116.61-4.34,3.64-12.22,8.04-26.92,7.59h-284.09"/>
    </g>
    <g>
      <path class="cls-1" d="m99.43,715.17c.8.17,1.57.37,2.35.61,63.58,19.54,145.29,36.74,240.68,37.68,34.65.34,67.04-1.51,96.85-4.69"/>
      <path class="cls-14" d="m99.43,715.17c.8.17,1.57.37,2.35.61,63.58,19.54,145.29,36.74,240.68,37.68,34.65.34,67.04-1.51,96.85-4.69"/>
    </g>
    <g>
      <path class="cls-6" d="m1369.52,500.18l-20.31-12.09-141.69-75.92c-67.7-44-125.24-33.12-125.24-33.12l-87.43,8.49"/>
      <path class="cls-8" d="m1369.52,500.18l-20.31-12.09-141.69-75.92c-67.7-44-125.24-33.12-125.24-33.12l-87.43,8.49"/>
    </g>
    <circle class="cls-17" cx="589.66" cy="794.03" r="8.23"/>
    <circle class="cls-18" cx="1166.72" cy="673.99" r="8.23"/>
    <circle class="cls-18" cx="107.53" cy="194.86" r="8.23"/>
    <g>
      <g>
        <path class="cls-1" d="m567.25,818.08h235.1"/>
        <path class="cls-1" d="m802.35,818.08h281.07"/>
      </g>
      <g>
        <path class="cls-14" d="m567.25,818.08h235.1"/>
        <path class="cls-14" d="m802.35,818.08h281.07"/>
      </g>
    </g>
    <rect class="cls-11" x="1160.72" y="700.15" width="12" height="100" rx="6" ry="6"/>
    <rect class="cls-11" x="101.53" y="97.15" width="12" height="75" rx="6" ry="6"/>
    <rect class="cls-12" x="583.66" y="830.19" width="12" height="75" rx="6" ry="6"/>
    <rect class="cls-11" x="1106.72" y="818.08" width="120" height="85" rx="12" ry="12"/>
    <text class="cls-19" transform="translate(1148.77 845.16)"><tspan x="0" y="0">DRS</tspan><tspan x="-26.89" y="21.6">Detection</tspan><tspan x="-11.81" y="43.2">Zone 2</tspan></text>
    <rect class="cls-11" x="47.53" y="1.5" width="120" height="85" rx="12" ry="12"/>
    <text class="cls-19" transform="translate(89.58 28.58)"><tspan x="0" y="0">DRS</tspan><tspan x="-26.89" y="21.6">Detection</tspan><tspan x="-10.05" y="43.2">Zone 1</tspan></text>
    <rect class="cls-12" x="529.66" y="912.08" width="120" height="85" rx="12" ry="12"/>
    <text class="cls-19" transform="translate(560.82 950.62)"><tspan x="0" y="0">Speed</tspan><tspan x="7.45" y="21.6">Trap</tspan></text>
    <polygon points="729.92 775 758.77 782.63 758.77 767.37 729.92 775"/>
    <g>
      <rect x="795.85" y="767.44" width="5.01" height="5.01" transform="translate(1596.72 1539.89) rotate(180)"/>
      <rect class="cls-16" x="790.84" y="767.44" width="5.01" height="5.01" transform="translate(1586.69 1539.89) rotate(180)"/>
      <rect class="cls-16" x="780.81" y="767.44" width="5.01" height="5.01" transform="translate(1566.63 1539.89) rotate(180)"/>
      <rect x="785.82" y="767.44" width="5.01" height="5.01" transform="translate(1576.66 1539.89) rotate(180)"/>
      <rect x="775.79" y="767.44" width="5.01" height="5.01"/>
      <rect x="795.85" y="777.55" width="5.01" height="5.01" transform="translate(1596.72 1560.11) rotate(180)"/>
      <rect class="cls-16" x="790.84" y="777.55" width="5.01" height="5.01" transform="translate(1586.69 1560.11) rotate(180)"/>
      <rect class="cls-16" x="780.81" y="777.55" width="5.01" height="5.01" transform="translate(1566.63 1560.11) rotate(180)"/>
      <rect x="785.82" y="777.55" width="5.01" height="5.01" transform="translate(1576.66 1560.11) rotate(180)"/>
      <rect x="775.79" y="777.55" width="5.01" height="5.01"/>
      <rect x="780.81" y="772.49" width="5.01" height="5.01"/>
      <rect class="cls-16" x="785.82" y="772.49" width="5.01" height="5.01"/>
      <rect class="cls-16" x="795.85" y="772.49" width="5.01" height="5.01"/>
      <rect class="cls-16" x="775.79" y="772.49" width="5.01" height="5.01"/>
      <rect x="790.84" y="772.49" width="5.01" height="5.01"/>
    </g>
    <text class="cls-19" transform="translate(760 842.02)"><tspan x="0" y="0">DRS Zone 1</tspan></text>
    <text class="cls-19" transform="translate(1195.63 393.81) rotate(29.02)"><tspan x="0" y="0">DRS Zone 4</tspan></text>
    <text class="cls-19" transform="translate(172.92 760.69) rotate(7.95)"><tspan x="0" y="0">DRS Zone 2</tspan></text>
    <text class="cls-19" transform="translate(576.65 374.87) rotate(35.28)"><tspan x="0" y="0">DRS Zone 3</tspan></text>
  </g>
</svg>