<?xml version="1.0" encoding="UTF-8"?>
<svg id="Layer_2" data-name="Layer 2" xmlns="http://www.w3.org/2000/svg" viewBox="0 0 125.55 180.42">
  <defs>
    <style>
      .cls-1 {
        fill: #f6f1de;
      }

      .cls-2 {
        fill: #ffd023;
      }

      .cls-2, .cls-3 {
        stroke-width: 2px;
      }

      .cls-2, .cls-3, .cls-4 {
        stroke: #000;
        stroke-miterlimit: 10;
      }

      .cls-3 {
        fill: #4f4f4f;
      }

      .cls-4 {
        fill: #29abe2;
        stroke-width: 1.5px;
      }
    </style>
  </defs>
  <g id="Layer_1-2" data-name="Layer 1">
    <path class="cls-4" d="m42.16,139.98l-5.12-7.98-5.12,7.98c-1,1.57-1.34,3.51-.73,5.27.45,1.31,1.44,2.63,3.46,3.38,1.53.57,3.25.57,4.78,0,2.03-.75,3.01-2.07,3.46-3.38.61-1.76.27-3.71-.73-5.27Z"/>
    <path class="cls-4" d="m101.4,166.48l-6.5-10.12-6.5,10.12c-1.27,1.99-1.7,4.46-.93,6.69.57,1.66,1.82,3.34,4.39,4.29,1.95.72,4.12.72,6.07,0,2.57-.95,3.82-2.63,4.39-4.29.77-2.23.34-4.7-.93-6.69Z"/>
    <g>
      <path class="cls-1" d="m44.17,87.09C20.36,87.09,1,67.73,1,43.93,1,22.88,15.96,5.19,36.3,1.47c-9.01,8.36-14.11,19.98-14.11,32.39,0,24.39,19.84,44.23,44.23,44.23,1.47,0,2.94-.07,4.41-.22-7.58,5.97-16.93,9.22-26.66,9.22Z"/>
      <path d="m33.17,3.2c-7.68,8.3-11.97,19.15-11.97,30.66,0,24.94,20.29,45.23,45.23,45.23.34,0,.69,0,1.03-.01-6.86,4.56-14.93,7.01-23.29,7.01-23.25,0-42.17-18.92-42.17-42.17C2,24.53,15,8.05,33.17,3.2m6.39-3.2C17.33,2.31,0,21.09,0,43.93c0,24.39,19.77,44.17,44.17,44.17,11.54,0,22.05-4.43,29.92-11.68-2.49.44-5.05.68-7.66.68-23.87,0-43.23-19.35-43.23-43.23,0-13.72,6.39-25.95,16.36-33.86h0Z"/>
    </g>
    <polygon class="cls-2" points="77.53 130.61 68.97 130.61 62.44 100.41 52.67 145.49 61.23 145.49 67.77 175.69 77.53 130.61"/>
    <path class="cls-3" d="m124.55,79.55c0,3.75-1.03,7.27-2.83,10.28H8.72c-1.95-3-3.06-6.51-3.06-10.26,0-10.24,8.32-18.67,19.05-19.89,4.6-8.03,13.26-13.44,23.18-13.44,4,0,7.78.88,11.18,2.45,5.22-7.49,14.16-11.36,22.81-9.86,10.01,1.74,17.88,10.36,18.87,21.04,1.21-.24,2.47-.36,3.75-.36,11.06,0,20.03,8.97,20.03,20.04Z"/>
    <path class="cls-4" d="m102.83,94.91l-7.93-12.36-7.93,12.36c-1.56,2.42-2.08,5.44-1.14,8.17.7,2.03,2.22,4.07,5.36,5.24,2.38.88,5.03.88,7.41,0,3.14-1.17,4.66-3.21,5.36-5.24.94-2.72.42-5.74-1.14-8.17Z"/>
    <path class="cls-4" d="m51.72,108.26l-6.66-10.39-6.66,10.39c-1.31,2.04-1.74,4.57-.95,6.86.59,1.71,1.87,3.42,4.51,4.4,2,.74,4.23.74,6.23,0,2.64-.98,3.92-2.7,4.51-4.4.79-2.29.35-4.83-.95-6.86Z"/>
  </g>
</svg>