<?xml version="1.0" encoding="UTF-8"?>
<svg id="Layer_2" data-name="Layer 2" xmlns="http://www.w3.org/2000/svg" viewBox="0 0 1466.09 871.27">
  <defs>
    <style>
      .cls-1 {
        stroke: #00a6ff;
      }

      .cls-1, .cls-2, .cls-3 {
        stroke-width: 6px;
      }

      .cls-1, .cls-2, .cls-3, .cls-4, .cls-5, .cls-6, .cls-7, .cls-8, .cls-9, .cls-10, .cls-11 {
        stroke-miterlimit: 10;
      }

      .cls-1, .cls-2, .cls-3, .cls-4, .cls-6, .cls-7, .cls-10, .cls-11 {
        fill: none;
      }

      .cls-2 {
        stroke: #ffd600;
      }

      .cls-3 {
        stroke: red;
      }

      .cls-12 {
        fill: #fff;
      }

      .cls-13, .cls-9 {
        fill: #ff73cb;
      }

      .cls-14, .cls-8 {
        fill: #0df400;
      }

      .cls-4, .cls-5, .cls-8, .cls-9, .cls-10, .cls-11 {
        stroke: #000;
      }

      .cls-4, .cls-6, .cls-7, .cls-11 {
        stroke-linecap: round;
      }

      .cls-4, .cls-7 {
        stroke-dasharray: 0 13.88;
      }

      .cls-4, .cls-11 {
        stroke-width: 8px;
      }

      .cls-5 {
        stroke-width: 9px;
      }

      .cls-6, .cls-7 {
        stroke: lime;
        stroke-width: 4px;
      }

      .cls-6, .cls-11 {
        stroke-dasharray: 0 14.26;
      }

      .cls-8, .cls-9 {
        stroke-width: 3px;
      }

      .cls-15 {
        font-family: Poppins-Bold, Poppins;
        font-size: 18px;
        font-weight: 700;
      }

      .cls-10 {
        stroke-width: 18px;
      }
    </style>
  </defs>
  <g id="Layer_1-2" data-name="Layer 1">
    <circle class="cls-5" cx="531.87" cy="273.84" r="8.23"/>
    <circle class="cls-5" cx="660.43" cy="246.98" r="8.23"/>
    <circle class="cls-5" cx="1266.18" cy="697.29" r="8.23"/>
    <g>
      <path class="cls-10" d="m674.08,424.72l-5.32,308.13c-.9,10.85-.39,27.41,10.14,39.28,10.46,11.79,26.71,14.33,70.99,13.06,23.96-.68,55.71-2.47,93.23-7.08,11.03-1.17,26.19-4.53,39.16-15.27,13.19-10.91,17.08-23.21,23.4-37.31,5.78-12.92,27.13-60.59,60.59-79.48,6.67-3.77,17.67-8.56,34.04-9.64s33.67,2.31,48.93,9.52c17.21,8.13,32.19,14.8,44.25,20,40.19,17.34,54.22,21.19,63.04,23.28,19.09,4.54,35.4,6.01,46.74,6.51,28.25.77,56.5,1.55,84.74,2.32"/>
      <path class="cls-10" d="m1288,698.04l134.1,3.94s31.55.91,34.75-24.23c2.73-21.48-17.88-32.62-23.95-35.41-1.39-.64-2.77-1.31-4.12-2.04l-48.27-25.96c-2.44-1.31-4.94-2.49-7.5-3.54l-45.21-18.48c-2.35-.96-4.65-2.03-6.89-3.21l-452.49-238.23c-87.83-43.94-175.66-87.88-263.49-131.83-5.63-2.7-11.94-1.9-15.71,1.84-3.07,3.04-3.43,7.02-3.49,8.32v29.08s-.25,13.12-15.26,12.76c-2.04-.05-4.08-.09-6.12-.02-21.55.75-123.68,7.01-190.79,58.4-1.66,1.27-3.24,2.63-4.79,4.04l-171.69,156.85c-15.75,14.67-32.14,31.3-48.6,50.08-28.91,32.97-51.68,65.28-69.55,94.39-12.34,18.47-24.68,36.94-37.02,55.41"/>
      <path class="cls-10" d="m674.08,424.72l2.1-88.83s4.31-19.2-15.31-21.78h-37.96l-85.84,31.71c-50.69,8.84-49.82,64.49-49.82,64.49l-2.37,144.94c-.86,9.49-7.33,31.92-7.33,31.92-6.69,25.24-35.16,20.92-35.16,20.92l-38.61-6.69c-33.86-2.59-32.8-33.86-32.8-33.86l-.2-55.65c2.59-23.94-20.92-18.77-20.92-18.77l-62.98,5.61c-33.22-.65-42.71,18.12-42.71,18.12-16.5,17.2-33.01,34.39-49.51,51.59-3.22,3.65-7.06,8.71-10.47,15.27-3.04,5.86-4.89,11.29-6.04,15.67-11.91,49.58-23.82,99.17-35.73,148.75l-11.09,26.66c-2.12,3.1-20.37,28.8-53.9,30.69-29.72,1.67-49.31-16.6-52.53-19.71-8.95-8.05-12.37-18.64-13.22-28.5-1.2-13.86,2.81-27.67,10.75-39.08,5.03-7.22,10.1-17.78,19.48-28"/>
    </g>
    <g>
      <path class="cls-3" d="m674.08,424.72l-5.32,308.13c-.9,10.85-.39,27.41,10.14,39.28,10.46,11.79,26.71,14.33,70.99,13.06,23.96-.68,55.71-2.47,93.23-7.08,11.03-1.17,26.19-4.53,39.16-15.27,13.19-10.91,17.08-23.21,23.4-37.31,5.78-12.92,27.13-60.59,60.59-79.48,6.67-3.77,17.67-8.56,34.04-9.64s33.67,2.31,48.93,9.52c17.21,8.13,32.19,14.8,44.25,20,40.19,17.34,54.22,21.19,63.04,23.28,19.09,4.54,35.4,6.01,46.74,6.51,28.25.77,56.5,1.55,84.74,2.32"/>
      <path class="cls-1" d="m1288,698.04l134.1,3.94s31.55.91,34.75-24.23c2.73-21.48-17.88-32.62-23.95-35.41-1.39-.64-2.77-1.31-4.12-2.04l-48.27-25.96c-2.44-1.31-4.94-2.49-7.5-3.54l-45.21-18.48c-2.35-.96-4.65-2.03-6.89-3.21l-452.49-238.23c-87.83-43.94-175.66-87.88-263.49-131.83-5.63-2.7-11.94-1.9-15.71,1.84-3.07,3.04-3.43,7.02-3.49,8.32v29.08s-.25,13.12-15.26,12.76c-2.04-.05-4.08-.09-6.12-.02-21.55.75-123.68,7.01-190.79,58.4-1.66,1.27-3.24,2.63-4.79,4.04l-171.69,156.85c-15.75,14.67-32.14,31.3-48.6,50.08-28.91,32.97-51.68,65.28-69.55,94.39-12.34,18.47-24.68,36.94-37.02,55.41"/>
      <path class="cls-2" d="m674.08,424.72l2.1-88.83s4.31-19.2-15.31-21.78h-37.96l-85.84,31.71c-50.69,8.84-49.82,64.49-49.82,64.49l-2.37,144.94c-.86,9.49-7.33,31.92-7.33,31.92-6.69,25.24-35.16,20.92-35.16,20.92l-38.61-6.69c-33.86-2.59-32.8-33.86-32.8-33.86l-.2-55.65c2.59-23.94-20.92-18.77-20.92-18.77l-62.98,5.61c-33.22-.65-42.71,18.12-42.71,18.12-16.5,17.2-33.01,34.39-49.51,51.59-3.22,3.65-7.06,8.71-10.47,15.27-3.04,5.86-4.89,11.29-6.04,15.67-11.91,49.58-23.82,99.17-35.73,148.75l-11.09,26.66c-2.12,3.1-20.37,28.8-53.9,30.69-29.72,1.67-49.31-16.6-52.53-19.71-8.95-8.05-12.37-18.64-13.22-28.5-1.2-13.86,2.81-27.67,10.75-39.08,5.03-7.22,10.1-17.78,19.48-28"/>
    </g>
    <g>
      <path class="cls-11" d="m1374.95,585.91l-45.21-18.48c-2.35-.96-4.65-2.03-6.89-3.21l-452.49-238.23c-84.87-42.46-169.73-84.92-254.6-127.38"/>
      <path class="cls-6" d="m1374.95,585.91l-45.21-18.48c-2.35-.96-4.65-2.03-6.89-3.21l-452.49-238.23c-84.87-42.46-169.73-84.92-254.6-127.38"/>
    </g>
    <circle class="cls-14" cx="531.87" cy="273.84" r="8.23"/>
    <circle class="cls-14" cx="1266.18" cy="697.29" r="8.23"/>
    <circle class="cls-13" cx="660.43" cy="246.98" r="8.23"/>
    <g>
      <path class="cls-4" d="m444.76,260.03s-171.79,22.54-435.42,419.64l-5.34,8.73"/>
      <path class="cls-7" d="m444.76,260.03s-171.79,22.54-435.42,419.64l-5.34,8.73"/>
    </g>
    <rect class="cls-9" x="654.43" y="95.33" width="12" height="100" rx="6" ry="6"/>
    <rect class="cls-8" x="525.87" y="145.33" width="12" height="100" rx="6" ry="6"/>
    <rect class="cls-8" x="1260.18" y="721.09" width="12" height="50" rx="6" ry="6"/>
    <rect class="cls-8" x="471.87" y="52.73" width="120" height="85" rx="12" ry="12"/>
    <text class="cls-15" transform="translate(513.92 79.81)"><tspan x="0" y="0">DRS</tspan><tspan x="-26.89" y="21.6">Detection</tspan><tspan x="-11.81" y="43.2">Zone 2</tspan></text>
    <rect class="cls-8" x="1206.18" y="784.77" width="120" height="85" rx="12" ry="12"/>
    <text class="cls-15" transform="translate(1248.24 811.85)"><tspan x="0" y="0">DRS</tspan><tspan x="-26.89" y="21.6">Detection</tspan><tspan x="-10.05" y="43.2">Zone 1</tspan></text>
    <rect class="cls-9" x="600.43" y="1.5" width="120" height="85" rx="12" ry="12"/>
    <text class="cls-15" transform="translate(631.59 40.04)"><tspan x="0" y="0">Speed</tspan><tspan x="7.45" y="21.6">Trap</tspan></text>
    <polygon points="693.1 486.17 700.73 457.31 685.47 457.31 693.1 486.17"/>
    <g>
      <rect x="685.54" y="413.08" width="5.01" height="5.01" transform="translate(1103.64 -272.46) rotate(90)"/>
      <rect class="cls-12" x="685.54" y="418.1" width="5.01" height="5.01" transform="translate(1108.65 -267.44) rotate(90)"/>
      <rect class="cls-12" x="685.54" y="428.13" width="5.01" height="5.01" transform="translate(1118.68 -257.41) rotate(90)"/>
      <rect x="685.54" y="423.11" width="5.01" height="5.01" transform="translate(1113.67 -262.43) rotate(90)"/>
      <rect x="685.54" y="433.14" width="5.01" height="5.01" transform="translate(252.4 1123.69) rotate(-90)"/>
      <rect x="695.65" y="413.08" width="5.01" height="5.01" transform="translate(1113.75 -282.57) rotate(90)"/>
      <rect class="cls-12" x="695.65" y="418.1" width="5.01" height="5.01" transform="translate(1118.76 -277.55) rotate(90)"/>
      <rect class="cls-12" x="695.65" y="428.13" width="5.01" height="5.01" transform="translate(1128.79 -267.52) rotate(90)"/>
      <rect x="695.65" y="423.11" width="5.01" height="5.01" transform="translate(1123.78 -272.54) rotate(90)"/>
      <rect x="695.65" y="433.14" width="5.01" height="5.01" transform="translate(262.51 1133.81) rotate(-90)"/>
      <rect x="690.59" y="428.13" width="5.01" height="5.01" transform="translate(262.47 1123.74) rotate(-90)"/>
      <rect class="cls-12" x="690.59" y="423.11" width="5.01" height="5.01" transform="translate(267.48 1118.72) rotate(-90)"/>
      <rect class="cls-12" x="690.59" y="413.08" width="5.01" height="5.01" transform="translate(277.51 1108.69) rotate(-90)"/>
      <rect class="cls-12" x="690.59" y="433.14" width="5.01" height="5.01" transform="translate(257.45 1128.75) rotate(-90)"/>
      <rect x="690.59" y="418.1" width="5.01" height="5.01" transform="translate(272.5 1113.71) rotate(-90)"/>
    </g>
    <text class="cls-15" transform="translate(939.57 349.97) rotate(27.81)"><tspan x="0" y="0">DRS Zone 1</tspan></text>
    <text class="cls-15" transform="translate(141 481.12) rotate(-46.08)"><tspan x="0" y="0">DRS Zone 2</tspan></text>
  </g>
</svg>