<?xml version="1.0" encoding="UTF-8"?>
<svg id="Layer_2" data-name="Layer 2" xmlns="http://www.w3.org/2000/svg" viewBox="0 0 1102.04 874.69">
  <defs>
    <style>
      .cls-1 {
        stroke: #00a6ff;
      }

      .cls-1, .cls-2, .cls-3 {
        stroke-width: 6px;
      }

      .cls-1, .cls-2, .cls-3, .cls-4, .cls-5, .cls-6, .cls-7, .cls-8, .cls-9, .cls-10, .cls-11 {
        stroke-miterlimit: 10;
      }

      .cls-1, .cls-2, .cls-3, .cls-4, .cls-5, .cls-6, .cls-10, .cls-11 {
        fill: none;
      }

      .cls-2 {
        stroke: #ffd600;
      }

      .cls-3 {
        stroke: red;
      }

      .cls-4, .cls-5 {
        stroke: lime;
        stroke-width: 4px;
      }

      .cls-4, .cls-5, .cls-6, .cls-11 {
        stroke-linecap: round;
      }

      .cls-4, .cls-11 {
        stroke-dasharray: 0 15.5;
      }

      .cls-12 {
        fill: #fff;
      }

      .cls-13, .cls-9 {
        fill: #ff73cb;
      }

      .cls-14, .cls-8 {
        fill: #0df400;
      }

      .cls-5, .cls-6 {
        stroke-dasharray: 0 15;
      }

      .cls-6, .cls-7, .cls-8, .cls-9, .cls-10, .cls-11 {
        stroke: #000;
      }

      .cls-6, .cls-11 {
        stroke-width: 8px;
      }

      .cls-7 {
        stroke-width: 9px;
      }

      .cls-8, .cls-9 {
        stroke-width: 3px;
      }

      .cls-15 {
        font-family: Poppins-Bold, Poppins;
        font-size: 18px;
        font-weight: 700;
      }

      .cls-10 {
        stroke-width: 18px;
      }
    </style>
  </defs>
  <g id="Layer_1-2" data-name="Layer 1">
    <g>
      <line class="cls-11" x1="769.4" y1="662.53" x2="38.36" y2="662.53"/>
      <line class="cls-4" x1="769.4" y1="662.53" x2="38.36" y2="662.53"/>
    </g>
    <circle class="cls-7" cx="258.94" cy="406.97" r="8.23"/>
    <circle class="cls-7" cx="984.08" cy="575.12" r="8.23"/>
    <circle class="cls-7" cx="141.73" cy="644.92" r="8.23"/>
    <circle class="cls-7" cx="109.9" cy="644.98" r="8.23"/>
    <g>
      <g>
        <path class="cls-10" d="m628.28,644.98l-604.16-1.17s-22.01-2.16-3.88-20.71l32.79-38.4s13.42-11.35,4-32.52c-4.2-9.44-8.18-18.96-11.53-28.73l-8.88-25.91s-7.34-25.46,0-55.23C58.21,304.08,79.78,165.87,101.36,27.65c.7-2.78,2.54-8.37,7.62-12.82,9.75-8.55,22.89-5.39,25.77-4.6,11.14,3.07,16.89,11.58,18.39,13.97,12.33,17.04,27.03,35.46,44.44,54.37l53.77,52.08"/>
        <path class="cls-10" d="m628.28,644.98c103.7.07,207.4.14,311.1.2,12.3-5.63,23.2-10.83,32.48-15.35,16.44-8.01,21.23-10.73,23.7-16.4,4.43-10.16-1.98-22-4.88-26.72L703.41,114.01c-6.26-9.46-11.89-17.54-16.53-24.02-8.94-12.51-12.62-16.9-18.72-20.98-4.29-2.87-9.44-6.31-16.68-6.64-7.01-.32-12.22,2.45-21.33,7.29-4.67,2.48-9.56,5.12-14.93,10.12-6.26,5.82-9.99,11.88-12.12,16-12.67,28.67-25.34,57.33-38.01,86"/>
        <path class="cls-10" d="m251.35,130.64l9.57,8.55c7.31,6.54,15.66,11.8,24.72,15.58,7.07,2.95,16.04,6.48,25.25,9.55,20.35,6.78,41.07,22.98,37.3,54.26,0,0-15.45,69.33,16.2,87.79l128.53,94.38c3.77,2.77,6.4,6.91,6.94,11.55.62,5.26-1.25,11.77-11.35,16.61-6.25,2.99-13.28,3.98-20.16,3.16l-219.63-26.22c-9.9-1.5-28.56-2.76-48.64,5.83-9.37,4.01-21.62,17.29-46.13,43.86-2.88,3.12-7.49,8.24-5.98,12.22,2.09,5.51,14.52,5.22,16.36,5.16,29.76,3.63,59.52,7.26,89.27,10.89,156.03-1.24,312.06-2.49,468.09-3.73,0,0,43.8-5.93,21.56-75.33-17.6-54.94-68.14-71.61-88.44-76.18-21.15-4.76-21.53-4.68-36.42-12.7-8.77-4.72-46.4-24.99-57.86-68.78-7.73-29.54.39-54.71,4.57-65.31"/>
      </g>
      <g>
        <path class="cls-3" d="m628.28,645.08l-604.16-1.17s-22.01-2.16-3.88-20.71l32.79-38.4s13.42-11.35,4-32.52c-4.2-9.44-8.18-18.96-11.53-28.73l-8.88-25.91s-7.34-25.46,0-55.23C58.21,304.19,79.78,165.97,101.36,27.75c.7-2.78,2.54-8.37,7.62-12.82,9.75-8.55,22.89-5.39,25.77-4.6,11.14,3.07,16.89,11.58,18.39,13.97,12.33,17.04,27.03,35.46,44.44,54.37l53.77,52.08"/>
        <path class="cls-2" d="m628.28,645.08c103.7.07,207.4.14,311.1.2,12.3-5.63,23.2-10.83,32.48-15.35,16.44-8.01,21.23-10.73,23.7-16.4,4.43-10.16-1.98-22-4.88-26.72L703.41,114.11c-6.26-9.46-11.89-17.54-16.53-24.02-8.94-12.51-12.62-16.9-18.72-20.98-4.29-2.87-9.44-6.31-16.68-6.64-7.01-.32-12.22,2.45-21.33,7.29-4.67,2.48-9.56,5.12-14.93,10.12-6.26,5.82-9.99,11.88-12.12,16-12.67,28.67-25.34,57.33-38.01,86"/>
        <path class="cls-1" d="m251.35,130.74l9.57,8.55c7.31,6.54,15.66,11.8,24.72,15.58,7.07,2.95,16.04,6.48,25.25,9.55,20.35,6.78,41.07,22.98,37.3,54.26,0,0-15.45,69.33,16.2,87.79l128.53,94.38c3.77,2.77,6.4,6.91,6.94,11.55.62,5.26-1.25,11.77-11.35,16.61-6.25,2.99-13.28,3.98-20.16,3.16l-219.63-26.22c-9.9-1.5-28.56-2.76-48.64,5.83-9.37,4.01-21.62,17.29-46.13,43.86-2.88,3.12-7.49,8.24-5.98,12.22,2.09,5.51,14.52,5.22,16.36,5.16,29.76,3.63,59.52,7.26,89.27,10.89,156.03-1.24,312.06-2.49,468.09-3.73,0,0,43.8-5.93,21.56-75.33-17.6-54.94-68.14-71.61-88.44-76.18-21.15-4.76-21.53-4.68-36.42-12.7-8.77-4.72-46.4-24.99-57.86-68.78-7.73-29.54.39-54.71,4.57-65.31"/>
      </g>
    </g>
    <g>
      <path class="cls-6" d="m19.93,423.66C41.51,285.44,63.08,147.22,84.66,9"/>
      <path class="cls-5" d="m19.93,423.66C41.51,285.44,63.08,147.22,84.66,9"/>
    </g>
    <circle class="cls-14" cx="109.9" cy="644.98" r="8.23"/>
    <circle class="cls-14" cx="258.94" cy="406.97" r="8.23"/>
    <circle class="cls-14" cx="984.08" cy="575.12" r="8.23"/>
    <circle class="cls-13" cx="141.73" cy="645.04" r="8.23"/>
    <polygon points="577.65 619.66 606.51 627.28 606.51 612.03 577.65 619.66"/>
    <g>
      <path class="cls-6" d="m721.97,501.61c-156.03,1.24-312.06,2.49-468.09,3.73-29.76-3.63-59.52-7.26-89.27-10.89"/>
      <path class="cls-5" d="m721.97,501.61c-156.03,1.24-312.06,2.49-468.09,3.73-29.76-3.63-59.52-7.26-89.27-10.89"/>
    </g>
    <rect class="cls-8" x="252.94" y="334.26" width="12" height="50" rx="6" ry="6"/>
    <path class="cls-8" d="m115.11,686.82c0-3.31-2.69-6-6-6s-6,2.69-6,6v46.28l-32.4,32.4c-2.34,2.34-2.34,6.14,0,8.48h0c2.34,2.34,6.14,2.34,8.49,0l34.12-34.12c1.12-1.12,1.68-2.56,1.74-4.02.03-.25.05-.5.05-.76v-48.25Z"/>
    <path class="cls-9" d="m136.65,686.82c0-3.31,2.69-6,6-6s6,2.69,6,6v46.28l32.4,32.4c2.34,2.34,2.34,6.14,0,8.48h0c-2.34,2.34-6.14,2.34-8.49,0l-34.12-34.12c-1.12-1.12-1.68-2.56-1.74-4.02-.03-.25-.05-.5-.05-.76v-48.25Z"/>
    <path class="cls-8" d="m1045.56,476.4c0-3.31-2.69-6-6-6s-6,2.69-6,6v46.28l-32.4,32.4c-2.34,2.34-2.34,6.14,0,8.48h0c2.34,2.34,6.14,2.34,8.49,0l34.12-34.12c1.12-1.12,1.68-2.56,1.74-4.02.03-.25.05-.5.05-.76v-48.25Z"/>
    <rect class="cls-8" x="198.94" y="242.09" width="120" height="85" rx="12" ry="12"/>
    <text class="cls-15" transform="translate(240.99 269.17)"><tspan x="0" y="0">DRS</tspan><tspan x="-26.89" y="21.6">Detection</tspan><tspan x="-11.81" y="43.2">Zone 2</tspan></text>
    <rect class="cls-8" x="1.5" y="788.19" width="120" height="85" rx="12" ry="12"/>
    <text class="cls-15" transform="translate(43.55 815.26)"><tspan x="0" y="0">DRS</tspan><tspan x="-26.89" y="21.6">Detection</tspan><tspan x="-10.05" y="43.2">Zone 1</tspan></text>
    <rect class="cls-8" x="980.54" y="381.16" width="120" height="85" rx="12" ry="12"/>
    <text class="cls-15" transform="translate(1022.6 408.24)"><tspan x="0" y="0">DRS</tspan><tspan x="-26.89" y="21.6">Detection</tspan><tspan x="-12.11" y="43.2">Zone 3</tspan></text>
    <rect class="cls-9" x="133.49" y="788.19" width="120" height="85" rx="12" ry="12"/>
    <text class="cls-15" transform="translate(164.65 826.72)"><tspan x="0" y="0">Speed</tspan><tspan x="7.45" y="21.6">Trap</tspan></text>
    <g>
      <rect x="635.81" y="612.09" width="5.01" height="5.01" transform="translate(1276.63 1229.2) rotate(180)"/>
      <rect class="cls-12" x="630.79" y="612.09" width="5.01" height="5.01" transform="translate(1266.6 1229.2) rotate(180)"/>
      <rect class="cls-12" x="620.76" y="612.09" width="5.01" height="5.01" transform="translate(1246.54 1229.2) rotate(180)"/>
      <rect x="625.78" y="612.09" width="5.01" height="5.01" transform="translate(1256.57 1229.2) rotate(180)"/>
      <rect x="615.75" y="612.09" width="5.01" height="5.01"/>
      <rect x="635.81" y="622.2" width="5.01" height="5.01" transform="translate(1276.63 1249.42) rotate(180)"/>
      <rect class="cls-12" x="630.79" y="622.2" width="5.01" height="5.01" transform="translate(1266.6 1249.42) rotate(180)"/>
      <rect class="cls-12" x="620.76" y="622.2" width="5.01" height="5.01" transform="translate(1246.54 1249.42) rotate(180)"/>
      <rect x="625.78" y="622.2" width="5.01" height="5.01" transform="translate(1256.57 1249.42) rotate(180)"/>
      <rect x="615.75" y="622.2" width="5.01" height="5.01"/>
      <rect x="620.76" y="617.15" width="5.01" height="5.01"/>
      <rect class="cls-12" x="625.78" y="617.15" width="5.01" height="5.01"/>
      <rect class="cls-12" x="635.81" y="617.15" width="5.01" height="5.01"/>
      <rect class="cls-12" x="615.75" y="617.15" width="5.01" height="5.01"/>
      <rect x="630.79" y="617.15" width="5.01" height="5.01"/>
    </g>
    <text class="cls-15" transform="translate(369.32 685.69)"><tspan x="0" y="0">DRS Zone 3</tspan></text>
    <text class="cls-15" transform="translate(370.97 533.28)"><tspan x="0" y="0">DRS Zone 2</tspan></text>
    <text class="cls-15" transform="translate(30.8 253.86) rotate(-79.61)"><tspan x="0" y="0">DRS Zone 1</tspan></text>
  </g>
</svg>