<?xml version="1.0" encoding="UTF-8"?>
<svg id="Layer_2" data-name="Layer 2" xmlns="http://www.w3.org/2000/svg" viewBox="0 0 1495.42 874.58">
  <defs>
    <style>
      .cls-1 {
        stroke: #00a6ff;
      }

      .cls-1, .cls-2, .cls-3 {
        stroke-width: 6px;
      }

      .cls-1, .cls-2, .cls-3, .cls-4, .cls-5, .cls-6, .cls-7, .cls-8, .cls-9, .cls-10, .cls-11 {
        stroke-miterlimit: 10;
      }

      .cls-1, .cls-2, .cls-3, .cls-4, .cls-5, .cls-6, .cls-7, .cls-11 {
        fill: none;
      }

      .cls-2 {
        stroke: #ffd600;
      }

      .cls-3 {
        stroke: red;
      }

      .cls-4, .cls-5 {
        stroke-dasharray: 0 17.81;
      }

      .cls-4, .cls-5, .cls-6, .cls-7 {
        stroke-linecap: round;
      }

      .cls-4, .cls-6 {
        stroke: lime;
        stroke-width: 4px;
      }

      .cls-12 {
        fill: #fff;
      }

      .cls-13, .cls-10 {
        fill: #ff73cb;
      }

      .cls-14, .cls-9 {
        fill: #0df400;
      }

      .cls-5, .cls-7 {
        stroke-width: 8px;
      }

      .cls-5, .cls-7, .cls-8, .cls-9, .cls-10, .cls-11 {
        stroke: #000;
      }

      .cls-6, .cls-7 {
        stroke-dasharray: 0 16.89;
      }

      .cls-8 {
        stroke-width: 9px;
      }

      .cls-9, .cls-10 {
        stroke-width: 3px;
      }

      .cls-15 {
        font-family: Poppins-Bold, Poppins;
        font-size: 18px;
        font-weight: 700;
      }

      .cls-11 {
        stroke-width: 18px;
      }
    </style>
  </defs>
  <g id="Layer_1-2" data-name="Layer 1">
    <g>
      <g>
        <path class="cls-5" d="m513.04,131.12l-264.16,71.57s-45.97,7.47-74.99,30.13"/>
        <path class="cls-5" d="m495.81,135.43l201.98-54.7c16.55-4.47,39.73-10.28,67.76-15.82,33.73-6.67,59.22-11.71,89.76-12.34,30.32-.63,52.31,3.36,80.38,8.62,57.66,10.8,89.51,16.92,140.25,28.61"/>
      </g>
      <g>
        <path class="cls-4" d="m513.04,131.12l-264.16,71.57s-45.97,7.47-74.99,30.13"/>
        <path class="cls-4" d="m495.81,135.43l201.98-54.7c16.55-4.47,39.73-10.28,67.76-15.82,33.73-6.67,59.22-11.71,89.76-12.34,30.32-.63,52.31,3.36,80.38,8.62,57.66,10.8,89.51,16.92,140.25,28.61"/>
      </g>
    </g>
    <circle class="cls-8" cx="1369.35" cy="383.49" r="8.23"/>
    <circle class="cls-8" cx="199.37" cy="334.21" r="8.23"/>
    <circle class="cls-8" cx="260.22" cy="226.45" r="8.23"/>
    <g>
      <path class="cls-11" d="m510.68,158.72l-250.49,67.86s-93.99,15.28-93.06,68.99c0,0-.93,16.21,19.45,31.02,4.52,2.7,27.13,16.52,36.95,35.29,1.96,3.76,5.15,10.01,5.18,18.41.02,6.95-2.12,12.18-3.02,14.32-7.32,17.37-18.93,39-23.93,49.32-18.87,38.95-16.84,68.15-16.28,74.31.09.96.18,1.93.29,2.91,6.01,54.52,40.98,101.72,81.91,125.17,8.33,4.77,24.43,10.67,56.62,22.47,0,0,33.05,12.11,67.38,22.63,46.22,14.16,230.62,62.69,481.8,125.04"/>
      <path class="cls-11" d="m873.47,816.47l117.62,30.29s54.17,18.63,69.5-30.29l18.4-95.42s28.62-98.63-78.19-159.95l-278-197.77s-53.15-29.13-34.75-104.76c0,0,8.22-61.83,51.64-81.25,44.96-12.17,168.23-43.15,183.96-11.15,1.65,3.36,2.23,7.65,1.01,13.2,0,0,2.56,22.49-16.86,42.93,0,0-34.24,31.68-10.22,72.57,0,0,19.93,32.71,57.23,17.89,0,0,15.33-6.13,28.11-18.4l56.72-56.72c4.08-4.21,10.44-10.15,19.16-15.91,9.55-6.3,20.35-11.33,51.88-19.66,12.31-3.25,28.4-7.17,47.52-10.94,12.85-2.92,25.13.47,31.86,8.81,2.31,2.86,4.01,6.57,4.71,11.37.63,2,.96,3.88,1.08,5.59,1.14,15.54-13.32,27.34-16.46,29.8-25.94,23.71-51.87,47.43-77.81,71.14,0,0-40.71,40.71-27.33,108.75,0,0,10.6,37.83,40.71,61.02,34.21,26.34,62.35,45.96,80.9,52.75"/>
      <path class="cls-11" d="m510.68,158.72l191.53-51.87c15.69-4.24,37.67-9.75,64.26-15,31.98-6.32,56.16-11.1,85.11-11.7,28.75-.6,49.61,3.19,76.22,8.17,90.82,17.01,114.11,21.78,264.14,58.85,10.71,2.65,26.08,7.08,44.74,16.72,24.31,12.56,52.51,33.53,68.06,67.15,17.61,31.94,30.23,59.55,38.77,79.72,39.35,92.87,36.6,132.37,34.8,147.51-1.82,15.3-5.26,27.55-7.77,35.25l-29.65,86.04s-8,16.72-24.84,20.56c-20.56,4.68-35.76-9.96-36.46-10.67l-83.72-49.11"/>
    </g>
    <g>
      <path class="cls-3" d="m510.68,158.72l-250.49,67.86s-93.99,15.28-93.06,68.99c0,0-.93,16.21,19.45,31.02,4.52,2.7,27.13,16.52,36.95,35.29,1.96,3.76,5.15,10.01,5.18,18.41.02,6.95-2.12,12.18-3.02,14.32-7.32,17.37-18.93,39-23.93,49.32-18.87,38.95-16.84,68.15-16.28,74.31.09.96.18,1.93.29,2.91,6.01,54.52,40.98,101.72,81.91,125.17,8.33,4.77,24.43,10.67,56.62,22.47,0,0,33.05,12.11,67.38,22.63,46.22,14.16,230.62,62.69,481.8,125.04"/>
      <path class="cls-1" d="m873.47,816.47l117.62,30.29s54.17,18.63,69.5-30.29l18.4-95.42s28.62-98.63-78.19-159.95l-278-197.77s-53.15-29.13-34.75-104.76c0,0,8.22-61.83,51.64-81.25,44.96-12.17,168.23-43.15,183.96-11.15,1.65,3.36,2.23,7.65,1.01,13.2,0,0,2.56,22.49-16.86,42.93,0,0-34.24,31.68-10.22,72.57,0,0,19.93,32.71,57.23,17.89,0,0,15.33-6.13,28.11-18.4l56.72-56.72c4.08-4.21,10.44-10.15,19.16-15.91,9.55-6.3,20.35-11.33,51.88-19.66,12.31-3.25,28.4-7.17,47.52-10.94,12.85-2.92,25.13.47,31.86,8.81,2.31,2.86,4.01,6.57,4.71,11.37.63,2,.96,3.88,1.08,5.59,1.14,15.54-13.32,27.34-16.46,29.8-25.94,23.71-51.87,47.43-77.81,71.14,0,0-40.71,40.71-27.33,108.75,0,0,10.6,37.83,40.71,61.02,34.21,26.34,62.35,45.96,80.9,52.75"/>
      <path class="cls-2" d="m510.68,158.72l191.53-51.87c15.69-4.24,37.67-9.75,64.26-15,31.98-6.32,56.16-11.1,85.11-11.7,28.75-.6,49.61,3.19,76.22,8.17,90.82,17.01,114.11,21.78,264.14,58.85,10.71,2.65,26.08,7.08,44.74,16.72,24.31,12.56,52.51,33.53,68.06,67.15,17.61,31.94,30.23,59.55,38.77,79.72,39.35,92.87,36.6,132.37,34.8,147.51-1.82,15.3-5.26,27.55-7.77,35.25l-29.65,86.04s-8,16.72-24.84,20.56c-20.56,4.68-35.76-9.96-36.46-10.67l-83.72-49.11"/>
    </g>
    <g>
      <g>
        <path class="cls-7" d="m271.23,675.23c8.33,4.77,24.43,10.67,56.62,22.47,0,0,33.05,12.11,67.38,22.63,46.22,14.16,230.62,62.69,481.8,125.04"/>
        <line class="cls-7" x1="856.29" y1="840.29" x2="973.91" y2="870.58"/>
      </g>
      <g>
        <path class="cls-6" d="m271.23,675.23c8.33,4.77,24.43,10.67,56.62,22.47,0,0,33.05,12.11,67.38,22.63,46.22,14.16,230.62,62.69,481.8,125.04"/>
        <line class="cls-6" x1="856.29" y1="840.29" x2="973.91" y2="870.58"/>
      </g>
    </g>
    <circle class="cls-13" cx="260.22" cy="226.45" r="8.23"/>
    <circle class="cls-14" cx="1369.35" cy="383.49" r="8.23"/>
    <circle class="cls-14" cx="199.37" cy="334.21" r="8.23"/>
    <rect class="cls-10" x="254.22" y="93.62" width="12" height="75" rx="6" ry="6"/>
    <path class="cls-9" d="m1438.53,283.86c0-3.31-2.69-6-6-6s-6,2.69-6,6v46.28l-32.4,32.4c-2.34,2.34-2.34,6.14,0,8.48h0c2.34,2.34,6.14,2.34,8.49,0l34.12-34.12c1.12-1.12,1.68-2.56,1.74-4.02.03-.25.05-.5.05-.76v-48.25Z"/>
    <path class="cls-9" d="m63.34,361.46c-2.39,2.3-2.46,6.1-.16,8.48s6.1,2.46,8.48.16l33.35-32.09,45.81.88c3.31.06,6.05-2.57,6.11-5.88h0c.06-3.31-2.57-6.05-5.88-6.11l-48.24-.93c-1.58-.03-3.01.56-4.1,1.54-.2.15-.4.31-.59.49l-34.77,33.46Z"/>
    <rect class="cls-9" x="1373.92" y="185.78" width="120" height="85" rx="12" ry="12"/>
    <text class="cls-15" transform="translate(1415.97 212.86)"><tspan x="0" y="0">DRS</tspan><tspan x="-26.89" y="21.6">Detection</tspan><tspan x="-11.81" y="43.2">Zone 2</tspan></text>
    <rect class="cls-9" x="1.5" y="382.97" width="120" height="85" rx="12" ry="12"/>
    <text class="cls-15" transform="translate(43.55 410.04)"><tspan x="0" y="0">DRS</tspan><tspan x="-26.89" y="21.6">Detection</tspan><tspan x="-10.05" y="43.2">Zone 1</tspan></text>
    <rect class="cls-10" x="200.22" y="1.5" width="120" height="85" rx="12" ry="12"/>
    <text class="cls-15" transform="translate(231.38 40.04)"><tspan x="0" y="0">Speed</tspan><tspan x="7.45" y="21.6">Trap</tspan></text>
    <polygon points="466.25 190.9 496.1 190.9 492.2 176.15 466.25 190.9"/>
    <g>
      <rect x="521.56" y="165.87" width="5.01" height="5.01" transform="translate(1074.13 188.93) rotate(164.33)"/>
      <rect class="cls-12" x="516.73" y="167.22" width="5.01" height="5.01" transform="translate(1065.02 192.89) rotate(164.33)"/>
      <rect class="cls-12" x="507.07" y="169.93" width="5.01" height="5.01" transform="translate(1046.8 200.82) rotate(164.33)"/>
      <rect x="511.9" y="168.58" width="5.01" height="5.01" transform="translate(1055.91 196.85) rotate(164.33)"/>
      <rect x="502.25" y="171.29" width="5.01" height="5.01" transform="translate(-28.18 142.81) rotate(-15.67)"/>
      <rect x="524.29" y="175.6" width="5.01" height="5.01" transform="translate(1082.12 207.3) rotate(164.33)"/>
      <rect class="cls-12" x="519.46" y="176.96" width="5.01" height="5.01" transform="translate(1073.01 211.26) rotate(164.33)"/>
      <rect class="cls-12" x="509.8" y="179.67" width="5.01" height="5.01" transform="translate(1054.79 219.19) rotate(164.33)"/>
      <rect x="514.63" y="178.31" width="5.01" height="5.01" transform="translate(1063.9 215.22) rotate(164.33)"/>
      <rect x="504.98" y="181.02" width="5.01" height="5.01" transform="translate(-30.71 143.91) rotate(-15.67)"/>
      <rect x="508.44" y="174.8" width="5.01" height="5.01" transform="translate(-28.9 144.61) rotate(-15.67)"/>
      <rect class="cls-12" x="513.27" y="173.45" width="5.01" height="5.01" transform="translate(-28.36 145.87) rotate(-15.67)"/>
      <rect class="cls-12" x="522.92" y="170.74" width="5.01" height="5.01" transform="translate(-27.26 148.37) rotate(-15.67)"/>
      <rect class="cls-12" x="503.61" y="176.15" width="5.01" height="5.01" transform="translate(-29.45 143.36) rotate(-15.67)"/>
      <rect x="518.1" y="172.09" width="5.01" height="5.01" transform="translate(-27.81 147.12) rotate(-15.67)"/>
    </g>
    <text class="cls-15" transform="translate(516.73 783.32) rotate(14.81)"><tspan x="0" y="0">DRS Zone 1</tspan></text>
    <text class="cls-15" transform="translate(448.51 138.39) rotate(-14.81)"><tspan x="0" y="0">DRS Zone 2</tspan></text>
  </g>
</svg>