<?xml version="1.0" encoding="UTF-8"?>
<svg id="Layer_2" data-name="Layer 2" xmlns="http://www.w3.org/2000/svg" viewBox="0 0 1198.72 781.29">
  <defs>
    <style>
      .cls-1 {
        stroke: #00a6ff;
      }

      .cls-1, .cls-2, .cls-3 {
        stroke-width: 6px;
      }

      .cls-1, .cls-2, .cls-3, .cls-4, .cls-5, .cls-6, .cls-7, .cls-8, .cls-9 {
        stroke-miterlimit: 10;
      }

      .cls-1, .cls-2, .cls-3, .cls-7, .cls-8, .cls-9 {
        fill: none;
      }

      .cls-2 {
        stroke: #ffd600;
      }

      .cls-3 {
        stroke: red;
      }

      .cls-10 {
        fill: #fff;
      }

      .cls-11, .cls-6 {
        fill: #ff73cb;
      }

      .cls-12, .cls-5 {
        fill: #0df400;
      }

      .cls-4 {
        stroke-width: 9px;
      }

      .cls-4, .cls-5, .cls-6, .cls-8, .cls-9 {
        stroke: #000;
      }

      .cls-5, .cls-6 {
        stroke-width: 3px;
      }

      .cls-7 {
        stroke: lime;
        stroke-width: 4px;
      }

      .cls-7, .cls-9 {
        stroke-dasharray: 0 17.8;
        stroke-linecap: round;
      }

      .cls-13 {
        font-family: Poppins-Bold, Poppins;
        font-size: 18px;
        font-weight: 700;
      }

      .cls-8 {
        stroke-width: 18px;
      }

      .cls-9 {
        stroke-width: 8px;
      }
    </style>
  </defs>
  <g id="Layer_1-2" data-name="Layer 1">
    <circle class="cls-4" cx="422.73" cy="556.94" r="8.23"/>
    <circle class="cls-4" cx="365.32" cy="296.76" r="8.23"/>
    <circle class="cls-4" cx="134.81" cy="514.02" r="8.23"/>
    <g>
      <path class="cls-8" d="m209.1,608.38L30.25,747.49c-.39.3-.76.61-1.13.92-3.02,2.57-20.03,16.22-20.11-2.21-.01-3.38.59-6.74,1.63-9.96l25.26-77.82c.31-.96.67-1.91,1.07-2.84,4.38-10.23,31.53-72.71,47.26-88.19.47-.46.93-.93,1.37-1.42,0,0,77.3-79.77,124.35-140.27,1.47-1.89,2.25-2.91,2.88-3.76,19.49-25.92,18.89-35.88,29.63-49.08,1.35-1.67,17.88-21.46,43.28-27.05,8.3-1.83,16.9-2,28.59-7.92,9.08-4.61,14.73-10.21,17.49-12.56,39.47-33.57,78.94-67.15,118.41-100.72,1.36-1.15,2.79-2.2,4.32-3.12,7.39-4.46,15.38-8.96,23.98-13.36,11.27-5.78,22.08-10.64,32.21-14.74,17.23-6.97,116.58-50.52,366.62-161.25"/>
      <path class="cls-8" d="m877.36,32.14l20.36-8.98s27.82-13.69,40.12,13.49c0,0,19.45,25.4,49.21,5.56l34.92-13.49s28.38-11.71,40.08,9.33l119.48,128.15s20.7,26.63-3.73,44.02c0,0-20.29,17.8-42.85-4.55l-42.64-52.37s-16.35-25.67-41.19-11.39c-23.15,12.37-48.6,24.82-76.34,36.76-32.35,13.93-63.13,25.18-91.65,34.3-25.87,7.66-51.74,15.31-77.61,22.97,0,0-45.61,11.11-42.92,63.24,0,0-.58,58.09,23.48,79.61.64.58,1.28,1.16,1.88,1.78,4.31,4.5,24.95,24.91,47.82,28.95,2.47.44,4.94.92,7.37,1.54l167.71,42.76s57,13.33,28.41,71.06c0,0-22.18,46.63,19.26,64.75,35.52,16.52,71.03,33.04,106.55,49.56,2.7,1.54,7.57,4.85,11.04,10.89,6.69,11.64,2.63,23.78,1.93,25.79-5.81,11.75-11.62,23.51-17.43,35.26"/>
      <path class="cls-8" d="m209.1,608.38l75.46-57.38c15.69-11.13,15.86,10.29,15.86,10.29v10.97c.5,2.92,1.68,6.71,4.76,9.39,5.86,5.1,14.18,1.35,43.22-5.36,10.7-2.47,11.24-2.36,24.26-5.44,0,0,12.99-2.82,23.32-5.76,13.83-3.93,49.94-14.01,86.3-30.76,69.49-32.01,81.83-60.86,132.68-64.47,3.79-.27,7.32-.36,10.54-.35,7.35.03,14.65,1.21,21.65,3.45l95.79,30.75c12.16,4.02,30,11.31,48.24,24.96,32.92,24.63,44.62,53.11,62.99,82.02,14.47,22.76,37.78,53.19,76.05,84.49,4.59,3.76,9.06,7.68,13.33,11.8,12.47,12.05,31.09,27.35,56.38,39.99,28.85,14.42,75.55,37.77,116.44,17.25,7.91-3.97,30.31-16.96,44.24-53.08"/>
    </g>
    <g>
      <path class="cls-3" d="m209.1,608.38L30.25,747.49c-.39.3-.76.61-1.13.92-3.02,2.57-20.03,16.22-20.11-2.21-.01-3.38.59-6.74,1.63-9.96l25.26-77.82c.31-.96.67-1.91,1.07-2.84,4.38-10.23,31.53-72.71,47.26-88.19.47-.46.93-.93,1.37-1.42,0,0,77.3-79.77,124.35-140.27,1.47-1.89,2.25-2.91,2.88-3.76,19.49-25.92,18.89-35.88,29.63-49.08,1.35-1.67,17.88-21.46,43.28-27.05,8.3-1.83,16.9-2,28.59-7.92,9.08-4.61,14.73-10.21,17.49-12.56,39.47-33.57,78.94-67.15,118.41-100.72,1.36-1.15,2.79-2.2,4.32-3.12,7.39-4.46,15.38-8.96,23.98-13.36,11.27-5.78,22.08-10.64,32.21-14.74,17.23-6.97,116.58-50.52,366.62-161.25"/>
      <path class="cls-1" d="m877.36,32.14l20.36-8.98s27.82-13.69,40.12,13.49c0,0,19.45,25.4,49.21,5.56l34.92-13.49s28.38-11.71,40.08,9.33l119.48,128.15s20.7,26.63-3.73,44.02c0,0-20.29,17.8-42.85-4.55l-42.64-52.37s-16.35-25.67-41.19-11.39c-23.15,12.37-48.6,24.82-76.34,36.76-32.35,13.93-63.13,25.18-91.65,34.3-25.87,7.66-51.74,15.31-77.61,22.97,0,0-45.61,11.11-42.92,63.24,0,0-.58,58.09,23.48,79.61.64.58,1.28,1.16,1.88,1.78,4.31,4.5,24.95,24.91,47.82,28.95,2.47.44,4.94.92,7.37,1.54l167.71,42.76s57,13.33,28.41,71.06c0,0-22.18,46.63,19.26,64.75,35.52,16.52,71.03,33.04,106.55,49.56,2.7,1.54,7.57,4.85,11.04,10.89,6.69,11.64,2.63,23.78,1.93,25.79-5.81,11.75-11.62,23.51-17.43,35.26"/>
      <path class="cls-2" d="m209.1,608.38l75.46-57.38c15.69-11.13,15.86,10.29,15.86,10.29v10.97c.5,2.92,1.68,6.71,4.76,9.39,5.86,5.1,14.18,1.35,43.22-5.36,10.7-2.47,11.24-2.36,24.26-5.44,0,0,12.99-2.82,23.32-5.76,13.83-3.93,49.94-14.01,86.3-30.76,69.49-32.01,81.83-60.86,132.68-64.47,3.79-.27,7.32-.36,10.54-.35,7.35.03,14.65,1.21,21.65,3.45l95.79,30.75c12.16,4.02,30,11.31,48.24,24.96,32.92,24.63,44.62,53.11,62.99,82.02,14.47,22.76,37.78,53.19,76.05,84.49,4.59,3.76,9.06,7.68,13.33,11.8,12.47,12.05,31.09,27.35,56.38,39.99,28.85,14.42,75.55,37.77,116.44,17.25,7.91-3.97,30.31-16.96,44.24-53.08"/>
    </g>
    <g>
      <path class="cls-9" d="m270.33,588.63l-213.36,165.96c-.46.36-.91.72-1.35,1.1"/>
      <path class="cls-7" d="m270.33,588.63l-213.36,165.96c-.46.36-.91.72-1.35,1.1"/>
    </g>
    <g>
      <path class="cls-9" d="m497.9,170.91c17.23-6.97,116.58-50.52,366.62-161.25"/>
      <line class="cls-9" x1="857" y1="12.98" x2="877.36" y2="4"/>
      <path class="cls-7" d="m497.9,170.91c17.23-6.97,116.58-50.52,366.62-161.25"/>
      <line class="cls-7" x1="857" y1="12.98" x2="877.36" y2="4"/>
    </g>
    <circle class="cls-12" cx="134.81" cy="514.02" r="8.23"/>
    <circle class="cls-11" cx="365.32" cy="296.76" r="8.23"/>
    <circle class="cls-12" cx="422.73" cy="556.94" r="8.23"/>
    <rect class="cls-6" x="359.32" y="164.4" width="12" height="100" rx="6" ry="6"/>
    <rect class="cls-5" x="128.72" y="369.51" width="12" height="100" rx="6" ry="6"/>
    <rect class="cls-5" x="416.73" y="578.93" width="12" height="100" rx="6" ry="6"/>
    <rect class="cls-5" x="74.72" y="276.21" width="120" height="85" rx="12" ry="12"/>
    <rect class="cls-6" x="305.32" y="70.43" width="120" height="85" rx="12" ry="12"/>
    <text class="cls-13" transform="translate(116.78 302.47)"><tspan x="0" y="0">DRS</tspan><tspan x="-26.89" y="21.6">Detection</tspan><tspan x="-10.05" y="43.2">Zone 1</tspan></text>
    <rect class="cls-5" x="362.73" y="692.68" width="120" height="85" rx="12" ry="12"/>
    <text class="cls-13" transform="translate(404.79 718.94)"><tspan x="0" y="0">DRS</tspan><tspan x="-26.89" y="21.6">Detection</tspan><tspan x="-11.81" y="43.2">Zone 2</tspan></text>
    <text class="cls-13" transform="translate(311.61 117.74)"><tspan x="0" y="0">Speed Trap</tspan></text>
    <polygon points="145.74 637.11 171.54 622.1 160.75 611.31 145.74 637.11"/>
    <g>
      <rect x="201.88" y="577.42" width="5.01" height="5.01" transform="translate(702.98 939.79) rotate(145.23)"/>
      <rect class="cls-10" x="197.76" y="580.28" width="5.01" height="5.01" transform="translate(697.1 947.35) rotate(145.23)"/>
      <rect class="cls-10" x="189.52" y="586" width="5.01" height="5.01" transform="translate(685.36 962.47) rotate(145.23)"/>
      <rect x="193.64" y="583.14" width="5.01" height="5.01" transform="translate(691.23 954.91) rotate(145.23)"/>
      <rect x="185.4" y="588.86" width="5.01" height="5.01" transform="translate(-303.67 212.72) rotate(-34.77)"/>
      <rect x="207.64" y="585.73" width="5.01" height="5.01" transform="translate(718.21 951.63) rotate(145.23)"/>
      <rect class="cls-10" x="203.52" y="588.59" width="5.01" height="5.01" transform="translate(712.34 959.19) rotate(145.23)"/>
      <rect class="cls-10" x="195.28" y="594.31" width="5.01" height="5.01" transform="translate(700.59 974.31) rotate(145.23)"/>
      <rect x="199.4" y="591.45" width="5.01" height="5.01" transform="translate(706.47 966.75) rotate(145.23)"/>
      <rect x="191.16" y="597.17" width="5.01" height="5.01" transform="translate(-307.38 217.49) rotate(-34.77)"/>
      <rect x="192.4" y="590.16" width="5.01" height="5.01" transform="translate(-303.16 216.94) rotate(-34.77)"/>
      <rect class="cls-10" x="196.52" y="587.3" width="5.01" height="5.01" transform="translate(-300.79 218.78) rotate(-34.77)"/>
      <rect class="cls-10" x="204.76" y="581.58" width="5.01" height="5.01" transform="translate(-296.06 222.46) rotate(-34.77)"/>
      <rect class="cls-10" x="188.28" y="593.02" width="5.01" height="5.01" transform="translate(-305.52 215.1) rotate(-34.77)"/>
      <rect x="200.64" y="584.44" width="5.01" height="5.01" transform="translate(-298.43 220.62) rotate(-34.77)"/>
    </g>
    <text class="cls-13" transform="translate(649.34 88.73) rotate(-22.48)"><tspan x="0" y="0">DRS Zone 1</tspan></text>
    <text class="cls-13" transform="translate(151.02 720.51) rotate(-38.95)"><tspan x="0" y="0">DRS Zone 2</tspan></text>
  </g>
</svg>