<?xml version="1.0" encoding="UTF-8"?>
<svg id="Layer_2" data-name="Layer 2" xmlns="http://www.w3.org/2000/svg" viewBox="0 0 196.05 140.75">
  <defs>
    <style>
      .cls-1 {
        fill: #f6f1de;
      }

      .cls-2 {
        fill: #e6e6e6;
        stroke: #000;
        stroke-miterlimit: 10;
        stroke-width: 2px;
      }
    </style>
  </defs>
  <g id="Layer_1-2" data-name="Layer 1">
    <g>
      <path class="cls-1" d="m44.95,88.67C20.72,88.67,1,68.95,1,44.71,1,23.26,16.26,5.23,37.01,1.47c-9.19,8.51-14.4,20.35-14.4,33,0,24.81,20.19,45,45,45,1.52,0,3.04-.08,4.54-.23-7.73,6.1-17.27,9.42-27.2,9.42Z"/>
      <path d="m33.87,3.19c-7.86,8.45-12.26,19.53-12.26,31.28,0,25.36,20.64,46,46,46,.39,0,.78,0,1.18-.01-7.01,4.68-15.27,7.21-23.83,7.21-23.68,0-42.95-19.27-42.95-42.95C2,24.91,15.3,8.09,33.87,3.19m6.39-3.19C17.64,2.35,0,21.47,0,44.71c0,24.83,20.13,44.95,44.95,44.95,11.75,0,22.44-4.51,30.45-11.88-2.53.45-5.14.69-7.8.69-24.3,0-44-19.7-44-44,0-13.96,6.51-26.41,16.65-34.47h0Z"/>
    </g>
    <g>
      <path class="cls-2" d="m99,115.59c0,2.24-.62,4.34-1.69,6.14H29.83c-1.16-1.79-1.83-3.89-1.83-6.13,0-6.11,4.97-11.15,11.38-11.88,2.75-4.8,7.92-8.03,13.84-8.03,2.39,0,4.65.53,6.68,1.47,3.12-4.48,8.46-6.78,13.62-5.89,5.98,1.04,10.68,6.19,11.27,12.57.72-.14,1.48-.22,2.24-.22,6.61,0,11.96,5.36,11.96,11.97Z"/>
      <path class="cls-2" d="m195.05,112.69c0,2.71-.74,5.24-2.04,7.41h-81.43c-1.4-2.16-2.21-4.69-2.21-7.4,0-7.38,5.99-13.46,13.73-14.34,3.32-5.79,9.56-9.68,16.7-9.68,2.88,0,5.61.63,8.06,1.77,3.76-5.4,10.21-8.19,16.44-7.1,7.21,1.25,12.88,7.47,13.6,15.16.87-.17,1.78-.26,2.71-.26,7.97,0,14.44,6.46,14.44,14.44Z"/>
      <path class="cls-2" d="m164.25,130.26c0,3.47-.95,6.71-2.62,9.49H57.32c-1.8-2.77-2.83-6.01-2.83-9.48,0-9.45,7.68-17.24,17.59-18.37,4.25-7.41,12.24-12.41,21.4-12.41,3.69,0,7.19.81,10.33,2.27,4.82-6.92,13.07-10.49,21.06-9.1,9.24,1.6,16.51,9.57,17.42,19.43,1.12-.22,2.28-.33,3.47-.33,10.21,0,18.5,8.28,18.5,18.5Z"/>
    </g>
  </g>
</svg>