<?xml version="1.0" encoding="UTF-8"?>
<svg id="Layer_2" data-name="Layer 2" xmlns="http://www.w3.org/2000/svg" viewBox="0 0 1458.71 876.17">
  <defs>
    <style>
      .cls-1, .cls-2, .cls-3, .cls-4, .cls-5, .cls-6, .cls-7, .cls-8, .cls-9, .cls-10, .cls-11, .cls-12, .cls-13 {
        stroke-miterlimit: 10;
      }

      .cls-1, .cls-2, .cls-3, .cls-4, .cls-5, .cls-6, .cls-10, .cls-11, .cls-12, .cls-13 {
        fill: none;
      }

      .cls-1, .cls-2, .cls-6 {
        stroke-width: 8px;
      }

      .cls-1, .cls-2, .cls-6, .cls-7, .cls-8, .cls-9, .cls-11 {
        stroke: #000;
      }

      .cls-1, .cls-2, .cls-6, .cls-10, .cls-12, .cls-13 {
        stroke-linecap: round;
      }

      .cls-1, .cls-12 {
        stroke-dasharray: 0 15.5;
      }

      .cls-2, .cls-10 {
        stroke-dasharray: 0 14.92;
      }

      .cls-3 {
        stroke: #00a6ff;
      }

      .cls-3, .cls-4, .cls-5 {
        stroke-width: 6px;
      }

      .cls-4 {
        stroke: #ffd600;
      }

      .cls-5 {
        stroke: red;
      }

      .cls-6, .cls-13 {
        stroke-dasharray: 0 16;
      }

      .cls-14 {
        fill: #fff;
      }

      .cls-15, .cls-9 {
        fill: #ff73cb;
      }

      .cls-16, .cls-8 {
        fill: #0df400;
      }

      .cls-7 {
        stroke-width: 9px;
      }

      .cls-8, .cls-9 {
        stroke-width: 3px;
      }

      .cls-10, .cls-12, .cls-13 {
        stroke: lime;
        stroke-width: 4px;
      }

      .cls-17 {
        font-family: Poppins-Bold, Poppins;
        font-size: 18px;
        font-weight: 700;
      }

      .cls-11 {
        stroke-width: 18px;
      }
    </style>
  </defs>
  <g id="Layer_1-2" data-name="Layer 1">
    <g>
      <line class="cls-1" x1="241.26" y1="211.25" x2="935.48" y2="239.05"/>
      <line class="cls-12" x1="241.26" y1="211.25" x2="935.48" y2="239.05"/>
    </g>
    <g>
      <g>
        <line class="cls-2" x1="688.32" y1="387.64" x2="882.95" y2="501.31"/>
        <path class="cls-6" d="m701.23,395.17c-75.12-43.96-130.67-76.09-146.85-85.04-2.28-1.26-7.42-4.25-14.62-7.13-9.26-3.7-20.39-7.3-33.21-9.82-19.2-3.78-36-3.95-48.71-3.09-1.71.12-3.42.16-5.13.2"/>
      </g>
      <g>
        <line class="cls-10" x1="688.32" y1="387.64" x2="882.95" y2="501.31"/>
        <path class="cls-13" d="m701.23,395.17c-75.12-43.96-130.67-76.09-146.85-85.04-2.28-1.26-7.42-4.25-14.62-7.13-9.26-3.7-20.39-7.3-33.21-9.82-19.2-3.78-36-3.95-48.71-3.09-1.71.12-3.42.16-5.13.2"/>
      </g>
    </g>
    <circle class="cls-7" cx="208.81" cy="284.39" r="8.23"/>
    <circle class="cls-7" cx="264.07" cy="239.05" r="8.23"/>
    <circle class="cls-7" cx="1350.39" cy="282.4" r="8.23"/>
    <circle class="cls-7" cx="104.25" cy="682.26" r="8.23"/>
    <g>
      <path class="cls-11" d="m706.15,375.4l194.63,113.68s38.47,21.93,9.95,49.04c-4.42,4.2-9.68,7.42-15.32,9.73-14.24,5.84-50.98,25.92-37.68,73.85,0,0,24.11,71.05-121.43,98.18,0,0-69.76,12.92-152.43-40.05l-160.14-93.42s-.05-.03-.07-.04c-1.43-1-53.24-36.81-107.15,6.45-.03.02-.05.04-.07.06-1.55,1.5-62.3,59.46-121.8,0-.01-.01-.02-.02-.03-.04-.01-.01-.02-.02-.02-.02,0,0-21.66-23.09-46.98-32.64-37.94-14.31-82.4,2.42-107.49,22.03-16.6,12.98-22.88,25.77-24.54,29.38-2.61,5.65-8.43,18.72-5.98,35.42.82,5.55,3.22,22.34,16.39,30.88,3.94,2.55,7.77,3.62,12.33,4.86,12.41,3.36,23.1,3.03,29.95,2.28,10.03-1.77,22.32-3.1,36.34-2.81,10.86.23,26.39.4,45.65,6.67"/>
      <path class="cls-11" d="m150.25,688.89s66.39,26.95,133.25,21.75l206.9-3.96c3.2-.06,6.38-.17,9.58-.35,13.38-.73,65.4-1.77,114.62,21.66,5.84,2.78,11.49,5.95,16.91,9.46,17.91,11.62,108.82,61.67,293.09,20.94,20.19-4.46,40.08-10.22,59.6-17.07l171.5-60.22s188.59-76.4,212.41-105.07c.49-.59.99-1.15,1.51-1.71,1.76-1.91,5.68-7.34,1.4-14.28-.99-1.61-2.34-2.96-3.89-4.03l-45.94-31.79c-8.67-6-14.95-15-17.05-25.33-1.94-9.53-.83-21.74,8.67-35.59,2.09-3.05,4.78-5.64,7.91-7.6,5.76-3.6,15.99-8.09,28.84-5.8,0,0,64.49,8.68,80.16-23.23.44-.9.89-1.8,1.42-2.67l15.86-26.2s7.67-10.86-2.7-14.47c0,0-18.33-7.96-12.92-22.98l12.62-50.47s0,0,0,0c.09-.22,10.11-25.54-14.27-25.24l-79.32-2.25"/>
      <path class="cls-11" d="m1350.39,282.4L201.46,236.39s-20.93,0-20.73,17.15c0,0,.2,14.35,10.37,18.74l58.61,40.27s41.54,24.73,91.54-.76c2.33-1.19,4.56-2.56,6.71-4.05,10.89-7.55,55.42-36.03,109.69-37.21,1.71-.04,3.42-.08,5.13-.2,12.71-.86,29.51-.7,48.71,3.09,12.82,2.53,23.95,6.12,33.21,9.82,7.2,2.88,12.34,5.87,14.62,7.13,16.19,8.95,71.74,41.08,146.85,85.04"/>
    </g>
    <g>
      <path class="cls-5" d="m706.15,375.4l194.63,113.68s38.47,21.93,9.95,49.04c-4.42,4.2-9.68,7.42-15.32,9.73-14.24,5.84-50.98,25.92-37.68,73.85,0,0,24.11,71.05-121.43,98.18,0,0-69.76,12.92-152.43-40.05l-160.14-93.42s-.05-.03-.07-.04c-1.43-1-53.24-36.81-107.15,6.45-.03.02-.05.04-.07.06-1.55,1.5-62.3,59.46-121.8,0-.01-.01-.02-.02-.03-.04-.01-.01-.02-.02-.02-.02,0,0-21.66-23.09-46.98-32.64-37.94-14.31-82.4,2.42-107.49,22.03-16.6,12.98-22.88,25.77-24.54,29.38-2.61,5.65-8.43,18.72-5.98,35.42.82,5.55,3.22,22.34,16.39,30.88,3.94,2.55,7.77,3.62,12.33,4.86,12.41,3.36,23.1,3.03,29.95,2.28,10.03-1.77,22.32-3.1,36.34-2.81,10.86.23,26.39.4,45.65,6.67"/>
      <path class="cls-3" d="m150.25,688.89s66.39,26.95,133.25,21.75l206.9-3.96c3.2-.06,6.38-.17,9.58-.35,13.38-.73,65.4-1.77,114.62,21.66,5.84,2.78,11.49,5.95,16.91,9.46,17.91,11.62,108.82,61.67,293.09,20.94,20.19-4.46,40.08-10.22,59.6-17.07l171.5-60.22s188.59-76.4,212.41-105.07c.49-.59.99-1.15,1.51-1.71,1.76-1.91,5.68-7.34,1.4-14.28-.99-1.61-2.34-2.96-3.89-4.03l-45.94-31.79c-8.67-6-14.95-15-17.05-25.33-1.94-9.53-.83-21.74,8.67-35.59,2.09-3.05,4.78-5.64,7.91-7.6,5.76-3.6,15.99-8.09,28.84-5.8,0,0,64.49,8.68,80.16-23.23.44-.9.89-1.8,1.42-2.67l15.86-26.2s7.67-10.86-2.7-14.47c0,0-18.33-7.96-12.92-22.98l12.62-50.47s0,0,0,0c.09-.22,10.11-25.54-14.27-25.24l-79.32-2.25"/>
      <path class="cls-4" d="m1350.39,282.4L201.46,236.39s-20.93,0-20.73,17.15c0,0,.2,14.35,10.37,18.74l58.61,40.27s41.54,24.73,91.54-.76c2.33-1.19,4.56-2.56,6.71-4.05,10.89-7.55,55.42-36.03,109.69-37.21,1.71-.04,3.42-.08,5.13-.2,12.71-.86,29.51-.7,48.71,3.09,12.82,2.53,23.95,6.12,33.21,9.82,7.2,2.88,12.34,5.87,14.62,7.13,16.19,8.95,71.74,41.08,146.85,85.04"/>
    </g>
    <g>
      <path class="cls-2" d="m618.52,756.96c5.84,2.78,11.49,5.95,16.91,9.46,17.91,11.62,108.82,61.67,293.09,20.94,20.19-4.46,40.08-10.22,59.6-17.07l171.5-60.22s188.59-76.4,212.41-105.07"/>
      <path class="cls-10" d="m618.52,756.96c5.84,2.78,11.49,5.95,16.91,9.46,17.91,11.62,108.82,61.67,293.09,20.94,20.19-4.46,40.08-10.22,59.6-17.07l171.5-60.22s188.59-76.4,212.41-105.07"/>
    </g>
    <circle class="cls-16" cx="104.25" cy="682.26" r="8.23"/>
    <circle class="cls-16" cx="208.81" cy="284.39" r="8.23"/>
    <circle class="cls-16" cx="1350.39" cy="282.4" r="8.23"/>
    <circle class="cls-15" cx="264.07" cy="239.05" r="8.23"/>
    <path class="cls-8" d="m193.95,303.76c-2.34-2.34-6.14-2.34-8.49,0l-62.23,62.23c-1.19,1.19-1.77,2.75-1.75,4.31-.09.42-.14.85-.14,1.29v38c0,3.31,2.69,6,6,6s6-2.69,6-6v-36.74l60.6-60.6c2.34-2.34,2.34-6.14,0-8.49Z"/>
    <rect class="cls-9" x="258.07" y="102.63" width="12" height="100" rx="6" ry="6"/>
    <rect class="cls-8" x="1344.39" y="186.35" width="12" height="75" rx="6" ry="6"/>
    <rect class="cls-8" x="98.25" y="704.04" width="12" height="75" rx="6" ry="6"/>
    <rect class="cls-8" x="67.18" y="423.38" width="120" height="85" rx="12" ry="12"/>
    <text class="cls-17" transform="translate(109.24 450.46)"><tspan x="0" y="0">DRS</tspan><tspan x="-26.89" y="21.6">Detection</tspan><tspan x="-12.11" y="43.2">Zone 3</tspan></text>
    <rect class="cls-8" x="1290.39" y="94.34" width="120" height="85" rx="12" ry="12"/>
    <text class="cls-17" transform="translate(1332.44 121.41)"><tspan x="0" y="0">DRS</tspan><tspan x="-26.89" y="21.6">Detection</tspan><tspan x="-11.81" y="43.2">Zone 2</tspan></text>
    <rect class="cls-8" x="44.25" y="789.67" width="120" height="85" rx="12" ry="12"/>
    <text class="cls-17" transform="translate(86.31 816.74)"><tspan x="0" y="0">DRS</tspan><tspan x="-26.89" y="21.6">Detection</tspan><tspan x="-10.05" y="43.2">Zone 1</tspan></text>
    <rect class="cls-9" x="204.07" y="1.5" width="120" height="85" rx="12" ry="12"/>
    <text class="cls-17" transform="translate(235.23 40.04)"><tspan x="0" y="0">Speed</tspan><tspan x="7.45" y="21.6">Trap</tspan></text>
    <polygon points="761.75 386.13 740.84 364.83 733.04 377.94 761.75 386.13"/>
    <g>
      <rect x="724.21" y="357.35" width="5.01" height="5.01" transform="translate(1167.41 1040.6) rotate(-149.26)"/>
      <rect class="cls-14" x="719.9" y="354.79" width="5.01" height="5.01" transform="translate(1160.7 1033.63) rotate(-149.26)"/>
      <rect class="cls-14" x="711.28" y="349.66" width="5.01" height="5.01" transform="translate(1147.29 1019.7) rotate(-149.26)"/>
      <rect x="715.59" y="352.22" width="5.01" height="5.01" transform="translate(1154 1026.66) rotate(-149.26)"/>
      <rect x="706.97" y="347.1" width="5.01" height="5.01" transform="translate(278.37 -313.52) rotate(30.74)"/>
      <rect x="719.04" y="366.04" width="5.01" height="5.01" transform="translate(1153.36 1054.12) rotate(-149.26)"/>
      <rect class="cls-14" x="714.73" y="363.48" width="5.01" height="5.01" transform="translate(1146.65 1047.15) rotate(-149.26)"/>
      <rect class="cls-14" x="706.11" y="358.35" width="5.01" height="5.01" transform="translate(1133.24 1033.21) rotate(-149.26)"/>
      <rect x="710.42" y="360.91" width="5.01" height="5.01" transform="translate(1139.95 1040.18) rotate(-149.26)"/>
      <rect x="701.8" y="355.79" width="5.01" height="5.01" transform="translate(282.09 -309.65) rotate(30.74)"/>
      <rect x="708.7" y="354.01" width="5.01" height="5.01" transform="translate(282.14 -313.43) rotate(30.74)"/>
      <rect class="cls-14" x="713.01" y="356.57" width="5.01" height="5.01" transform="translate(284.06 -315.27) rotate(30.74)"/>
      <rect class="cls-14" x="721.63" y="361.69" width="5.01" height="5.01" transform="translate(287.89 -318.96) rotate(30.74)"/>
      <rect class="cls-14" x="704.39" y="351.44" width="5.01" height="5.01" transform="translate(280.23 -311.59) rotate(30.74)"/>
      <rect x="717.32" y="359.13" width="5.01" height="5.01" transform="translate(285.98 -317.11) rotate(30.74)"/>
    </g>
    <text class="cls-17" transform="translate(1019.25 787.15) rotate(-17.68)"><tspan x="0" y="0">DRS Zone 1</tspan></text>
    <text class="cls-17" transform="translate(527.38 205.72) rotate(1.21)"><tspan x="0" y="0">DRS Zone 2</tspan></text>
    <text class="cls-17" transform="translate(636.5 390.08) rotate(30.74)"><tspan x="0" y="0">DRS Zone 3</tspan></text>
  </g>
</svg>