<?xml version="1.0" encoding="UTF-8"?>
<svg id="Layer_2" data-name="Layer 2" xmlns="http://www.w3.org/2000/svg" viewBox="0 0 1147.73 986.65">
  <defs>
    <style>
      .cls-1 {
        stroke: #00a6ff;
      }

      .cls-1, .cls-2, .cls-3 {
        stroke-width: 6px;
      }

      .cls-1, .cls-2, .cls-3, .cls-4, .cls-5, .cls-6, .cls-7, .cls-8, .cls-9, .cls-10, .cls-11 {
        stroke-miterlimit: 10;
      }

      .cls-1, .cls-2, .cls-3, .cls-4, .cls-5, .cls-6, .cls-10, .cls-11 {
        fill: none;
      }

      .cls-2 {
        stroke: #ffd600;
      }

      .cls-3 {
        stroke: red;
      }

      .cls-4, .cls-5, .cls-6, .cls-11 {
        stroke-linecap: round;
      }

      .cls-4, .cls-6 {
        stroke-width: 8px;
      }

      .cls-4, .cls-6, .cls-7, .cls-8, .cls-9, .cls-10 {
        stroke: #000;
      }

      .cls-4, .cls-11 {
        stroke-dasharray: 0 16;
      }

      .cls-12 {
        fill: #fff;
      }

      .cls-13, .cls-9 {
        fill: #ff73cb;
      }

      .cls-14, .cls-8 {
        fill: #0df400;
      }

      .cls-5, .cls-6 {
        stroke-dasharray: 0 15;
      }

      .cls-5, .cls-11 {
        stroke: lime;
        stroke-width: 4px;
      }

      .cls-7 {
        stroke-width: 9px;
      }

      .cls-8, .cls-9 {
        stroke-width: 3px;
      }

      .cls-15 {
        font-family: Poppins-Bold, Poppins;
        font-size: 18px;
        font-weight: 700;
      }

      .cls-10 {
        stroke-width: 18px;
      }
    </style>
  </defs>
  <g id="Layer_1-2" data-name="Layer 1">
    <circle class="cls-7" cx="1026.23" cy="304.39" r="8.23"/>
    <circle class="cls-7" cx="558.34" cy="215.03" r="8.23"/>
    <circle class="cls-7" cx="32.65" cy="417.24" r="8.23"/>
    <circle class="cls-7" cx="681.05" cy="777.46" r="8.23"/>
    <g>
      <path class="cls-10" d="m850,642.82l-202.35,161.25s-13.7,11.7-26.26-6.57c-2.12-3.09-16.06-11.61-43.68-28.83-44.94-28.03-94.06-52.93-139.53-83.75-32.39-21.95-52.88-40.1-91.12-73.98-61.97-54.89-68.81-70.76-108.21-98.82-23.03-16.4-58.31-37.77-108.02-54.61"/>
      <path class="cls-10" d="m130.82,457.51l-115.31-47.09s-14.4-6.65,0-17.73c0,0,25.49-15.29,55.91-31.58,44.19-23.67,77.75-34.83,85.46-37.55,9.41-3.33,16.55-5.6,18.87-6.33,34.39-10.85,57.9-14.5,86.44-19.86,66.35-12.47,103.91-23.74,142.49-31.71,12.77-2.64,25.35-6.06,37.7-10.26,43.38-14.75,146.89-50.31,160.45-58.39,0,0,28.94-9.52,28.57,24.54-1.34,10.29-3.99,24.38-9.66,40.38-6.01,16.97-17.55,48.33-47.71,74.4-26.73,23.1-55.5,31.17-71.56,34.29l-109.15,26.01s-38.06,8.16-49.07,44.37c-3.55,11.67-3.41,24.11-.31,35.9,2.63,10.03,7.87,22.45,18.25,30.34,33.27,25.09,66.55,50.19,99.82,75.28"/>
      <path class="cls-10" d="m850,642.82l204.75-162.19c10.53-8.34,20.24-17.66,28.88-27.95,15.26-18.19,32.05-44.34,18.8-59.73l-74.04-86c-1.76-2.04-3.37-4.19-4.95-6.37-23-31.73-67.92-9.76-67.92-9.76l-323.06,147.32c-26.52,13.92-40.31,30.33-47.8,42-13.07,20.35-23.23,51.59-24.3,54.91-5.08,15.83-5.74,22.65-12.86,32.34-2.78,3.78-13.52,17.95-33.25,23.61-26.58,7.62-48.66-6.16-52.23-8.47"/>
    </g>
    <g>
      <path class="cls-3" d="m850,642.82l-202.35,161.25s-13.7,11.7-26.26-6.57c-2.12-3.09-16.06-11.61-43.68-28.83-44.94-28.03-94.06-52.93-139.53-83.75-32.39-21.95-52.88-40.1-91.12-73.98-61.97-54.89-68.81-70.76-108.21-98.82-23.03-16.4-58.31-37.77-108.02-54.61"/>
      <path class="cls-1" d="m130.82,457.51l-115.31-47.09s-14.4-6.65,0-17.73c0,0,25.49-15.29,55.91-31.58,44.19-23.67,77.75-34.83,85.46-37.55,9.41-3.33,16.55-5.6,18.87-6.33,34.39-10.85,57.9-14.5,86.44-19.86,66.35-12.47,103.91-23.74,142.49-31.71,12.77-2.64,25.35-6.06,37.7-10.26,43.38-14.75,146.89-50.31,160.45-58.39,0,0,28.94-9.52,28.57,24.54-1.34,10.29-3.99,24.38-9.66,40.38-6.01,16.97-17.55,48.33-47.71,74.4-26.73,23.1-55.5,31.17-71.56,34.29l-109.15,26.01s-38.06,8.16-49.07,44.37c-3.55,11.67-3.41,24.11-.31,35.9,2.63,10.03,7.87,22.45,18.25,30.34,33.27,25.09,66.55,50.19,99.82,75.28"/>
      <path class="cls-2" d="m850,642.82l204.75-162.19c10.53-8.34,20.24-17.66,28.88-27.95,15.26-18.19,32.05-44.34,18.8-59.73l-74.04-86c-1.76-2.04-3.37-4.19-4.95-6.37-23-31.73-67.92-9.76-67.92-9.76l-323.06,147.32c-26.52,13.92-40.31,30.33-47.8,42-13.07,20.35-23.23,51.59-24.3,54.91-5.08,15.83-5.74,22.65-12.86,32.34-2.78,3.78-13.52,17.95-33.25,23.61-26.58,7.62-48.66-6.16-52.23-8.47"/>
    </g>
    <g>
      <g>
        <path class="cls-4" d="m616.86,819.53c-2.12-3.09-16.06-11.61-43.68-28.83-44.94-28.03-94.06-52.93-139.53-83.75-32.39-21.95-52.88-40.1-91.12-73.98-61.97-54.89-68.81-70.76-108.21-98.82-23.03-16.4-58.31-37.77-108.02-54.61"/>
        <line class="cls-4" x1="121.62" y1="477.5" x2="4" y2="436.51"/>
      </g>
      <g>
        <path class="cls-11" d="m616.86,819.53c-2.12-3.09-16.06-11.61-43.68-28.83-44.94-28.03-94.06-52.93-139.53-83.75-32.39-21.95-52.88-40.1-91.12-73.98-61.97-54.89-68.81-70.76-108.21-98.82-23.03-16.4-58.31-37.77-108.02-54.61"/>
        <line class="cls-11" x1="121.62" y1="477.5" x2="4" y2="436.51"/>
      </g>
    </g>
    <g>
      <g>
        <g>
          <line class="cls-6" x1="874.69" y1="648.63" x2="672.34" y2="809.88"/>
          <path class="cls-6" d="m862.69,657.91l204.75-162.19"/>
        </g>
        <path class="cls-5" d="m862.69,657.91l204.75-162.19"/>
      </g>
      <line class="cls-5" x1="874.69" y1="648.63" x2="672.34" y2="809.88"/>
    </g>
    <g>
      <path class="cls-6" d="m54.55,338.27c44.19-23.67,77.75-34.83,85.46-37.55,9.41-3.33,16.55-5.6,18.87-6.33,34.39-10.85,57.9-14.5,86.44-19.86,66.35-12.47,103.91-23.74,142.49-31.71,12.77-2.64,25.35-6.06,37.7-10.26,43.38-14.75,146.89-50.31,160.45-58.39"/>
      <path class="cls-5" d="m54.55,338.27c44.19-23.67,77.75-34.83,85.46-37.55,9.41-3.33,16.55-5.6,18.87-6.33,34.39-10.85,57.9-14.5,86.44-19.86,66.35-12.47,103.91-23.74,142.49-31.71,12.77-2.64,25.35-6.06,37.7-10.26,43.38-14.75,146.89-50.31,160.45-58.39"/>
    </g>
    <circle class="cls-14" cx="1026.23" cy="304.39" r="8.23"/>
    <circle class="cls-13" cx="558.34" cy="215.03" r="8.23"/>
    <circle class="cls-14" cx="32.65" cy="417.24" r="8.23"/>
    <circle class="cls-14" cx="681.05" cy="777.46" r="8.23"/>
    <polygon points="795.35 660.91 822.24 647.95 812.33 636.36 795.35 660.91"/>
    <rect class="cls-9" x="552.34" y="93.64" width="12" height="75" rx="6" ry="6"/>
    <rect class="cls-9" x="498.34" y="1.5" width="120" height="85" rx="12" ry="12"/>
    <text class="cls-15" transform="translate(506.2 49.31)"><tspan x="0" y="0">Speed Trap</tspan></text>
    <path class="cls-8" d="m709.57,801.08c-2.34-2.34-6.14-2.34-8.49,0s-2.34,6.14,0,8.49l32.72,32.72v45.81c0,3.31,2.69,6,6,6h0c3.31,0,6-2.69,6-6v-48.25c0-1.58-.62-3-1.62-4.07-.15-.2-.32-.4-.5-.58l-34.12-34.12Z"/>
    <path class="cls-8" d="m1090.51,204.06c0-3.31-2.69-6-6-6s-6,2.69-6,6v46.28l-32.4,32.4c-2.34,2.34-2.34,6.14,0,8.48h0c2.34,2.34,6.14,2.34,8.49,0l34.12-34.12c1.12-1.12,1.68-2.56,1.74-4.02.03-.25.05-.5.05-.76v-48.25Z"/>
    <path class="cls-8" d="m24.42,463.51c0-3.31,2.69-6,6-6s6,2.69,6,6v46.28l32.4,32.4c2.34,2.34,2.34,6.14,0,8.48h0c-2.34,2.34-6.14,2.34-8.49,0l-34.12-34.12c-1.12-1.12-1.68-2.56-1.74-4.02-.03-.25-.05-.5-.05-.76v-48.25Z"/>
    <rect class="cls-8" x="24.42" y="564.53" width="120" height="85" rx="12" ry="12"/>
    <text class="cls-15" transform="translate(66.47 591.61)"><tspan x="0" y="0">DRS</tspan><tspan x="-26.89" y="21.6">Detection</tspan><tspan x="-11.81" y="43.2">Zone 2</tspan></text>
    <rect class="cls-8" x="678.48" y="900.15" width="120" height="85" rx="12" ry="12"/>
    <text class="cls-15" transform="translate(720.54 927.23)"><tspan x="0" y="0">DRS</tspan><tspan x="-26.89" y="21.6">Detection</tspan><tspan x="-10.05" y="43.2">Zone 1</tspan></text>
    <rect class="cls-8" x="1026.23" y="105.91" width="120" height="85" rx="12" ry="12"/>
    <text class="cls-15" transform="translate(1068.28 132.99)"><tspan x="0" y="0">DRS</tspan><tspan x="-26.89" y="21.6">Detection</tspan><tspan x="-12.11" y="43.2">Zone 3</tspan></text>
    <g>
      <rect x="839.32" y="613.38" width="5.01" height="5.01" transform="translate(1884.04 573.64) rotate(141.49)"/>
      <rect class="cls-12" x="835.4" y="616.5" width="5.01" height="5.01" transform="translate(1878.99 581.65) rotate(141.49)"/>
      <rect class="cls-12" x="827.55" y="622.75" width="5.01" height="5.01" transform="translate(1868.89 597.67) rotate(141.49)"/>
      <rect x="831.47" y="619.63" width="5.01" height="5.01" transform="translate(1873.94 589.66) rotate(141.49)"/>
      <rect x="823.63" y="625.87" width="5.01" height="5.01" transform="translate(-211.58 651.08) rotate(-38.51)"/>
      <rect x="845.62" y="621.29" width="5.01" height="5.01" transform="translate(1900.19 583.82) rotate(141.49)"/>
      <rect class="cls-12" x="841.69" y="624.41" width="5.01" height="5.01" transform="translate(1895.14 591.83) rotate(141.49)"/>
      <rect class="cls-12" x="833.85" y="630.66" width="5.01" height="5.01" transform="translate(1885.04 607.85) rotate(141.49)"/>
      <rect x="837.77" y="627.54" width="5.01" height="5.01" transform="translate(1890.09 599.84) rotate(141.49)"/>
      <rect x="829.92" y="633.78" width="5.01" height="5.01" transform="translate(-215.13 656.72) rotate(-38.51)"/>
      <rect x="830.7" y="626.7" width="5.01" height="5.01" transform="translate(-210.56 655.67) rotate(-38.51)"/>
      <rect class="cls-12" x="834.62" y="623.58" width="5.01" height="5.01" transform="translate(-207.76 657.43) rotate(-38.51)"/>
      <rect class="cls-12" x="842.47" y="617.34" width="5.01" height="5.01" transform="translate(-202.16 660.96) rotate(-38.51)"/>
      <rect class="cls-12" x="826.77" y="629.83" width="5.01" height="5.01" transform="translate(-213.35 653.9) rotate(-38.51)"/>
      <rect x="838.55" y="620.46" width="5.01" height="5.01" transform="translate(-204.96 659.19) rotate(-38.51)"/>
    </g>
    <text class="cls-15" transform="translate(863.94 694.54) rotate(-40.53)"><tspan x="0" y="0">DRS Zone 1</tspan></text>
    <text class="cls-15" transform="translate(273.87 607.01) rotate(41.15)"><tspan x="0" y="0">DRS Zone 2</tspan></text>
    <text class="cls-15" transform="translate(310.67 247.37) rotate(-13.15)"><tspan x="0" y="0">DRS Zone 3</tspan></text>
  </g>
</svg>