<?xml version="1.0" encoding="UTF-8"?>
<svg id="Layer_2" data-name="Layer 2" xmlns="http://www.w3.org/2000/svg" viewBox="0 0 150.95 171.44">
  <defs>
    <style>
      .cls-1 {
        fill: #f6f1de;
      }

      .cls-2 {
        fill: #b3b3b3;
        stroke-width: 2px;
      }

      .cls-2, .cls-3 {
        stroke: #000;
        stroke-miterlimit: 10;
      }

      .cls-3 {
        fill: #29abe2;
        stroke-width: 1.5px;
      }
    </style>
  </defs>
  <g id="Layer_1-2" data-name="Layer 1">
    <g>
      <path class="cls-1" d="m53.18,105.06C24.41,105.06,1,81.66,1,52.89,1,27.21,19.42,5.67,44.36,1.45c-11.12,10.06-17.44,24.2-17.44,39.32,0,29.25,23.8,53.05,53.05,53.05,2,0,4-.11,5.98-.33-9.26,7.49-20.77,11.58-32.78,11.58Z"/>
      <path d="m41.19,3.13c-9.77,10.04-15.26,23.42-15.26,37.65,0,29.8,24.25,54.05,54.05,54.05.88,0,1.76-.02,2.64-.06-8.57,6.04-18.81,9.31-29.44,9.31-28.22,0-51.18-22.96-51.18-51.18,0-12.74,4.71-24.94,13.26-34.37,6.96-7.68,16-13.01,25.93-15.39m6.44-3.13C20.86,2.78,0,25.4,0,52.89c0,29.37,23.81,53.18,53.18,53.18,13.9,0,26.55-5.33,36.02-14.06-2.99.54-6.07.81-9.22.81-28.74,0-52.05-23.3-52.05-52.05,0-16.52,7.7-31.24,19.7-40.77h0Z"/>
    </g>
    <path class="cls-2" d="m149.95,95.77c0,4.52-1.24,8.75-3.41,12.37H10.5c-2.34-3.61-3.69-7.84-3.69-12.36,0-12.33,10.01-22.48,22.94-23.95,5.54-9.67,15.96-16.18,27.9-16.18,4.81,0,9.37,1.06,13.47,2.95,6.28-9.02,17.05-13.68,27.46-11.87,12.05,2.09,21.53,12.47,22.72,25.33,1.46-.29,2.98-.43,4.52-.43,13.32,0,24.12,10.8,24.12,24.13Z"/>
    <path class="cls-3" d="m86.75,155.86l-8.36-13.03-8.36,13.04c-1.64,2.56-2.19,5.74-1.2,8.61.74,2.14,2.35,4.29,5.65,5.52,2.5.93,5.31.93,7.81,0,3.31-1.23,4.92-3.38,5.66-5.52.99-2.87.44-6.05-1.2-8.61Z"/>
    <path class="cls-3" d="m58.82,129.21l-8.36-13.03-8.36,13.04c-1.64,2.56-2.19,5.74-1.2,8.61.74,2.14,2.35,4.29,5.65,5.52,2.5.93,5.31.93,7.81,0,3.31-1.23,4.92-3.38,5.66-5.52.99-2.87.44-6.05-1.2-8.61Z"/>
    <path class="cls-3" d="m121.37,118.13l-10.91-17-10.91,17c-2.14,3.33-2.86,7.49-1.56,11.23.96,2.79,3.06,5.6,7.37,7.21,3.27,1.21,6.92,1.21,10.19,0,4.32-1.6,6.41-4.41,7.38-7.21,1.29-3.75.58-7.9-1.56-11.23Z"/>
  </g>
</svg>