<?xml version="1.0" encoding="UTF-8"?>
<svg id="Layer_2" data-name="Layer 2" xmlns="http://www.w3.org/2000/svg" viewBox="0 0 1396.69 696.54">
  <defs>
    <style>
      .cls-1 {
        stroke: #00a6ff;
      }

      .cls-1, .cls-2, .cls-3 {
        fill: none;
        stroke-miterlimit: 10;
        stroke-width: 6px;
      }

      .cls-2 {
        stroke: #ffd600;
      }

      .cls-3 {
        stroke: red;
      }
    </style>
  </defs>
  <g id="Layer_1-2" data-name="Layer 1">
    <g>
      <path class="cls-3" d="m55.6,344.76l331.83,314.29s81.61,77.62,57.24,0l-22.82-85.99c-1.12-4.23-1.61-8.61-1.44-12.98.63-15.73,4.44-53.06,26.03-68.63,1.47-1.06,3.04-1.96,4.65-2.79l129-67.02c3.31-1.66,8-4.43,12.71-8.9,4.58-4.35,7.56-8.77,10.62-14.13,7.88-13.82,6.57-16.87,11.82-26.22,2.83-5.05,13.18-23.48,29.36-27.63,3.05-.78,8.71-1.81,17.35-4.83,2.74-.96,5.75-2.17,9.12-3.79,10.58-5.09,20.09-9.66,26.88-18.96,10.18-13.93,4-24.43,12.62-45.47,3.81-9.31,8.82-16.52,13.11-21.67,1.85-2.23,3.92-4.25,6.17-6.07,5.41-4.38,12.05-9.09,19.99-13.53,8.59-4.8,16.63-8.12,23.46-10.44,4.91-1.56,12.66-3.33,21.91-2.34,6.45.69,12.07,2.55,27.82,10.59,7.62,3.89,17.64,9.24,29.24,16.12"/>
      <path class="cls-1" d="m852.26,244.35l28.05,17.27c.57.35,1.12.73,1.65,1.14,2.26,1.72,10.88,7.05,23.43-.48,14.64-8.79,26.86-13.31,53.1-44.52.22-.26.43-.52.63-.79,2.54-3.32,7.39-8.74,15.2-12.82,9.24-4.82,17.79-5.25,21.96-5.18,4.05.1,13.42.91,22.35,7.26,6.05,4.31,9.38,9.37,10.29,10.82,2.4,3.82,2.3,5.23,4.16,9.03.97,1.98,3.44,7,7.48,11.2,3.83,3.98,9.23,6.05,14.75,5.82,3.14-.13,7.77-.48,14.54-1.26h0l108.23-12.64s19.77-1.53,31.94-19.45c.63-.93,1.32-1.81,2.1-2.61l168.73-171.29c.41-.42.81-.86,1.18-1.31,3.62-4.43,21.42-27.42,4.36-31.14-2.54-.55-5.17-.47-7.71.08l-99.14,21.21c-22.95,5.29-46.67,10.32-71.15,15-41.93,8.01-82.29,14.25-120.81,19.08-42.96,6.58-87.68,12.42-134.07,17.29-78.65,8.25-153.44,12.78-223.76,14.6l-204.28,4.93c-.43.01-.87,0-1.3-.01-3.11-.11-6.85.29-8.63,2.74-3.62,4.96,3.02,15.27,10.57,27.32,5.8,9.26,14.62,23.52,25.65,42.06"/>
      <path class="cls-2" d="m55.6,344.76l-46.68-44.12s-15.91-14.44,4.42-21.8l174.55-58.09c.87-.29,1.72-.6,2.57-.95,4.62-1.86,25.24-8.73,36.19,11.6l62.76,102.82c4.22,6.98,28.73,46.05,74.06,53.84,25.15,4.32,47.03-2.62,57.93-6.11,10.23-3.28,22.02-7.21,33.48-17.83,8.55-7.93,13.51-16.42,16.31-22.24,3.76-6.84,7.8-16.25,9.76-27.92,4.95-29.48-6.84-53.24-12.16-62.49-.4-.69-.77-1.38-1.13-2.09-13.85-27.4-27.7-54.81-41.54-82.21,0,0-9.13-17.38,14.73-16.5,3.98-.19,10.19-.07,17.24,2.06,21.75,6.57,32.93,26.56,39.74,38.74,3.51,6.27,8.04,15.76,11.24,28.28.68,2.67,1.14,5.41,1.28,8.16.26,5.06,2.82,16.52,20.37,18.8l35.65,5.01s26.79,4.59,19.83-19.7c-.86-3.01-2.13-5.9-3.65-8.65-10.26-18.58-20.51-37.15-30.77-55.73"/>
    </g>
  </g>
</svg>