<?xml version="1.0" encoding="UTF-8"?>
<svg id="Layer_2" data-name="Layer 2" xmlns="http://www.w3.org/2000/svg" viewBox="0 0 1433.66 798.61">
  <defs>
    <style>
      .cls-1 {
        stroke: #00a6ff;
      }

      .cls-1, .cls-2, .cls-3 {
        fill: none;
        stroke-miterlimit: 10;
        stroke-width: 6px;
      }

      .cls-2 {
        stroke: #ffd600;
      }

      .cls-3 {
        stroke: red;
      }
    </style>
  </defs>
  <g id="Layer_1-2" data-name="Layer 1">
    <g>
      <path class="cls-3" d="m1069.73,101.48c-66.27,1.58-132.53,3.16-198.8,4.73-5.99.14-11.99-.38-17.87-1.56-16.27-3.27-31.52-6.41-45.64-9.36-42.99-9-54.87-12.01-79.13-15.83-17.59-2.77-33.67-5.25-55.1-6.45-16.32-.91-34.66-1.02-65.06,1.17-45.34,3.27-49.61,6.74-110.98,14.12,0,0-58.36,7.01-117.62,26.91-4.62,1.55-14.14,5.04-19.29,14.02-1.32,2.31-2.14,4.61-2.66,6.71-.58,2.4-.76,4.88-.67,7.35.24,6.62-.62,29.12-22.29,38.79l-58.77,30.44c-.65.33-1.3.65-1.96.96-3.76,1.78-22.07,12.17-31.29,49.05-.24.97-.53,1.93-.87,2.87l-95,262.1c-.33.92-.73,1.81-1.16,2.69-1.8,3.64-6.92,16.6-1.25,37.29.86,3.13,2.07,6.15,3.5,9.07,4.51,9.26,15.59,36.1,0,49.4-.61.52-1.23,1.03-1.83,1.57-23.27,21.21-46.54,42.42-69.81,63.63"/>
      <path class="cls-1" d="m76.17,691.15l-61.38,55.25c-2.33,2.1-4.33,4.54-5.92,7.26-4.78,8.2-11.83,25.19,3.35,36.21,4.05,2.94,8.84,4.65,13.8,5.25,5.86.71,15.4.96,28.8-1.47l202.62-34.55s59.42-11.79,106.35-.35c.94.23,73.46,10.73,73.46,10.73,1.17.17,46.45,10.32,60.09-18.23,0,0,38.46-68.38,34.9-111.47,0,0-3.41-44.39-13.59-68.64-.5-1.2-.91-2.45-1.24-3.7l-21.49-80.08s-6.83-21.17,8.6-40.78c.66-.84,1.31-1.7,1.88-2.6l25.68-40.06c.26-.41.5-.83.73-1.25,1.33-2.41,3.54-5.45,7.13-7.33,11.56-6.03,24.92,6.56,46.61,11.57,8.02,1.85,141.09-3.84,194.27-6.1"/>
      <path class="cls-2" d="m1069.73,101.48c13.17-.36,27.67-1.47,43.21-3.77,28.16-4.18,52.42-11.2,72.16-18.48,56.95-23.8,113.9-47.6,170.84-71.4,33.66-15.3,44.37,10.71,44.37,10.71l26.74,55.05c12.65,21.46-11.95,32.16-11.95,32.16l-69.87,32.64c-56.61,18.87-100.47,80.07-100.47,80.07-65.79,85.68-152.99,136.17-152.99,136.17l-108.68,50.32c-2.67,1.24-5.29,2.59-7.81,4.12-30.11,18.25-33-1.89-33-1.89-3.53-14.56-18-13.43-18-13.43-47.81,2.36-95.63,4.72-143.44,7.08"/>
    </g>
  </g>
</svg>