<?xml version="1.0" encoding="UTF-8"?>
<svg id="Layer_2" data-name="Layer 2" xmlns="http://www.w3.org/2000/svg" viewBox="0 0 1375.5 676.58">
  <defs>
    <style>
      .cls-1 {
        stroke: #00a6ff;
      }

      .cls-1, .cls-2, .cls-3 {
        fill: none;
        stroke-miterlimit: 10;
        stroke-width: 6px;
      }

      .cls-2 {
        stroke: #ffd600;
      }

      .cls-3 {
        stroke: red;
      }
    </style>
  </defs>
  <g id="Layer_1-2" data-name="Layer 1">
    <g>
      <path class="cls-1" d="m789.73,665.31l-241.56,7.64c-1.16.04-2.32.13-3.47.33-4.36.74-19.21,1.69-25.54-17.94-.14-.43-.26-.88-.38-1.32-1.72-6.47-19.25-64.5-94.12-56.4-29.8,3.18-62.2,5.03-96.85,4.69-95.39-.94-177.1-18.13-240.68-37.68-.78-.24-1.55-.44-2.35-.61-4.15-.88-20.34-5.4-16.67-22.08.74-3.34,2.21-6.48,4.16-9.29l32.89-47.38c1.13-1.63,2.12-3.37,2.84-5.22.82-2.1,1.49-4.57,1.69-7.36,1-13.44-9.38-23.02-12.26-25.42-.44-.37-.87-.74-1.29-1.13L13.33,369.3c-2.29-2.36-6.88-7.71-9.1-16.02-1.93-7.21-1.21-13.42-.4-17.15.42-1.93.77-3.87,1.05-5.82,3.62-24.93,7.23-49.85,10.85-74.78.42-2.9.99-5.78,1.73-8.61,6.36-24.57,13.71-42.18,19.54-54.11,3.95-8.09,14.38-28.24,24.74-57.52h0"/>
      <path class="cls-2" d="m61.75,135.28c1.73-4.79,4.18-12.21,6.24-21.5,4.53-20.43,1.69-25.14,5.48-31.62,7.72-13.21,27.25-1.58,57.73-14.54,7.99-3.4,13.35-6.97,24.09-14.12,20.03-13.34,25.75-21.31,36.96-29.49,23.11-16.86,48.6-19.24,59.39-20.35,32.91-3.39,59.97,6.81,75.63,14.56,19.29,9.54,32.56,17.5,53.61,32.88,17.08,12.48,39.67,30.53,64.21,55.17,8.51,11.16,20.88,28.99,32.32,52.94,7.15,14.97,9.48,22.97,17.63,42.09,6.07,14.24,15.46,34.86,28.97,59.46,13.06,20.76,40.84,58.49,89.94,86.26,72.21,40.84,144.14,33.04,168.38,29.24"/>
      <path class="cls-3" d="m782.33,376.26s37.62-6.24,67.6-6.96c0,0,14.99,1.21,27.56-19.1l30.46-42.07s5.8-12.09,31.92-10.64l134.43-13.06s57.54-10.88,125.24,33.12l141.69,75.92,20.31,12.09s24.66,7.25,0,34.82c0,0-55.61,88.49-61.9,109.29,0,0-18.86,42.55-70.6,20.31l-99.62-23.69s-29.01-7.74-16.92,33.37c0,0,25.63,86.56-54.64,81.72l-268.13,3.93"/>
    </g>
  </g>
</svg>