<?xml version="1.0" encoding="UTF-8"?>
<svg id="Layer_2" data-name="Layer 2" xmlns="http://www.w3.org/2000/svg" viewBox="0 0 1272.55 692.77">
  <defs>
    <style>
      .cls-1 {
        stroke: #00a6ff;
      }

      .cls-1, .cls-2, .cls-3 {
        fill: none;
        stroke-miterlimit: 10;
        stroke-width: 6px;
      }

      .cls-2 {
        stroke: #ffd600;
      }

      .cls-3 {
        stroke: red;
      }
    </style>
  </defs>
  <g id="Layer_1-2" data-name="Layer 1">
    <g>
      <path class="cls-3" d="m969.43,232.42l290.5,355.69c2.61,4.3,6.02,10.93,8,19.55,4.51,19.56-1.37,35.97-6.03,48.47-5.32,14.27-7.98,21.4-15.23,26.89-4.34,3.29-9.18,5.15-14.05,6.07-16.1,3.04-32.4-4.36-41.43-18.03l-58.79-89s-11.46-17.05-37-17.34c-2.21-.03-4.42.11-6.61.34-6.1.64-32,1.83-48.4-21.79-3.53-5.08-6.06-10.78-7.74-16.73l-13.14-46.55c-1.91-4.74-4.86-10.11-9.48-15.14-17.9-19.52-45.75-17.46-50.47-17.04-8.72.78-7.37.85-13.17.42-24.46-1.81-51.9-21.43-54.86-47.05-.49-4.21-.71-12,3.34-21.98l15.9-41.66s11.77-38.79-17.49-58.83c0,0-51.19-37.84-99.53-29.89,0,0-57.87,2.23-97.3,50.56l-28.38,34.59"/>
      <path class="cls-1" d="m668.07,333.97l-34.2,40.32s-2.51,4.74-11.05,4.43l-81.57,6.01s-18.65,3.79-21.81-20.87l-32.56-167.88s-2.21-28.45,11.07-47.11l14.23-30.35s9.48-18.65-1.58-24.66c0,0-13.24-9.17-23.85,7.59l-44.12,71.45s-24.34,47.42-94.85,49.95c0,0-65.13,2.53-121.4-28.77,0,0-54.14-31.23-64.68-56.91-.93-2.28-1.83-4.57-2.84-6.81L111.5,25.74c-1.69-3.55-4.6-8.47-9.58-12.84C88.81,1.38,71.54,2.66,59.48,3.55c-14.22,1.05-33.31,2.46-45.95,17.72C6.07,30.28,3.96,40.37,3.26,46.21c-.51,5.77-.53,14.34,2.51,23.85,6.14,19.16,20.93,29.92,29.91,36.47,22.39,16.32,46.71,32.78,73.01,48.96,55.89,34.39,109.6,60.69,158.37,80.96"/>
      <path class="cls-2" d="m969.43,232.42c-33.37-44.31-81.28-66.58-121.7-55.64-8.42,2.28-21.1,7.24-34.42,19.21-1.54,1.39-2.98,2.88-4.42,4.38-15.09,15.7-29.75-6.4-29.75-6.4-8.23-11.79-18.36-4.71-22.08-1.41-1.64,1.45-3.29,2.89-5,4.26l-35.08,28.18c-10.58,9.47-26.34,23.39-45.81,39.96-23.82,20.28-35.92,30.54-45.23,36.66-42.87,28.18-75.35,31.18-85.68,29.9-.03,0-.07,0-.12-.01-10.56-1.33-20.94-3.84-30.95-7.46-80.71-29.2-161.42-58.39-242.13-87.59"/>
    </g>
  </g>
</svg>