<?xml version="1.0" encoding="UTF-8"?>
<svg id="Layer_2" data-name="Layer 2" xmlns="http://www.w3.org/2000/svg" viewBox="0 0 1446.71 543.71">
  <defs>
    <style>
      .cls-1 {
        stroke: #00a6ff;
      }

      .cls-1, .cls-2, .cls-3 {
        fill: none;
        stroke-miterlimit: 10;
        stroke-width: 6px;
      }

      .cls-2 {
        stroke: #ffd600;
      }

      .cls-3 {
        stroke: red;
      }
    </style>
  </defs>
  <g id="Layer_1-2" data-name="Layer 1">
    <g>
      <path class="cls-3" d="m700.15,142.01l194.63,113.68s38.47,21.93,9.95,49.04c-4.42,4.2-9.68,7.42-15.32,9.73-14.24,5.84-50.98,25.92-37.68,73.85,0,0,24.11,71.05-121.43,98.18,0,0-69.76,12.92-152.43-40.05l-160.14-93.42s-.05-.03-.07-.04c-1.43-1-53.24-36.81-107.15,6.45-.03.02-.05.04-.07.06-1.55,1.5-62.3,59.46-121.8,0-.01-.01-.02-.02-.03-.04-.01-.01-.02-.02-.02-.02,0,0-21.66-23.09-46.98-32.64-37.94-14.31-82.4,2.42-107.49,22.03-16.6,12.98-22.88,25.77-24.54,29.38-2.61,5.65-8.43,18.72-5.98,35.42.82,5.55,3.22,22.34,16.39,30.88,3.94,2.55,7.77,3.62,12.33,4.86,12.41,3.36,23.1,3.03,29.95,2.28,10.03-1.77,22.32-3.1,36.34-2.81,10.86.23,26.39.4,45.65,6.67"/>
      <path class="cls-1" d="m144.25,455.5s66.39,26.95,133.25,21.75l206.9-3.96c3.2-.06,6.38-.17,9.58-.35,13.38-.73,65.4-1.77,114.62,21.66,5.84,2.78,11.49,5.95,16.91,9.46,17.91,11.62,108.82,61.67,293.09,20.94,20.19-4.46,40.08-10.22,59.6-17.07l171.5-60.22s188.59-76.4,212.41-105.07c.49-.59.99-1.15,1.51-1.71,1.76-1.91,5.68-7.34,1.4-14.28-.99-1.61-2.34-2.96-3.89-4.03l-45.94-31.79c-8.67-6-14.95-15-17.05-25.33-1.94-9.53-.83-21.74,8.67-35.59,2.09-3.05,4.78-5.64,7.91-7.6,5.76-3.6,15.99-8.09,28.84-5.8,0,0,64.49,8.68,80.16-23.23.44-.9.89-1.8,1.42-2.67l15.86-26.2s7.67-10.86-2.7-14.47c0,0-18.33-7.96-12.92-22.98l12.62-50.47s0,0,0,0c.09-.22,10.11-25.54-14.27-25.24l-79.32-2.25"/>
      <path class="cls-2" d="m1344.39,49.01L195.46,3s-20.93,0-20.73,17.15c0,0,.2,14.35,10.37,18.74l58.61,40.27s41.54,24.73,91.54-.76c2.33-1.19,4.56-2.56,6.71-4.05,10.89-7.55,55.42-36.03,109.69-37.21,1.71-.04,3.42-.08,5.13-.2,12.71-.86,29.51-.7,48.71,3.09,12.82,2.53,23.95,6.12,33.21,9.82,7.2,2.88,12.34,5.87,14.62,7.13,16.19,8.95,71.74,41.08,146.85,85.04"/>
    </g>
  </g>
</svg>