<?xml version="1.0" encoding="UTF-8"?>
<svg id="Layer_2" data-name="Layer 2" xmlns="http://www.w3.org/2000/svg" viewBox="0 0 1343.92 747.24">
  <defs>
    <style>
      .cls-1 {
        stroke: #00a6ff;
      }

      .cls-1, .cls-2, .cls-3 {
        fill: none;
        stroke-miterlimit: 10;
        stroke-width: 6px;
      }

      .cls-2 {
        stroke: #ffd600;
      }

      .cls-3 {
        stroke: red;
      }
    </style>
  </defs>
  <g id="Layer_1-2" data-name="Layer 1">
    <g>
      <path class="cls-3" d="m1045.47,634.06l182.1,106.28s19.63,16.25,33.85-17.6l77.85-140.13c.89-2.25,2.33-6.84,1.29-12.38-2.08-11.06-12.21-16.12-13.47-16.73-37.54-24.79-76.31-49.51-116.35-74.07-103.46-63.46-204.59-119.21-302-168.27-2.38-.79-5.63-1.47-9.38-1-12.29,1.53-18.42,13.89-19.06,15.22-16.47,27.98-32.94,55.96-49.42,83.94,0,0-7.24,21.39-30.32,2.32-21.31-14.12-46.82-28.95-76.53-42.59-21.2-9.73-41.34-17.39-59.85-23.45"/>
      <path class="cls-1" d="m664.18,345.6c-12.33-4.11-22.07-5.85-26.48-5.45-1.22.11-3.59.32-5.96,1.91-1.7,1.13-2.74,2.52-3.33,3.46-1.01,2.27-2.56,5.85-4.3,10.33-2.89,7.42-3.11,9.11-4.72,10.54-1.65,1.47-6.38,4.08-20.39-2.22l-176.13-48.76c-2.36-.65-4.68-1.47-6.94-2.41-4.47-1.86-12.87-4.85-16.96-3.02,0,0-12.38,4.31-10.67-10.22.38-3.23,1.56-6.32,3.36-9.03l57.07-85.66s6.34-6.37,2.32-10.39c0,0-5.17-3.26-5.25-13.93-.06-8.57-9.85-20.13-13.69-24.34-1.85-2.03-3.12-4.53-3.51-7.24-.46-3.23.03-7.49,3.7-11.78.44-.51.87-1.03,1.24-1.59l10.82-16.04s5.92-8.7-7.88-16.01c-1.42-.75-2.83-1.53-4.19-2.39-17.98-11.34-137.54-85.95-187.89-96.83,0,0-14.2-4.55-30.08,2.03-4.66,1.93-9.32,3.86-14.06,5.58l-77.32,28.06s-13.9,4.73-27.28,19.74c-2.16,2.42-4.38,4.79-6.75,7.01-12.24,11.48-49.29,45.38-74.02,58.94-2.66,1.46-5.46,2.59-8.37,3.46-2.17.65-4.99,2.58-2.6,8.34,3.38,8.15,6.03,16.6,7.38,25.32l24.39,157.68"/>
      <path class="cls-2" d="m35.68,320.69c.28,1.52,2.71,13.42,14.15,19.43,8.18,4.3,16.11,3.02,19.29,2.24,1.29-.31,2.59-.58,3.89-.83,26.18-5.04,52.36-10.09,78.54-15.13,4.48-.86,9.05-1.26,13.61-1.05.03,0,.07,0,.1,0,4.83.23,9.07.96,12.61,1.83.77.19,1.54.37,2.32.51l114.58,21.66s10.69,2.06,19.01-1.85c2.84-1.33,5.69-2.62,8.66-3.61l58.43-19.48s14.98-4.45,27.19,1.83c.07.03.13.06.21.08l165.28,44.67c14.25,4.39,29.61,9.88,45.73,16.79,25.55,10.96,47.48,23.12,65.78,34.78,120.14,70.5,240.28,141,360.42,211.49"/>
    </g>
  </g>
</svg>