<?xml version="1.0" encoding="UTF-8"?>
<svg id="Layer_2" data-name="Layer 2" xmlns="http://www.w3.org/2000/svg" viewBox="0 0 990.01 642.18">
  <defs>
    <style>
      .cls-1 {
        stroke: #00a6ff;
      }

      .cls-1, .cls-2, .cls-3 {
        fill: none;
        stroke-miterlimit: 10;
        stroke-width: 6px;
      }

      .cls-2 {
        stroke: #ffd600;
      }

      .cls-3 {
        stroke: red;
      }
    </style>
  </defs>
  <g id="Layer_1-2" data-name="Layer 1">
    <g>
      <path class="cls-3" d="m618.2,638.98l-604.16-1.17s-22.01-2.16-3.88-20.71l32.79-38.4s13.42-11.35,4-32.52c-4.2-9.44-8.18-18.96-11.53-28.73l-8.88-25.91s-7.34-25.46,0-55.23C48.13,298.08,69.7,159.87,91.28,21.65c.7-2.78,2.54-8.37,7.62-12.82,9.75-8.55,22.89-5.39,25.77-4.6,11.14,3.07,16.89,11.58,18.39,13.97,12.33,17.04,27.03,35.46,44.44,54.37l53.77,52.08"/>
      <path class="cls-2" d="m618.2,638.98c103.7.07,207.4.14,311.1.2,12.3-5.63,23.2-10.83,32.48-15.35,16.44-8.01,21.23-10.73,23.7-16.4,4.43-10.16-1.98-22-4.88-26.72L693.33,108.01c-6.26-9.46-11.89-17.54-16.53-24.02-8.94-12.51-12.62-16.9-18.72-20.98-4.29-2.87-9.44-6.31-16.68-6.64-7.01-.32-12.22,2.45-21.33,7.29-4.67,2.48-9.56,5.12-14.93,10.12-6.26,5.82-9.99,11.88-12.12,16-12.67,28.67-25.34,57.33-38.01,86"/>
      <path class="cls-1" d="m241.27,124.64l9.57,8.55c7.31,6.54,15.66,11.8,24.72,15.58,7.07,2.95,16.04,6.48,25.25,9.55,20.35,6.78,41.07,22.98,37.3,54.26,0,0-15.45,69.33,16.2,87.79l128.53,94.38c3.77,2.77,6.4,6.91,6.94,11.55.62,5.26-1.25,11.77-11.35,16.61-6.25,2.99-13.28,3.98-20.16,3.16l-219.63-26.22c-9.9-1.5-28.56-2.76-48.64,5.83-9.37,4.01-21.62,17.29-46.13,43.86-2.88,3.12-7.49,8.24-5.98,12.22,2.09,5.51,14.52,5.22,16.36,5.16,29.76,3.63,59.52,7.26,89.27,10.89,156.03-1.24,312.06-2.49,468.09-3.73,0,0,43.8-5.93,21.56-75.33-17.6-54.94-68.14-71.61-88.44-76.18-21.15-4.76-21.53-4.68-36.42-12.7-8.77-4.72-46.4-24.99-57.86-68.78-7.73-29.54.39-54.71,4.57-65.31"/>
    </g>
  </g>
</svg>