<?xml version="1.0" encoding="UTF-8"?>
<svg id="Layer_2" data-name="Layer 2" xmlns="http://www.w3.org/2000/svg" viewBox="0 0 1236.58 627.21">
  <defs>
    <style>
      .cls-1 {
        stroke: #00a6ff;
      }

      .cls-1, .cls-2, .cls-3 {
        fill: none;
        stroke-miterlimit: 10;
        stroke-width: 6px;
      }

      .cls-2 {
        stroke: #ffd600;
      }

      .cls-3 {
        stroke: red;
      }
    </style>
  </defs>
  <g id="Layer_1-2" data-name="Layer 1">
    <g>
      <path class="cls-3" d="m1046.52,620.02H478.13c-.82,0-1.64.05-2.45.14-1.89.21-6.19.31-8.77-2.49-.53-.58-1.43-1.82-2.06-6.26-.31-2.23-.57-5.38-.28-9.23.2-2.67-.96-5.33-3.15-6.86,0,0-.93-.68-2.18-1.02-5.35-1.43-28.47,9.46-29.95,10.16-28.21,8.95-52.69,13.45-71.07,15.86-25.1,3.3-47.04,6.01-75.27,1.6-21.5-3.36-38.69-9.62-50.37-14.73-15.22-7.54-33.11-18.7-50.34-35.31-52.82-50.93-61.72-116.77-63.75-140.47-6.27-42.12-12.54-84.25-18.81-126.37"/>
      <path class="cls-1" d="m99.69,305.02l-8.6-53.31s-.43-13.2-12.56-12.14-15.33-14.48-15.33-14.48L4.85,79.53S-3.22,55.23,14.37,37.52c5.84-5.88,13.46-9.68,21.62-11.17L156.96,4.3c.99-.18,1.99-.38,2.97-.63,3.52-.89,17.2-3.18,26.53,12.21,2.99,4.93,5.99,9.85,9.22,14.62l68.89,101.38c2.91,4.28,5.72,8.62,8.42,13.03,7.72,12.61,28.51,44.77,50.5,63.63,2.02,1.74,3.99,3.53,5.91,5.38l193.1,186.22"/>
      <path class="cls-2" d="m1046.52,620.02l61.54-3.94c9.87-.28,26.03-1.66,44.68-7.93,8.62-2.9,67.71-23.63,78.6-67.86,1.48-6.02,5.13-20.74-2.09-35.52-1.57-3.22-3.41-5.96-5.26-8.24-3.56-4.39-8.09-7.85-13.14-10.39-2.72-1.37-5.88-2.7-9.45-3.8-8-2.46-14.99-2.82-19.72-2.68-169.1-3.69-338.21-7.38-507.31-11.07-3.96-.09-7.89-.69-11.66-1.9-4.74-1.52-10.46-4.12-12.98-8.23-.99-1.61-2.02-3.19-3.26-4.63-6.95-8.06-27.88-27.1-64.31-16.88-4.91,1.38-10.1,1.63-15.06.46-.85-.2-1.72-.44-2.6-.72-7.36-2.33-12.02-6.49-16.07-10.25-11.75-10.89-20.81-20.79-25.93-26.3"/>
    </g>
  </g>
</svg>