<?xml version="1.0" encoding="UTF-8"?>
<svg id="Layer_2" data-name="Layer 2" xmlns="http://www.w3.org/2000/svg" viewBox="0 0 1104.11 617.98">
  <defs>
    <style>
      .cls-1 {
        stroke: #00a6ff;
      }

      .cls-1, .cls-2, .cls-3 {
        fill: none;
        stroke-miterlimit: 10;
        stroke-width: 6px;
      }

      .cls-2 {
        stroke: #ffd600;
      }

      .cls-3 {
        stroke: red;
      }
    </style>
  </defs>
  <g id="Layer_1-2" data-name="Layer 1">
    <g>
      <path class="cls-3" d="m843.89,450.04l-202.35,161.25s-13.7,11.7-26.26-6.57c-2.12-3.09-16.06-11.61-43.68-28.83-44.94-28.03-94.06-52.93-139.53-83.75-32.39-21.95-52.88-40.1-91.12-73.98-61.97-54.89-68.81-70.76-108.21-98.82-23.03-16.4-58.31-37.77-108.02-54.61"/>
      <path class="cls-1" d="m124.71,264.73L9.4,217.64s-14.4-6.65,0-17.73c0,0,25.49-15.29,55.91-31.58,44.19-23.67,77.75-34.83,85.46-37.55,9.41-3.33,16.55-5.6,18.87-6.33,34.39-10.85,57.9-14.5,86.44-19.86,66.35-12.47,103.91-23.74,142.49-31.71,12.77-2.64,25.35-6.06,37.7-10.26,43.38-14.75,146.89-50.31,160.45-58.39,0,0,28.94-9.52,28.57,24.54-1.34,10.29-3.99,24.38-9.66,40.38-6.01,16.97-17.55,48.33-47.71,74.4-26.73,23.1-55.5,31.17-71.56,34.29l-109.15,26.01s-38.06,8.16-49.07,44.37c-3.55,11.67-3.41,24.11-.31,35.9,2.63,10.03,7.87,22.45,18.25,30.34,33.27,25.09,66.55,50.19,99.82,75.28"/>
      <path class="cls-2" d="m843.89,450.04l204.75-162.19c10.53-8.34,20.24-17.66,28.88-27.95,15.26-18.19,32.05-44.34,18.8-59.73l-74.04-86c-1.76-2.04-3.37-4.19-4.95-6.37-23-31.73-67.92-9.76-67.92-9.76l-323.06,147.32c-26.52,13.92-40.31,30.33-47.8,42-13.07,20.35-23.23,51.59-24.3,54.91-5.08,15.83-5.74,22.65-12.86,32.34-2.78,3.78-13.52,17.95-33.25,23.61-26.58,7.62-48.66-6.16-52.23-8.47"/>
    </g>
  </g>
</svg>