<?xml version="1.0" encoding="UTF-8"?>
<svg id="Layer_2" data-name="Layer 2" xmlns="http://www.w3.org/2000/svg" viewBox="0 0 183.6 117.98">
  <defs>
    <style>
      .cls-1 {
        fill: #e6e6e6;
      }

      .cls-1, .cls-2 {
        stroke: #000;
        stroke-miterlimit: 10;
        stroke-width: 2px;
      }

      .cls-2 {
        fill: #fbb03b;
      }
    </style>
  </defs>
  <g id="Layer_1-2" data-name="Layer 1">
    <g>
      <path class="cls-1" d="m97.06,76.26c0,3.03-.84,5.87-2.29,8.3H3.47c-1.57-2.42-2.47-5.26-2.47-8.29,0-8.27,6.72-15.09,15.4-16.07,3.72-6.49,10.71-10.86,18.73-10.86,3.23,0,6.29.71,9.04,1.98,4.22-6.05,11.44-9.18,18.43-7.96,8.09,1.4,14.45,8.37,15.25,17,.98-.19,2-.29,3.03-.29,8.94,0,16.19,7.25,16.19,16.19Z"/>
      <circle class="cls-2" cx="84.86" cy="58.93" r="49.24"/>
      <path class="cls-1" d="m170.11,105.35c0,4.25-1.17,8.22-3.21,11.63H39.09c-2.2-3.39-3.46-7.36-3.46-11.61,0-11.58,9.41-21.12,21.55-22.5,5.21-9.08,15-15.2,26.22-15.2,4.52,0,8.8,1,12.65,2.78,5.9-8.48,16.02-12.85,25.8-11.15,11.32,1.97,20.22,11.72,21.35,23.8,1.37-.27,2.8-.41,4.25-.41,12.52,0,22.66,10.15,22.66,22.67Z"/>
      <path class="cls-1" d="m182.6,34.49c0,3.06-.84,5.93-2.31,8.39h-92.19c-1.59-2.45-2.5-5.31-2.5-8.37,0-8.35,6.79-15.24,15.55-16.23,3.75-6.55,10.82-10.96,18.91-10.96,3.26,0,6.35.72,9.13,2,4.26-6.11,11.55-9.27,18.61-8.04,8.17,1.42,14.59,8.45,15.4,17.17.99-.2,2.02-.29,3.06-.29,9.03,0,16.35,7.32,16.35,16.35Z"/>
    </g>
  </g>
</svg>