<?xml version="1.0" encoding="UTF-8"?>
<svg id="Layer_2" data-name="Layer 2" xmlns="http://www.w3.org/2000/svg" viewBox="0 0 1200.18 836.32">
  <defs>
    <style>
      .cls-1, .cls-2, .cls-3, .cls-4, .cls-5, .cls-6, .cls-7, .cls-8, .cls-9, .cls-10, .cls-11, .cls-12, .cls-13 {
        stroke-miterlimit: 10;
      }

      .cls-1, .cls-2, .cls-3, .cls-4, .cls-5, .cls-6, .cls-8, .cls-11, .cls-12, .cls-13 {
        fill: none;
      }

      .cls-1, .cls-5, .cls-6, .cls-8, .cls-11, .cls-13 {
        stroke-linecap: round;
      }

      .cls-1, .cls-6, .cls-7, .cls-8, .cls-9, .cls-10, .cls-12 {
        stroke: #000;
      }

      .cls-1, .cls-6, .cls-8 {
        stroke-width: 8px;
      }

      .cls-1, .cls-13 {
        stroke-dasharray: 0 15.5;
      }

      .cls-2 {
        stroke: #00a6ff;
      }

      .cls-2, .cls-3, .cls-4 {
        stroke-width: 6px;
      }

      .cls-3 {
        stroke: #ffd600;
      }

      .cls-4 {
        stroke: red;
      }

      .cls-5, .cls-6 {
        stroke-dasharray: 0 14.01;
      }

      .cls-5, .cls-11, .cls-13 {
        stroke: lime;
        stroke-width: 4px;
      }

      .cls-14 {
        fill: #fff;
      }

      .cls-15, .cls-10 {
        fill: #ff73cb;
      }

      .cls-16, .cls-9 {
        fill: #0df400;
      }

      .cls-7 {
        stroke-width: 9px;
      }

      .cls-8, .cls-11 {
        stroke-dasharray: 0 15.51;
      }

      .cls-9, .cls-10 {
        stroke-width: 3px;
      }

      .cls-17 {
        font-family: Poppins-Bold, Poppins;
        font-size: 18px;
        font-weight: 700;
      }

      .cls-12 {
        stroke-width: 18px;
      }
    </style>
  </defs>
  <g id="Layer_1-2" data-name="Layer 1">
    <g>
      <g>
        <path class="cls-8" d="m446.85,232.62c37.16,21.89,74.32,43.78,111.48,65.67,5.92,3.52,13.9,6.24,21.42,8.25,10.43,2.78,21.12,4.42,31.89,5.11l269.09,17.16"/>
        <path class="cls-1" d="m459.37,239.86c-26.6-15.8-53.21-31.59-79.81-47.39"/>
      </g>
      <g>
        <path class="cls-11" d="m446.85,232.62c37.16,21.89,74.32,43.78,111.48,65.67,5.92,3.52,13.9,6.24,21.42,8.25,10.43,2.78,21.12,4.42,31.89,5.11l269.09,17.16"/>
        <path class="cls-13" d="m459.37,239.86c-26.6-15.8-53.21-31.59-79.81-47.39"/>
      </g>
    </g>
    <circle class="cls-7" cx="857.35" cy="506.29" r="8.23"/>
    <circle class="cls-7" cx="109.72" cy="604.65" r="8.23"/>
    <circle class="cls-7" cx="1018.26" cy="141.93" r="8.23"/>
    <circle class="cls-7" cx="893.59" cy="87.09" r="8.23"/>
    <g>
      <path class="cls-12" d="m1051.44,391.35c-14.23-106.37-28.47-212.74-42.7-319.12,0,0-.59-11.23-7.85-14.69-2.48-1.18-4.81-.92-7.88-.65-8.65.78-17.71,1.28-20.73,1.3-14.64.1-30.1-10.24-36.07-21.56-1-1.89-1.37-3.13-2.95-5.41-1.2-1.73-9.1-13.15-19.32-11.76-5.86.8-9.53,5.41-10.91,7.14-4.58,5.75-4.75,12.13-4.72,14.16l-4.62,42.28c-.38,4.8-.63,11.94.26,20.47,2.44,23.31,11.49,38.32,19.58,55.46,6.04,12.78,13.68,31.29,20.02,55.39l6.34,64.37c.59,5.97-1.65,11.88-6.06,15.95l-.08.08c-14.41,13.29-33.34,13.53-40.28,13.26l-269.09-17.16c-10.77-.69-21.46-2.33-31.89-5.11-7.52-2-15.51-4.73-21.42-8.25-37.16-21.89-74.32-43.78-111.48-65.67"/>
      <path class="cls-12" d="m265.9,371.97s-31.33,81.84-33.73,100.9c-.14,1.12-.28,2.24-.48,3.35l-33.9,193.13c-.33,1.89-.87,3.74-1.7,5.47-4.17,8.69-10.41,6.02-14.86,2.32-2.98-2.47-4.97-5.88-6.12-9.57-5.46-17.49-39.92-45.91-64.59-62.87-26.57-18.27-26.29-34.87-26.29-34.87l-.83-27.95c.13-2.12.05-6.32-2.41-10.51-3.16-5.38-8.45-7.68-12.45-8.67-7.53-1.86-14.77-4.75-21.4-8.76-24.27-14.69-31.27-32.39-31.27-32.39-9.13-19.14-6.99-24.43-5.65-25.83.8-.83,1.61-1.63,2.32-2.53,3.51-4.41,8.14-10.46,13.24-17.83,11.85-17.14,18.58-30.34,30.59-53.82,4.09-8,18.86-36.88,27.72-54.18,17.58-30.89,35.15-61.77,52.73-92.66,6.36-11.18,14.6-21.19,24.36-29.59l.16-.14c.64-.55,1.28-1.11,1.88-1.7,2.64-2.58,6.99-5.93,12.8-6.58,6.63-.74,12.09,2.39,15.38,4.55,26.42,17.38,39.63,26.07,78.8,80.36,11.51,12.92,19.18-6.96,19.18-6.96,5-22.65,67.13-105.08,67.13-105.08,11.21-16.81,23.26-5.09,23.26-5.09,26.6,15.8,53.21,31.59,79.81,47.39"/>
      <path class="cls-12" d="m265.9,371.97l20.2-56.16s3.46-16.44,20.76,0l105.55,85.36s25.16,23.78,50.58,23.69c1.08,0,2.16,0,3.24.05,103.79,5.75,207.58,11.49,311.37,17.23,1.04-.04,8.99-.25,14.64,6.17,5.03,5.72,4.64,12.61,4.16,15.63-.31,1.9-.48,3.81-.42,5.73.33,9.98,4.67,34.25,39.11,35.33l169.1,9.03c1.72.09,3.43.25,5.15.41,3.59.34,12.92.12,18.39-10,.94-1.74,1.88-3.49,2.94-5.16l20.75-32.79s10.63-14.87,7.48-28.41c-.18-.78-.37-1.55-.49-2.34l-6.99-44.39"/>
    </g>
    <g>
      <path class="cls-4" d="m1051.44,391.35c-14.23-106.37-28.47-212.74-42.7-319.12,0,0-.59-11.23-7.85-14.69-2.48-1.18-4.81-.92-7.88-.65-8.65.78-17.71,1.28-20.73,1.3-14.64.1-30.1-10.24-36.07-21.56-1-1.89-1.37-3.13-2.95-5.41-1.2-1.73-9.1-13.15-19.32-11.76-5.86.8-9.53,5.41-10.91,7.14-4.58,5.75-4.75,12.13-4.72,14.16l-4.62,42.28c-.38,4.8-.63,11.94.26,20.47,2.44,23.31,11.49,38.32,19.58,55.46,6.04,12.78,13.68,31.29,20.02,55.39l6.34,64.37c.59,5.97-1.65,11.88-6.06,15.95l-.08.08c-14.41,13.29-33.34,13.53-40.28,13.26l-269.09-17.16c-10.77-.69-21.46-2.33-31.89-5.11-7.52-2-15.51-4.73-21.42-8.25-37.16-21.89-74.32-43.78-111.48-65.67"/>
      <path class="cls-2" d="m265.9,371.97s-31.33,81.84-33.73,100.9c-.14,1.12-.28,2.24-.48,3.35l-33.9,193.13c-.33,1.89-.87,3.74-1.7,5.47-4.17,8.69-10.41,6.02-14.86,2.32-2.98-2.47-4.97-5.88-6.12-9.57-5.46-17.49-39.92-45.91-64.59-62.87-26.57-18.27-26.29-34.87-26.29-34.87l-.83-27.95c.13-2.12.05-6.32-2.41-10.51-3.16-5.38-8.45-7.68-12.45-8.67-7.53-1.86-14.77-4.75-21.4-8.76-24.27-14.69-31.27-32.39-31.27-32.39-9.13-19.14-6.99-24.43-5.65-25.83.8-.83,1.61-1.63,2.32-2.53,3.51-4.41,8.14-10.46,13.24-17.83,11.85-17.14,18.58-30.34,30.59-53.82,4.09-8,18.86-36.88,27.72-54.18,17.58-30.89,35.15-61.77,52.73-92.66,6.36-11.18,14.6-21.19,24.36-29.59l.16-.14c.64-.55,1.28-1.11,1.88-1.7,2.64-2.58,6.99-5.93,12.8-6.58,6.63-.74,12.09,2.39,15.38,4.55,26.42,17.38,39.63,26.07,78.8,80.36,11.51,12.92,19.18-6.96,19.18-6.96,5-22.65,67.13-105.08,67.13-105.08,11.21-16.81,23.26-5.09,23.26-5.09,26.6,15.8,53.21,31.59,79.81,47.39"/>
      <path class="cls-3" d="m265.9,371.97l20.2-56.16s3.46-16.44,20.76,0l105.55,85.36s25.16,23.78,50.58,23.69c1.08,0,2.16,0,3.24.05,103.79,5.75,207.58,11.49,311.37,17.23,1.04-.04,8.99-.25,14.64,6.17,5.03,5.72,4.64,12.61,4.16,15.63-.31,1.9-.48,3.81-.42,5.73.33,9.98,4.67,34.25,39.11,35.33l169.1,9.03c1.72.09,3.43.25,5.15.41,3.59.34,12.92.12,18.39-10,.94-1.74,1.88-3.49,2.94-5.16l20.75-32.79s10.63-14.87,7.48-28.41c-.18-.78-.37-1.55-.49-2.34l-6.99-44.39"/>
    </g>
    <g>
      <g>
        <path class="cls-6" d="m295.82,389.04s-31.33,81.84-33.73,100.9c-.14,1.12-.28,2.24-.48,3.35l-27.33,155.69"/>
        <line class="cls-6" x1="299.51" y1="378.76" x2="306.91" y2="358.21"/>
      </g>
      <g>
        <path class="cls-5" d="m295.91,388.78s-31.33,81.84-33.73,100.9c-.14,1.12-.28,2.24-.48,3.35l-27.33,155.69"/>
        <line class="cls-5" x1="299.61" y1="378.51" x2="307" y2="357.95"/>
      </g>
    </g>
    <g>
      <path class="cls-6" d="m1031.38,411.51c-14.23-106.37-28.47-212.74-42.7-319.12"/>
      <path class="cls-5" d="m1031.38,411.51c-14.23-106.37-28.47-212.74-42.7-319.12"/>
    </g>
    <circle class="cls-16" cx="857.35" cy="506.29" r="8.23"/>
    <circle class="cls-16" cx="893.59" cy="87.09" r="8.23"/>
    <circle class="cls-16" cx="109.72" cy="604.65" r="8.23"/>
    <circle class="cls-15" cx="1018.26" cy="141.93" r="8.23"/>
    <rect class="cls-9" x="851.35" y="529.74" width="12" height="100" rx="6" ry="6"/>
    <rect class="cls-9" x="103.72" y="635.03" width="12" height="100" rx="6" ry="6"/>
    <path class="cls-9" d="m859.58,80.5h-88c-3.31,0-6,2.69-6,6v38c0,3.31,2.69,6,6,6s6-2.69,6-6v-32h82c3.31,0,6-2.69,6-6s-2.69-6-6-6Z"/>
    <path class="cls-10" d="m1139.91,97.93c-3.31,0-6,2.69-6,6v32h-82c-3.31,0-6,2.69-6,6s2.69,6,6,6h88c3.31,0,6-2.69,6-6v-38c0-3.31-2.69-6-6-6Z"/>
    <rect class="cls-9" x="49.72" y="749.82" width="120" height="85" rx="12" ry="12"/>
    <text class="cls-17" transform="translate(91.77 776.9)"><tspan x="0" y="0">DRS</tspan><tspan x="-26.89" y="21.6">Detection</tspan><tspan x="-11.81" y="43.2">Zone 2</tspan></text>
    <rect class="cls-9" x="797.35" y="644.97" width="120" height="85" rx="12" ry="12"/>
    <text class="cls-17" transform="translate(839.4 672.05)"><tspan x="0" y="0">DRS</tspan><tspan x="-26.89" y="21.6">Detection</tspan><tspan x="-12.11" y="43.2">Zone 3</tspan></text>
    <rect class="cls-9" x="707.61" y="138.96" width="120" height="85" rx="12" ry="12"/>
    <text class="cls-17" transform="translate(749.66 166.04)"><tspan x="0" y="0">DRS</tspan><tspan x="-26.89" y="21.6">Detection</tspan><tspan x="-10.05" y="43.2">Zone 1</tspan></text>
    <rect class="cls-10" x="1078.68" y="1.5" width="120" height="85" rx="12" ry="12"/>
    <text class="cls-17" transform="translate(1109.83 40.04)"><tspan x="0" y="0">Speed</tspan><tspan x="7.45" y="21.6">Trap</tspan></text>
    <polygon points="1061.86 336.16 1059.86 365.94 1074.84 363.03 1061.86 336.16"/>
    <g>
      <rect x="1075.73" y="393.1" width="5.01" height="5.01" transform="translate(895.24 1529.46) rotate(-100.98)"/>
      <rect class="cls-14" x="1074.77" y="388.18" width="5.01" height="5.01" transform="translate(898.94 1522.66) rotate(-100.98)"/>
      <rect class="cls-14" x="1072.86" y="378.33" width="5.01" height="5.01" transform="translate(906.33 1509.06) rotate(-100.98)"/>
      <rect x="1073.82" y="383.26" width="5.01" height="5.01" transform="translate(902.63 1515.86) rotate(-100.98)"/>
      <rect x="1071.91" y="373.41" width="5.01" height="5.01" transform="translate(1238.8 -750.43) rotate(79.02)"/>
      <rect x="1065.8" y="395.03" width="5.01" height="5.01" transform="translate(881.53 1522) rotate(-100.98)"/>
      <rect class="cls-14" x="1064.85" y="390.1" width="5.01" height="5.01" transform="translate(885.23 1515.21) rotate(-100.98)"/>
      <rect class="cls-14" x="1062.94" y="380.26" width="5.01" height="5.01" transform="translate(892.62 1501.61) rotate(-100.98)"/>
      <rect x="1063.89" y="385.18" width="5.01" height="5.01" transform="translate(888.93 1508.41) rotate(-100.98)"/>
      <rect x="1061.98" y="375.34" width="5.01" height="5.01" transform="translate(1232.66 -739.13) rotate(79.02)"/>
      <rect x="1067.9" y="379.3" width="5.01" height="5.01" transform="translate(1241.34 -741.73) rotate(79.02)"/>
      <rect class="cls-14" x="1068.85" y="384.22" width="5.01" height="5.01" transform="translate(1246.94 -738.68) rotate(79.02)"/>
      <rect class="cls-14" x="1070.76" y="394.06" width="5.01" height="5.01" transform="translate(1258.15 -732.59) rotate(79.02)"/>
      <rect class="cls-14" x="1066.94" y="374.37" width="5.01" height="5.01" transform="translate(1235.73 -744.78) rotate(79.02)"/>
      <rect x="1069.81" y="389.14" width="5.01" height="5.01" transform="translate(1252.55 -735.63) rotate(79.02)"/>
    </g>
    <text class="cls-17" transform="translate(666.42 335.96) rotate(4.3)"><tspan x="0" y="0">DRS Zone 1</tspan></text>
    <text class="cls-17" transform="translate(262.07 619.15) rotate(-79.78)"><tspan x="0" y="0">DRS Zone 2</tspan></text>
    <text class="cls-17" transform="translate(1008.78 304.12) rotate(-98.14)"><tspan x="0" y="0">DRS Zone 3</tspan></text>
  </g>
</svg>