<?xml version="1.0" encoding="UTF-8"?>
<svg id="Layer_2" data-name="Layer 2" xmlns="http://www.w3.org/2000/svg" viewBox="0 0 1239.23 972.32">
  <defs>
    <style>
      .cls-1 {
        stroke: #00a6ff;
      }

      .cls-1, .cls-2, .cls-3 {
        stroke-width: 6px;
      }

      .cls-1, .cls-2, .cls-3, .cls-4, .cls-5, .cls-6, .cls-7, .cls-8, .cls-9, .cls-10, .cls-11 {
        stroke-miterlimit: 10;
      }

      .cls-1, .cls-2, .cls-3, .cls-4, .cls-5, .cls-6, .cls-7, .cls-11 {
        fill: none;
      }

      .cls-2 {
        stroke: #ffd600;
      }

      .cls-3 {
        stroke: red;
      }

      .cls-4, .cls-5 {
        stroke: lime;
        stroke-width: 4px;
      }

      .cls-4, .cls-5, .cls-6, .cls-7 {
        stroke-linecap: round;
      }

      .cls-4, .cls-6 {
        stroke-dasharray: 0 17.72;
      }

      .cls-12 {
        fill: #fff;
      }

      .cls-13, .cls-10 {
        fill: #ff73cb;
      }

      .cls-14, .cls-9 {
        fill: #0df400;
      }

      .cls-15 {
        font-family: Poppins-Medium, Poppins;
        font-size: 20px;
        font-weight: 500;
      }

      .cls-5, .cls-7 {
        stroke-dasharray: 0 16.89;
      }

      .cls-6, .cls-7 {
        stroke-width: 8px;
      }

      .cls-6, .cls-7, .cls-8, .cls-9, .cls-10, .cls-11 {
        stroke: #000;
      }

      .cls-8 {
        stroke-width: 9px;
      }

      .cls-9, .cls-10 {
        stroke-width: 3px;
      }

      .cls-16 {
        font-family: Poppins-Bold, Poppins;
        font-size: 18px;
        font-weight: 700;
      }

      .cls-11 {
        stroke-width: 18px;
      }
    </style>
  </defs>
  <g id="Layer_1-2" data-name="Layer 1">
    <g>
      <path class="cls-6" d="m1126.72,193.02c-140.19-3.52-253.93-3.55-330.21-2.98-159.42,1.19-233.07,5.58-401.06,7.14-36.82.34-71.69.49-104.33.49"/>
      <path class="cls-4" d="m1126.72,193.02c-140.19-3.52-253.93-3.55-330.21-2.98-159.42,1.19-233.07,5.58-401.06,7.14-36.82.34-71.69.49-104.33.49"/>
    </g>
    <circle class="cls-8" cx="93.35" cy="342.27" r="8.23"/>
    <circle class="cls-8" cx="756.14" cy="580.5" r="8.23"/>
    <circle class="cls-8" cx="1028.29" cy="218.17" r="8.23"/>
    <g>
      <path class="cls-11" d="m153.41,222.44c64.61,1.19,168.41,2.5,297,1.31,160.18-1.49,230.41-5.67,382.43-6.81,72.73-.54,181.19-.52,314.87,2.84,8.21.21,16.06,3.97,20.95,10.57.26.35.51.71.76,1.08,5.76,8.62,4.58,17.5,4.27,19.49l-2.11,34.74c-.19,3.21.34,6.45,1.77,9.33.15.3.31.6.48.9,5.71,10.05,18.72,10.95,20.22,11.03,4.48.34,12.27,1.66,17.37,7.56,6.02,6.95,4.95,16.49,4.12,24.69-1.74,17.28-4.93,41.77-11.18,70.66-2.99,13.84-6.27,26.72-9.72,38.81-11.89,41.59-25.41,73.06-32.99,90.38-18.23,41.67-52.18,117.01-98.23,213.54"/>
      <path class="cls-11" d="m1063.43,752.57l-45.85,95.05s-5.58,10.35,14.73,16.73l28.27,12.34s19.51,8.76-.8,25.49l-59.33,55.35s-7.43,8.37-14.01,4.99l-15.47-8.72s-4.45-.36-3.38-16.19-.17-234.38-.17-234.38c0,0,2.19-19.1-32.02-31.1-13.01-4.56-16.02-6.18-30.76-15.85-9.89-6.49-19.5-12.92-27.43-24.56-6.18-9.06-4.98-11.95-11.55-20.9,0,0-8.09-11.01-21.4-19.4-16.57-10.45-36.84-10.65-76.69-10.64-30.71.01-52.75.08-59.63.1-3.5.19-8.52-.01-14.05-2.02-13.58-4.94-19.6-16.92-21.05-20.02l-12.44-31.1s-3.55-18.21-29.32-25.32l-92.4-35.98s-34.21-11.99-73.3-11.11l-106.18-.05"/>
      <path class="cls-11" d="m153.41,222.44h-54.3c-9.32,0-18.6,1.71-27.19,5.34-46.5,19.61-60.26,66.07-62.61,88.12-1.41,13.24,2.34,18.83,6.08,21.16,2.32,1.45,4.66,1.58,6.29,1.63,14.71.47,22.06.71,33.21,0,14.39-.92,21.59-1.37,28.66.33,0,0,3.01.72,19.86,6.51,13.59,3.53,25.82-19.25,29.49-26.88,1.16-2.42,2.92-4.54,5.21-5.94,7.28-4.45,13.19,1.57,16.93,7.56,2.49,3.99,4.24,8.38,5.36,12.94,4.04,16.47,19.41,79.68,22.8,100.57,3.91,24.1,26.05,19.86,26.05,19.86l149.97,1.66"/>
    </g>
    <g>
      <path class="cls-3" d="m153.41,222.44c64.61,1.19,168.41,2.5,297,1.31,160.18-1.49,230.41-5.67,382.43-6.81,72.73-.54,181.19-.52,314.87,2.84,8.21.21,16.06,3.97,20.95,10.57.26.35.51.71.76,1.08,5.76,8.62,4.58,17.5,4.27,19.49l-2.11,34.74c-.19,3.21.34,6.45,1.77,9.33.15.3.31.6.48.9,5.71,10.05,18.72,10.95,20.22,11.03,4.48.34,12.27,1.66,17.37,7.56,6.02,6.95,4.95,16.49,4.12,24.69-1.74,17.28-4.93,41.77-11.18,70.66-2.99,13.84-6.27,26.72-9.72,38.81-11.89,41.59-25.41,73.06-32.99,90.38-18.23,41.67-52.18,117.01-98.23,213.54"/>
      <path class="cls-1" d="m1063.43,752.57l-45.85,95.05s-5.58,10.35,14.73,16.73l28.27,12.34s19.51,8.76-.8,25.49l-59.33,55.35s-7.43,8.37-14.01,4.99l-15.47-8.72s-4.45-.36-3.38-16.19-.17-234.38-.17-234.38c0,0,2.19-19.1-32.02-31.1-13.01-4.56-16.02-6.18-30.76-15.85-9.89-6.49-19.5-12.92-27.43-24.56-6.18-9.06-4.98-11.95-11.55-20.9,0,0-8.09-11.01-21.4-19.4-16.57-10.45-36.84-10.65-76.69-10.64-30.71.01-52.75.08-59.63.1-3.5.19-8.52-.01-14.05-2.02-13.58-4.94-19.6-16.92-21.05-20.02l-12.44-31.1s-3.55-18.21-29.32-25.32l-92.4-35.98s-34.21-11.99-73.3-11.11l-106.18-.05"/>
      <path class="cls-2" d="m153.41,222.44h-54.3c-9.32,0-18.6,1.71-27.19,5.34-46.5,19.61-60.26,66.07-62.61,88.12-1.41,13.24,2.34,18.83,6.08,21.16,2.32,1.45,4.66,1.58,6.29,1.63,14.71.47,22.06.71,33.21,0,14.39-.92,21.59-1.37,28.66.33,0,0,3.01.72,19.86,6.51,13.59,3.53,25.82-19.25,29.49-26.88,1.16-2.42,2.92-4.54,5.21-5.94,7.28-4.45,13.19,1.57,16.93,7.56,2.49,3.99,4.24,8.38,5.36,12.94,4.04,16.47,19.41,79.68,22.8,100.57,3.91,24.1,26.05,19.86,26.05,19.86l149.97,1.66"/>
    </g>
    <g>
      <g>
        <path class="cls-7" d="m1094.3,740.64c46.05-96.53,80-171.88,98.23-213.54,7.58-17.32,21.1-48.79,32.99-90.38,3.46-12.09,6.73-24.98,9.72-38.81"/>
        <line class="cls-7" x1="1050.45" y1="831.38" x2="1096.29" y2="736.33"/>
      </g>
      <g>
        <path class="cls-5" d="m1094.3,740.64c46.05-96.53,80-171.88,98.23-213.54,7.58-17.32,21.1-48.79,32.99-90.38,3.46-12.09,6.73-24.98,9.72-38.81"/>
        <line class="cls-5" x1="1050.45" y1="831.38" x2="1096.29" y2="736.33"/>
      </g>
    </g>
    <g>
      <g>
        <path class="cls-7" d="m351.17,485.34l106.18.05c39.09-.89,73.3,11.11,73.3,11.11l35.64,13.88"/>
        <line class="cls-7" x1="367.83" y1="485.34" x2="217.86" y2="483.68"/>
      </g>
      <g>
        <path class="cls-5" d="m351.17,485.34l106.18.05c39.09-.89,73.3,11.11,73.3,11.11l35.64,13.88"/>
        <line class="cls-5" x1="367.83" y1="485.34" x2="217.86" y2="483.68"/>
      </g>
    </g>
    <circle class="cls-14" cx="756.14" cy="580.5" r="8.23"/>
    <circle class="cls-13" cx="1028.29" cy="218.17" r="8.23"/>
    <circle class="cls-14" cx="93.35" cy="342.27" r="8.23"/>
    <text class="cls-15" transform="translate(338.23 507.86) rotate(-.09)"><tspan x="0" y="0">D</tspan></text>
    <text class="cls-15" transform="translate(352.4 507.84) rotate(.16)"><tspan x="0" y="0">R</tspan></text>
    <text class="cls-15" transform="translate(365.02 507.87) rotate(.4)"><tspan x="0" y="0">S</tspan></text>
    <text class="cls-15" transform="translate(377.1 507.96) rotate(.59)"><tspan x="0" y="0"> </tspan></text>
    <text class="cls-15" transform="translate(382.29 508.01) rotate(.77)"><tspan x="0" y="0">Z</tspan></text>
    <text class="cls-15" transform="translate(393.44 508.16) rotate(1.06)"><tspan x="0" y="0">o</tspan></text>
    <text class="cls-15" transform="translate(406.16 508.39) rotate(1.4)"><tspan x="0" y="0">n</tspan></text>
    <text class="cls-15" transform="translate(419.12 508.71) rotate(1.77)"><tspan x="0" y="0">e</tspan></text>
    <text class="cls-15" transform="translate(431.45 509.1) rotate(2.06)"><tspan x="0" y="0"> </tspan></text>
    <text class="cls-15" transform="translate(436.62 509.28) rotate(2.36)"><tspan x="0" y="0">2</tspan></text>
    <rect class="cls-9" x="750.14" y="601.51" width="12" height="75" rx="6" ry="6"/>
    <rect class="cls-10" x="1022.29" y="95.75" width="12" height="75" rx="6" ry="6"/>
    <rect class="cls-9" x="87.35" y="365.67" width="12" height="75" rx="6" ry="6"/>
    <rect class="cls-9" x="33.35" y="455.36" width="120" height="85" rx="12" ry="12"/>
    <text class="cls-16" transform="translate(75.4 482.43)"><tspan x="0" y="0">DRS</tspan><tspan x="-26.89" y="21.6">Detection</tspan><tspan x="-11.81" y="43.2">Zone 2</tspan></text>
    <rect class="cls-9" x="696.14" y="684.51" width="120" height="85" rx="12" ry="12"/>
    <text class="cls-16" transform="translate(738.19 711.59)"><tspan x="0" y="0">DRS</tspan><tspan x="-26.89" y="21.6">Detection</tspan><tspan x="-10.05" y="43.2">Zone 1</tspan></text>
    <rect class="cls-10" x="968.29" y="1.5" width="120" height="85" rx="12" ry="12"/>
    <text class="cls-16" transform="translate(999.45 40.04)"><tspan x="0" y="0">Speed</tspan><tspan x="7.45" y="21.6">Trap</tspan></text>
    <polygon points="205.11 242.41 176.26 234.78 176.26 250.04 205.11 242.41"/>
    <g>
      <rect x="160.93" y="234.85" width="5.01" height="5.01" transform="translate(326.88 474.71) rotate(180)"/>
      <rect class="cls-12" x="155.92" y="234.85" width="5.01" height="5.01" transform="translate(316.85 474.71) rotate(180)"/>
      <rect class="cls-12" x="145.89" y="234.85" width="5.01" height="5.01" transform="translate(296.8 474.71) rotate(180)"/>
      <rect x="150.91" y="234.85" width="5.01" height="5.01" transform="translate(306.82 474.71) rotate(180)"/>
      <rect x="140.88" y="234.85" width="5.01" height="5.01"/>
      <rect x="160.93" y="244.96" width="5.01" height="5.01" transform="translate(326.88 494.93) rotate(180)"/>
      <rect class="cls-12" x="155.92" y="244.96" width="5.01" height="5.01" transform="translate(316.85 494.93) rotate(180)"/>
      <rect class="cls-12" x="145.89" y="244.96" width="5.01" height="5.01" transform="translate(296.8 494.93) rotate(180)"/>
      <rect x="150.91" y="244.96" width="5.01" height="5.01" transform="translate(306.82 494.93) rotate(180)"/>
      <rect x="140.88" y="244.96" width="5.01" height="5.01"/>
      <rect x="145.89" y="239.9" width="5.01" height="5.01"/>
      <rect class="cls-12" x="150.91" y="239.9" width="5.01" height="5.01"/>
      <rect class="cls-12" x="160.93" y="239.9" width="5.01" height="5.01"/>
      <rect class="cls-12" x="140.88" y="239.9" width="5.01" height="5.01"/>
      <rect x="155.92" y="239.9" width="5.01" height="5.01"/>
    </g>
    <text class="cls-16" transform="translate(534.65 186.76) rotate(-1.43)"><tspan x="0" y="0">DRS Zone 1</tspan></text>
    <text class="cls-16" transform="translate(1152.68 684.67) rotate(-66.99)"><tspan x="0" y="0">DRS Zone 2</tspan></text>
    <text class="cls-16" transform="translate(318.79 510.37)"><tspan x="0" y="0">DRS Zone 3</tspan></text>
  </g>
</svg>