<?xml version="1.0" encoding="UTF-8"?>
<svg id="Layer_2" data-name="Layer 2" xmlns="http://www.w3.org/2000/svg" viewBox="0 0 125.71 149.48">
  <defs>
    <style>
      .cls-1 {
        fill: #f6f1de;
      }
    </style>
  </defs>
  <g id="Layer_1-2" data-name="Layer 1">
    <g>
      <path class="cls-1" d="m74.94,148.48C34.17,148.48,1,115.31,1,74.54,1,37.67,27.78,6.82,63.84,1.42c-16.24,14.15-25.49,34.38-25.49,56.04,0,41,33.35,74.35,74.35,74.35,3.27,0,6.54-.21,9.77-.64-13.31,11.18-30.05,17.3-47.53,17.3Z"/>
      <path d="m60.63,3c-14.87,14.19-23.27,33.68-23.27,54.46,0,41.55,33.8,75.35,75.35,75.35,2.16,0,4.32-.09,6.47-.27-12.67,9.68-28.14,14.94-44.24,14.94C34.72,147.48,2,114.76,2,74.54c0-18.15,6.71-35.55,18.9-48.99C31.47,13.89,45.39,6.04,60.63,3m6.49-3C29.4,3.91,0,35.79,0,74.54c0,41.39,33.55,74.94,74.94,74.94,19.58,0,37.41-7.51,50.76-19.81-4.22.75-8.56,1.15-13,1.15-40.51,0-73.35-32.84-73.35-73.35,0-23.28,10.84-44.02,27.76-57.46h0Z"/>
    </g>
    <g>
      <path class="cls-1" d="m109.63,82.63c-.53-1.83-1.59-4.16-3.71-6.28-2.18-2.18-4.61-3.22-6.28-3.71,1.83-.53,4.16-1.59,6.28-3.71,1.25-1.25,2.86-3.32,3.71-6.27.86,2.95,2.46,5.02,3.71,6.27,2.12,2.12,4.45,3.18,6.28,3.71-1.67.49-4.1,1.53-6.28,3.71s-3.22,4.61-3.71,6.28Z"/>
      <path d="m109.63,63.48c.91,2.6,2.37,4.46,3.53,5.63,1.87,1.87,3.91,2.93,5.63,3.53-1.72.6-3.76,1.66-5.63,3.53-1.87,1.87-2.93,3.91-3.53,5.63-.6-1.72-1.66-3.76-3.53-5.63-1.87-1.87-3.91-2.93-5.63-3.53,1.72-.6,3.76-1.66,5.63-3.53,1.17-1.17,2.63-3.02,3.53-5.63m0-1.84c-.84,3.82-2.99,6.21-3.89,7.11-2.76,2.76-5.86,3.62-7.11,3.89,1.25.27,4.35,1.13,7.11,3.89s3.62,5.86,3.89,7.11c.27-1.25,1.13-4.35,3.89-7.11s5.86-3.62,7.11-3.89c-1.25-.27-4.35-1.13-7.11-3.89-.9-.9-3.05-3.29-3.89-7.11h0Z"/>
    </g>
    <g>
      <path class="cls-1" d="m79.57,52.39c-.62-2.23-2.01-5.66-5.06-8.71-2.96-2.96-6.22-4.38-8.71-5.06,2.23-.62,5.66-2.01,8.71-5.06,1.42-1.42,3.86-4.36,5.06-8.71,1.2,4.35,3.64,7.29,5.06,8.71,3.05,3.05,6.48,4.44,8.71,5.06-2.49.68-5.75,2.1-8.71,5.06-2.96,2.96-4.38,6.22-5.06,8.71Z"/>
      <path d="m79.58,25.74c1.19,3.73,3.25,6.37,4.88,8,2.68,2.68,5.61,4.12,8.01,4.88-2.39.77-5.33,2.2-8.01,4.88-2.74,2.74-4.16,5.78-4.88,8.01-.77-2.4-2.2-5.33-4.89-8.01-2.68-2.68-5.61-4.12-8.01-4.88,2.39-.77,5.33-2.2,8.01-4.88,1.63-1.63,3.69-4.27,4.88-8m0-1.93c-1.13,5.14-4.02,8.36-5.24,9.57-3.72,3.72-7.89,4.87-9.57,5.24,1.68.37,5.85,1.52,9.57,5.24,3.72,3.72,4.87,7.89,5.24,9.57.37-1.68,1.52-5.85,5.24-9.57,3.72-3.72,7.89-4.87,9.57-5.24-1.68-.37-5.85-1.52-9.57-5.24-1.22-1.22-4.11-4.43-5.24-9.57h0Z"/>
    </g>
    <g>
      <path class="cls-1" d="m89.8,109.85c-.41-1.34-1.26-3.22-2.95-4.91s-3.57-2.53-4.91-2.95c1.45-.44,3.26-1.3,4.91-2.95.99-.99,2.25-2.61,2.95-4.9.75,2.43,2.13,4.09,2.95,4.9,1.65,1.65,3.46,2.5,4.91,2.95-1.34.41-3.22,1.26-4.91,2.95-1.65,1.65-2.5,3.46-2.95,4.91Z"/>
      <path d="m89.8,94.92c.74,1.97,1.86,3.4,2.77,4.3,1.43,1.43,2.97,2.27,4.3,2.77-1.34.5-2.88,1.35-4.3,2.77-1.43,1.43-2.27,2.97-2.77,4.3-.5-1.34-1.35-2.88-2.77-4.3-1.43-1.43-2.97-2.27-4.3-2.77,1.34-.5,2.88-1.35,4.3-2.77.91-.91,2.03-2.33,2.77-4.3m0-1.76c-.67,3.07-2.4,4.99-3.12,5.71-2.22,2.22-4.71,2.9-5.71,3.12,1,.22,3.49.9,5.71,3.12s2.9,4.71,3.12,5.71c.22-1,.9-3.49,3.12-5.71,2.22-2.22,4.71-2.9,5.71-3.12-1-.22-3.49-.9-5.71-3.12-.73-.73-2.45-2.65-3.12-5.71h0Z"/>
    </g>
  </g>
</svg>