<?xml version="1.0" encoding="UTF-8"?>
<svg id="Layer_2" data-name="Layer 2" xmlns="http://www.w3.org/2000/svg" viewBox="0 0 176.87 110.89">
  <defs>
    <style>
      .cls-1 {
        fill: #e6e6e6;
      }

      .cls-1, .cls-2 {
        stroke: #000;
        stroke-miterlimit: 10;
        stroke-width: 2px;
      }

      .cls-2 {
        fill: #fbb03b;
      }
    </style>
  </defs>
  <g id="Layer_1-2" data-name="Layer 1">
    <circle class="cls-2" cx="51.72" cy="52.55" r="49.24"/>
    <g>
      <circle class="cls-2" cx="50.24" cy="50.24" r="49.24"/>
      <path class="cls-1" d="m175.87,94.93c0,5.47-1.51,10.59-4.13,14.97H7.18c-2.84-4.37-4.46-9.48-4.46-14.95,0-14.91,12.11-27.2,27.75-28.97,6.7-11.69,19.31-19.57,33.75-19.57,5.82,0,11.34,1.28,16.29,3.57,7.6-10.91,20.62-16.54,33.22-14.36,14.58,2.53,26.04,15.09,27.49,30.65,1.77-.35,3.6-.52,5.47-.52,16.11,0,29.18,13.06,29.18,29.19Z"/>
    </g>
  </g>
</svg>